<svg width="16" height="16" viewBox="0 0 16 16" fill="none" xmlns="http://www.w3.org/2000/svg">
<g id="create_new_folder">
<mask id="mask0_9087_11240" style="mask-type:alpha" maskUnits="userSpaceOnUse" x="0" y="0" width="16" height="16">
<rect id="Bounding box" width="16" height="16" fill="#D9D9D9"/>
</mask>
<g mask="url(#mask0_9087_11240)">
<path id="create_new_folder_2" d="M9.33203 10.6666H10.6654V9.33329H11.9987V7.99996H10.6654V6.66663H9.33203V7.99996H7.9987V9.33329H9.33203V10.6666ZM2.66536 13.3333C2.2987 13.3333 1.98481 13.2027 1.7237 12.9416C1.46259 12.6805 1.33203 12.3666 1.33203 12V3.99996C1.33203 3.63329 1.46259 3.3194 1.7237 3.05829C1.98481 2.79718 2.2987 2.66663 2.66536 2.66663H6.66536L7.9987 3.99996H13.332C13.6987 3.99996 14.0126 4.13051 14.2737 4.39163C14.5348 4.65274 14.6654 4.96663 14.6654 5.33329V12C14.6654 12.3666 14.5348 12.6805 14.2737 12.9416C14.0126 13.2027 13.6987 13.3333 13.332 13.3333H2.66536ZM2.66536 12H13.332V5.33329H7.4487L6.11536 3.99996H2.66536V12Z" fill="#080525"/>
</g>
</g>
</svg>
