<svg width="24" height="24" viewBox="0 0 24 24" fill="none" xmlns="http://www.w3.org/2000/svg">
    <path fill-rule="evenodd" clip-rule="evenodd" d="M6.5 9h-.52a1 1 0 1 1 0-2h.52a1 1 0 0 1 0 2zM9 8a1 1 0 0 1 1-1h8a1 1 0 1 1 0 2h-8a1 1 0 0 1-1-1zm-4.02 4a1 1 0 0 1 1-1h.52a1 1 0 1 1 0 2h-.52a1 1 0 0 1-1-1zM9 12a1 1 0 0 1 1-1h8a1 1 0 1 1 0 2h-8a1 1 0 0 1-1-1zm-4.02 4a1 1 0 0 1 1-1h.52a1 1 0 1 1 0 2h-.52a1 1 0 0 1-1-1zM9 16a1 1 0 0 1 1-1h8a1 1 0 1 1 0 2h-8a1 1 0 0 1-1-1z" fill="#080525"/>
    <path fill-rule="evenodd" clip-rule="evenodd" d="M21 3H3v18h18V3zM3 1a2 2 0 0 0-2 2v18a2 2 0 0 0 2 2h18a2 2 0 0 0 2-2V3a2 2 0 0 0-2-2H3z" fill="#080525"/>
</svg>
