<svg width="10" height="10" viewBox="0 0 10 10" fill="none" xmlns="http://www.w3.org/2000/svg">
<path d="M6.93071 5.81676C6.92098 5.73749 6.8572 5.67264 6.77757 5.67264C6.69794 5.67264 6.63453 5.73749 6.62481 5.81676C6.5596 6.33847 6.14633 6.75177 5.62459 6.81698C5.54532 6.82671 5.48047 6.89012 5.48047 6.96974C5.48047 7.04936 5.54532 7.11314 5.62459 7.12287C6.1463 7.18773 6.5596 7.60135 6.62481 8.12309C6.63454 8.202 6.69795 8.26686 6.77757 8.26686C6.85719 8.26686 6.92097 8.202 6.93071 8.12309C6.99556 7.60138 7.40919 7.18772 7.93093 7.12287C8.00983 7.11315 8.07469 7.04937 8.07469 6.96974C8.07469 6.89011 8.00983 6.8267 7.93093 6.81698C7.40921 6.75176 6.99555 6.3385 6.93071 5.81676Z" fill="#000"/>
<path d="M4.62372 1.92547C4.61507 1.8199 4.53004 1.73343 4.42375 1.73343C4.31746 1.73343 4.23243 1.8199 4.22378 1.92547C4.13118 3.04596 3.23795 3.93919 2.11782 4.03143C2.01189 4.04007 1.92578 4.12546 1.92578 4.2314C1.92578 4.33768 2.01189 4.42272 2.11782 4.43173C3.23804 4.52396 4.13117 5.41719 4.22378 6.53732C4.23243 6.64324 4.31746 6.72972 4.42375 6.72972C4.53004 6.72972 4.61507 6.64324 4.62372 6.53732C4.71632 5.4171 5.60955 4.52396 6.72968 4.43173C6.83561 4.42272 6.92172 4.33769 6.92172 4.2314C6.92172 4.12547 6.83561 4.04008 6.72968 4.03143C5.60946 3.93919 4.71633 3.04596 4.62372 1.92547Z" fill="#000"/>
</svg>
