<svg width="24" height="24" viewBox="0 0 24 24" fill="none" xmlns="http://www.w3.org/2000/svg">
<g clip-path="url(#clip0_301_35)">
<path d="M11.3447 5.87599C11.3732 5.72306 11.4544 5.58493 11.5741 5.48553C11.6938 5.38614 11.8444 5.33173 12 5.33173C12.1556 5.33173 12.3063 5.38614 12.4259 5.48553C12.5456 5.58493 12.6268 5.72306 12.6553 5.87599L13.356 9.58132C13.4058 9.84475 13.5338 10.0871 13.7234 10.2766C13.9129 10.4662 14.1552 10.5942 14.4187 10.644L18.124 11.3447C18.2769 11.3732 18.4151 11.4544 18.5145 11.5741C18.6139 11.6937 18.6683 11.8444 18.6683 12C18.6683 12.1556 18.6139 12.3062 18.5145 12.4259C18.4151 12.5456 18.2769 12.6268 18.124 12.6553L14.4187 13.356C14.1552 13.4058 13.9129 13.5338 13.7234 13.7233C13.5338 13.9129 13.4058 14.1552 13.356 14.4187L12.6553 18.124C12.6268 18.2769 12.5456 18.415 12.4259 18.5144C12.3063 18.6138 12.1556 18.6683 12 18.6683C11.8444 18.6683 11.6938 18.6138 11.5741 18.5144C11.4544 18.415 11.3732 18.2769 11.3447 18.124L10.644 14.4187C10.5942 14.1552 10.4662 13.9129 10.2767 13.7233C10.0871 13.5338 9.84478 13.4058 9.58135 13.356L5.87601 12.6553C5.72308 12.6268 5.58496 12.5456 5.48556 12.4259C5.38616 12.3062 5.33175 12.1556 5.33175 12C5.33175 11.8444 5.38616 11.6937 5.48556 11.5741C5.58496 11.4544 5.72308 11.3732 5.87601 11.3447L9.58135 10.644C9.84478 10.5942 10.0871 10.4662 10.2767 10.2766C10.4662 10.0871 10.5942 9.84475 10.644 9.58132L11.3447 5.87599Z" stroke="#5A50FA" stroke-width="1.33333" stroke-linecap="round" stroke-linejoin="round"/>
<path d="M17.3333 5.33334V8.00001" stroke="#5A50FA" stroke-width="1.33333" stroke-linecap="round" stroke-linejoin="round"/>
<path d="M18.6667 6.66666H16" stroke="#5A50FA" stroke-width="1.33333" stroke-linecap="round" stroke-linejoin="round"/>
<path d="M6.66667 18.6667C7.40305 18.6667 8 18.0697 8 17.3333C8 16.597 7.40305 16 6.66667 16C5.93029 16 5.33334 16.597 5.33334 17.3333C5.33334 18.0697 5.93029 18.6667 6.66667 18.6667Z" stroke="#5A50FA" stroke-width="1.33333" stroke-linecap="round" stroke-linejoin="round"/>
</g>
<defs>
<clipPath id="clip0_301_35">
<rect width="16" height="16" fill="white" transform="translate(4 4)"/>
</clipPath>
</defs>
</svg>
