<svg width="20" height="20" viewBox="0 0 20 20" fill="none" xmlns="http://www.w3.org/2000/svg">
<g id="alt_route">
<mask id="mask0_9340_32143" style="mask-type:alpha" maskUnits="userSpaceOnUse" x="0" y="0" width="20" height="20">
<rect id="Bounding box" width="20" height="20" fill="#D9D9D9"/>
</mask>
<g mask="url(#mask0_9340_32143)">
<path id="alt_route_2" d="M9.16667 18.3333V14.1667C9.16667 13.3889 9.04861 12.8125 8.8125 12.4375C8.57639 12.0625 8.26389 11.6944 7.875 11.3333L9.0625 10.1458C9.22917 10.2986 9.38889 10.4618 9.54167 10.6354C9.69444 10.809 9.84722 10.993 10 11.1875C10.1944 10.9236 10.3924 10.691 10.5938 10.4896C10.7951 10.2882 11 10.0903 11.2083 9.89582C11.7361 9.40971 12.2153 8.84721 12.6458 8.20832C13.0764 7.56943 13.3056 6.45138 13.3333 4.85416L12.0208 6.16666L10.8333 4.99999L14.1667 1.66666L17.5 4.99999L16.3333 6.16666L15 4.85416C14.9722 6.84027 14.6667 8.25346 14.0833 9.09374C13.5 9.93402 12.9167 10.618 12.3333 11.1458C11.8889 11.5486 11.5278 11.941 11.25 12.3229C10.9722 12.7049 10.8333 13.3194 10.8333 14.1667V18.3333H9.16667ZM5.16667 6.81249C5.11111 6.53471 5.07292 6.22916 5.05208 5.89582C5.03125 5.56249 5.01389 5.21527 5 4.85416L3.66667 6.16666L2.5 4.99999L5.83333 1.66666L9.16667 4.99999L7.97917 6.16666L6.66667 4.87499C6.66667 5.16666 6.68056 5.44096 6.70833 5.69791C6.73611 5.95485 6.76389 6.19443 6.79167 6.41666L5.16667 6.81249ZM6.95833 10.4792C6.68056 10.1875 6.41319 9.84721 6.15625 9.45832C5.89931 9.06943 5.67361 8.59027 5.47917 8.02082L7.08333 7.62499C7.22222 7.99999 7.38194 8.31943 7.5625 8.58332C7.74306 8.84721 7.9375 9.08332 8.14583 9.29166L6.95833 10.4792Z" fill="#1C1B1F"/>
</g>
</g>
</svg>
