<svg width="24" height="24" viewBox="0 0 24 24" fill="none" xmlns="http://www.w3.org/2000/svg">
<path d="M8.25 18C6.51667 18 5.04167 17.3917 3.825 16.175C2.60833 14.9583 2 13.4833 2 11.75C2 10.0167 2.60833 8.54167 3.825 7.325C5.04167 6.10833 6.51667 5.5 8.25 5.5H17.5C18.75 5.5 19.8125 5.9375 20.6875 6.8125C21.5625 7.6875 22 8.75 22 10C22 11.25 21.5625 12.3125 20.6875 13.1875C19.8125 14.0625 18.75 14.5 17.5 14.5H8.75C7.98333 14.5 7.33333 14.2333 6.8 13.7C6.26667 13.1667 6 12.5167 6 11.75C6 10.9833 6.26667 10.3333 6.8 9.8C7.33333 9.26667 7.98333 9 8.75 9H18V11H8.75C8.53333 11 8.35417 11.0708 8.2125 11.2125C8.07083 11.3542 8 11.5333 8 11.75C8 11.9667 8.07083 12.1458 8.2125 12.2875C8.35417 12.4292 8.53333 12.5 8.75 12.5H17.5C18.2 12.4833 18.7917 12.2375 19.275 11.7625C19.7583 11.2875 20 10.7 20 10C20 9.3 19.7583 8.70833 19.275 8.225C18.7917 7.74167 18.2 7.5 17.5 7.5H8.25C7.06667 7.48333 6.0625 7.89167 5.2375 8.725C4.4125 9.55833 4 10.5667 4 11.75C4 12.9167 4.4125 13.9083 5.2375 14.725C6.0625 15.5417 7.06667 15.9667 8.25 16H18V18H8.25Z" fill="black"/>
</svg>
