<svg width="20" height="20" viewBox="0 0 20 20" fill="none" xmlns="http://www.w3.org/2000/svg">
<mask id="mask0_160_148" style="mask-type:alpha" maskUnits="userSpaceOnUse" x="0" y="0" width="20" height="20">
<rect width="20" height="20" fill="#D9D9D9"/>
</mask>
<g mask="url(#mask0_160_148)">
<path d="M13.2158 2.59082C12.6947 2.97742 12.3037 3.52767 12.1191 4.16699H7.58301L4.16699 7.58301V12.417L7.58301 15.833H12.417L15.833 12.417V7.87988C16.4723 7.6953 17.0217 7.30437 17.4082 6.7832L17.5 6.875V13.125L13.125 17.5H6.875L2.5 13.125V6.875L6.875 2.5H13.125L13.2158 2.59082ZM10 12.5C10.236 12.5 10.4341 12.5796 10.5938 12.7393C10.7534 12.8989 10.8329 13.097 10.833 13.333C10.833 13.569 10.7534 13.7671 10.5938 13.9268C10.434 14.0865 10.2361 14.167 10 14.167C9.76389 14.167 9.56597 14.0865 9.40625 13.9268C9.24664 13.7671 9.16699 13.569 9.16699 13.333C9.16707 13.097 9.2466 12.8989 9.40625 12.7393C9.56594 12.5796 9.76397 12.5 10 12.5ZM10.833 5.83301V10.833H9.16699V5.83301H10.833Z" fill="#FF6600"/>
<circle cx="15" cy="5" r="2" fill="#D2371D"/>
</g>
</svg>
