<svg width="15" height="8" viewBox="0 0 15 8" fill="none" xmlns="http://www.w3.org/2000/svg">
<path d="M4 8C2.88889 8 1.94444 7.61111 1.16667 6.83333C0.388889 6.05556 0 5.11111 0 4C0 2.88889 0.388889 1.94444 1.16667 1.16667C1.94444 0.388889 2.88889 0 4 0H10.6667C11.7778 0 12.7222 0.388889 13.5 1.16667C14.2778 1.94444 14.6667 2.88889 14.6667 4C14.6667 5.11111 14.2778 6.05556 13.5 6.83333C12.7222 7.61111 11.7778 8 10.6667 8H4ZM4 6.66667H10.6667C11.4 6.66667 12.0278 6.40556 12.55 5.88333C13.0722 5.36111 13.3333 4.73333 13.3333 4C13.3333 3.26667 13.0722 2.63889 12.55 2.11667C12.0278 1.59444 11.4 1.33333 10.6667 1.33333H4C3.26667 1.33333 2.63889 1.59444 2.11667 2.11667C1.59444 2.63889 1.33333 3.26667 1.33333 4C1.33333 4.73333 1.59444 5.36111 2.11667 5.88333C2.63889 6.40556 3.26667 6.66667 4 6.66667ZM10.6667 6C11.2222 6 11.6944 5.80556 12.0833 5.41667C12.4722 5.02778 12.6667 4.55556 12.6667 4C12.6667 3.44444 12.4722 2.97222 12.0833 2.58333C11.6944 2.19444 11.2222 2 10.6667 2C10.1111 2 9.63889 2.19444 9.25 2.58333C8.86111 2.97222 8.66667 3.44444 8.66667 4C8.66667 4.55556 8.86111 5.02778 9.25 5.41667C9.63889 5.80556 10.1111 6 10.6667 6Z" fill="#838292"/>
</svg>