<svg width="24" height="24" viewBox="0 0 24 24" fill="none" xmlns="http://www.w3.org/2000/svg">
<mask id="mask0_7278_5227" style="mask-type:alpha" maskUnits="userSpaceOnUse" x="0" y="0" width="24" height="24">
<rect width="24" height="24" fill="#D9D9D9"/>
</mask>
<g mask="url(#mask0_7278_5227)">
<path d="M12 22C10.6167 22 9.31667 21.7375 8.1 21.2125C6.88333 20.6875 5.825 19.975 4.925 19.075C4.025 18.175 3.3125 17.1167 2.7875 15.9C2.2625 14.6833 2 13.3833 2 12C2 10.6167 2.2625 9.31667 2.7875 8.1C3.3125 6.88333 4.025 5.825 4.925 4.925C5.825 4.025 6.88333 3.3125 8.1 2.7875C9.31667 2.2625 10.6167 2 12 2C13.3833 2 14.6833 2.2625 15.9 2.7875C17.1167 3.3125 18.175 4.025 19.075 4.925C19.975 5.825 20.6875 6.88333 21.2125 8.1C21.7375 9.31667 22 10.6167 22 12C22 13.3833 21.7375 14.6833 21.2125 15.9C20.6875 17.1167 19.975 18.175 19.075 19.075C18.175 19.975 17.1167 20.6875 15.9 21.2125C14.6833 21.7375 13.3833 22 12 22ZM7.35 11.225L8.75 9.8L10.15 11.225L11.225 10.15L9.8 8.75L11.225 7.35L10.15 6.275L8.75 7.7L7.35 6.275L6.275 7.35L7.7 8.75L6.275 10.15L7.35 11.225ZM12 20C14.2167 20 16.1042 19.2208 17.6625 17.6625C19.2208 16.1042 20 14.2167 20 12C20 10.9 19.7917 9.86667 19.375 8.9C18.9583 7.93333 18.3833 7.08333 17.65 6.35L6.35 17.65C7.08333 18.3833 7.93333 18.9583 8.9 19.375C9.86667 19.7917 10.9 20 12 20ZM14.05 17.6L11.65 15.2L12.7 14.125L14.05 15.475L16.55 13L17.6 14.05L14.05 17.6Z" fill="#080525"/>
</g>
</svg>
