<svg width="24" height="24" viewBox="0 0 24 24" fill="none" xmlns="http://www.w3.org/2000/svg">
<path d="M15 21C14.45 21 13.9792 20.8042 13.5875 20.4125C13.1958 20.0208 13 19.55 13 19V5C13 4.45 13.1958 3.97917 13.5875 3.5875C13.9792 3.19583 14.45 3 15 3H19C19.55 3 20.0208 3.19583 20.4125 3.5875C20.8042 3.97917 21 4.45 21 5V19C21 19.55 20.8042 20.0208 20.4125 20.4125C20.0208 20.8042 19.55 21 19 21H15ZM15 5V19H19V5H15ZM5 21C4.45 21 3.97917 20.8042 3.5875 20.4125C3.19583 20.0208 3 19.55 3 19V5C3 4.45 3.19583 3.97917 3.5875 3.5875C3.97917 3.19583 4.45 3 5 3H9C9.55 3 10.0208 3.19583 10.4125 3.5875C10.8042 3.97917 11 4.45 11 5V19C11 19.55 10.8042 20.0208 10.4125 20.4125C10.0208 20.8042 9.55 21 9 21H5ZM5 5V19H9V5H5Z" fill="black"/>
</svg>
