<svg width="14" height="4" viewBox="0 0 14 4" fill="none" xmlns="http://www.w3.org/2000/svg">
<path d="M1.99992 3.66683C1.54159 3.66683 1.14922 3.50364 0.822835 3.17725C0.496446 2.85086 0.333252 2.4585 0.333252 2.00016C0.333252 1.54183 0.496446 1.14947 0.822835 0.82308C1.14922 0.496691 1.54159 0.333496 1.99992 0.333496C2.45825 0.333496 2.85061 0.496691 3.177 0.82308C3.50339 1.14947 3.66659 1.54183 3.66659 2.00016C3.66659 2.4585 3.50339 2.85086 3.177 3.17725C2.85061 3.50364 2.45825 3.66683 1.99992 3.66683ZM6.99992 3.66683C6.54158 3.66683 6.14922 3.50364 5.82283 3.17725C5.49645 2.85086 5.33325 2.4585 5.33325 2.00016C5.33325 1.54183 5.49645 1.14947 5.82283 0.82308C6.14922 0.496691 6.54158 0.333496 6.99992 0.333496C7.45825 0.333496 7.85061 0.496691 8.177 0.82308C8.50339 1.14947 8.66658 1.54183 8.66658 2.00016C8.66658 2.4585 8.50339 2.85086 8.177 3.17725C7.85061 3.50364 7.45825 3.66683 6.99992 3.66683ZM11.9999 3.66683C11.5416 3.66683 11.1492 3.50364 10.8228 3.17725C10.4964 2.85086 10.3333 2.4585 10.3333 2.00016C10.3333 1.54183 10.4964 1.14947 10.8228 0.82308C11.1492 0.496691 11.5416 0.333496 11.9999 0.333496C12.4583 0.333496 12.8506 0.496691 13.177 0.82308C13.5034 1.14947 13.6666 1.54183 13.6666 2.00016C13.6666 2.4585 13.5034 2.85086 13.177 3.17725C12.8506 3.50364 12.4583 3.66683 11.9999 3.66683Z" fill="black"/>
</svg>
