<svg width="15" height="24" viewBox="0 0 15 24" fill="none" xmlns="http://www.w3.org/2000/svg">
<path d="M3 24C2.175 24 1.46875 23.7063 0.88125 23.1188C0.29375 22.5313 0 21.825 0 21C0 20.175 0.29375 19.4688 0.88125 18.8813C1.46875 18.2938 2.175 18 3 18C3.825 18 4.53125 18.2938 5.11875 18.8813C5.70625 19.4688 6 20.175 6 21C6 21.825 5.70625 22.5313 5.11875 23.1188C4.53125 23.7063 3.825 24 3 24ZM12 24C11.175 24 10.4688 23.7063 9.88125 23.1188C9.29375 22.5313 9 21.825 9 21C9 20.175 9.29375 19.4688 9.88125 18.8813C10.4688 18.2938 11.175 18 12 18C12.825 18 13.5313 18.2938 14.1188 18.8813C14.7063 19.4688 15 20.175 15 21C15 21.825 14.7063 22.5313 14.1188 23.1188C13.5313 23.7063 12.825 24 12 24ZM3 15C2.175 15 1.46875 14.7063 0.88125 14.1188C0.29375 13.5313 0 12.825 0 12C0 11.175 0.29375 10.4688 0.88125 9.88125C1.46875 9.29375 2.175 9 3 9C3.825 9 4.53125 9.29375 5.11875 9.88125C5.70625 10.4688 6 11.175 6 12C6 12.825 5.70625 13.5313 5.11875 14.1188C4.53125 14.7063 3.825 15 3 15ZM12 15C11.175 15 10.4688 14.7063 9.88125 14.1188C9.29375 13.5313 9 12.825 9 12C9 11.175 9.29375 10.4688 9.88125 9.88125C10.4688 9.29375 11.175 9 12 9C12.825 9 13.5313 9.29375 14.1188 9.88125C14.7063 10.4688 15 11.175 15 12C15 12.825 14.7063 13.5313 14.1188 14.1188C13.5313 14.7063 12.825 15 12 15ZM3 6C2.175 6 1.46875 5.70625 0.88125 5.11875C0.29375 4.53125 0 3.825 0 3C0 2.175 0.29375 1.46875 0.88125 0.88125C1.46875 0.29375 2.175 0 3 0C3.825 0 4.53125 0.29375 5.11875 0.88125C5.70625 1.46875 6 2.175 6 3C6 3.825 5.70625 4.53125 5.11875 5.11875C4.53125 5.70625 3.825 6 3 6ZM12 6C11.175 6 10.4688 5.70625 9.88125 5.11875C9.29375 4.53125 9 3.825 9 3C9 2.175 9.29375 1.46875 9.88125 0.88125C10.4688 0.29375 11.175 0 12 0C12.825 0 13.5313 0.29375 14.1188 0.88125C14.7063 1.46875 15 2.175 15 3C15 3.825 14.7063 4.53125 14.1188 5.11875C13.5313 5.70625 12.825 6 12 6Z" fill="#080525"/>
</svg>
