<svg width="16" height="16" viewBox="0 0 16 16" fill="none" xmlns="http://www.w3.org/2000/svg">
<path d="M4.66667 6.00001V4.66667H14V6.00001H4.66667ZM4.66667 8.66667V7.33334H14V8.66667H4.66667ZM4.66667 11.3333V10H14V11.3333H4.66667ZM2.66667 6.00001C2.47778 6.00001 2.31944 5.93612 2.19167 5.80834C2.06389 5.68056 2 5.52223 2 5.33334C2 5.14445 2.06389 4.98612 2.19167 4.85834C2.31944 4.73056 2.47778 4.66667 2.66667 4.66667C2.85556 4.66667 3.01389 4.73056 3.14167 4.85834C3.26944 4.98612 3.33333 5.14445 3.33333 5.33334C3.33333 5.52223 3.26944 5.68056 3.14167 5.80834C3.01389 5.93612 2.85556 6.00001 2.66667 6.00001ZM2.66667 8.66667C2.47778 8.66667 2.31944 8.60278 2.19167 8.47501C2.06389 8.34723 2 8.18889 2 8.00001C2 7.81112 2.06389 7.65278 2.19167 7.52501C2.31944 7.39723 2.47778 7.33334 2.66667 7.33334C2.85556 7.33334 3.01389 7.39723 3.14167 7.52501C3.26944 7.65278 3.33333 7.81112 3.33333 8.00001C3.33333 8.18889 3.26944 8.34723 3.14167 8.47501C3.01389 8.60278 2.85556 8.66667 2.66667 8.66667ZM2.66667 11.3333C2.47778 11.3333 2.31944 11.2694 2.19167 11.1417C2.06389 11.0139 2 10.8556 2 10.6667C2 10.4778 2.06389 10.3194 2.19167 10.1917C2.31944 10.0639 2.47778 10 2.66667 10C2.85556 10 3.01389 10.0639 3.14167 10.1917C3.26944 10.3194 3.33333 10.4778 3.33333 10.6667C3.33333 10.8556 3.26944 11.0139 3.14167 11.1417C3.01389 11.2694 2.85556 11.3333 2.66667 11.3333Z" fill="#000000"/>
</svg>
