<svg width="16" height="16" viewBox="0 0 16 16" fill="none" xmlns="http://www.w3.org/2000/svg">
<g id="manage_search">
<mask id="mask0_9087_11216" style="mask-type:alpha" maskUnits="userSpaceOnUse" x="0" y="0" width="16" height="16">
<rect id="Bounding box" width="16" height="16" fill="#D9D9D9"/>
</mask>
<g mask="url(#mask0_9087_11216)">
<path id="manage_search_2" d="M1.33203 12.6667V11.3333H7.9987V12.6667H1.33203ZM1.33203 9.33333V8H4.66536V9.33333H1.33203ZM1.33203 6V4.66667H4.66536V6H1.33203ZM13.732 12.6667L11.1654 10.1C10.8987 10.2889 10.607 10.4306 10.2904 10.525C9.9737 10.6194 9.65425 10.6667 9.33203 10.6667C8.40981 10.6667 7.6237 10.3417 6.9737 9.69167C6.3237 9.04167 5.9987 8.25556 5.9987 7.33333C5.9987 6.41111 6.3237 5.625 6.9737 4.975C7.6237 4.325 8.40981 4 9.33203 4C10.2543 4 11.0404 4.325 11.6904 4.975C12.3404 5.625 12.6654 6.41111 12.6654 7.33333C12.6654 7.65556 12.6181 7.975 12.5237 8.29167C12.4293 8.60833 12.2876 8.9 12.0987 9.16667L14.6654 11.7333L13.732 12.6667ZM9.33203 9.33333C9.88759 9.33333 10.3598 9.13889 10.7487 8.75C11.1376 8.36111 11.332 7.88889 11.332 7.33333C11.332 6.77778 11.1376 6.30556 10.7487 5.91667C10.3598 5.52778 9.88759 5.33333 9.33203 5.33333C8.77648 5.33333 8.30425 5.52778 7.91536 5.91667C7.52648 6.30556 7.33203 6.77778 7.33203 7.33333C7.33203 7.88889 7.52648 8.36111 7.91536 8.75C8.30425 9.13889 8.77648 9.33333 9.33203 9.33333Z" fill="#080525"/>
</g>
</g>
</svg>
