<svg xmlns="http://www.w3.org/2000/svg" width="20" height="20" viewBox="0 0 20 20" fill="none">
  <path d="M4.16667 16.6669C3.70833 16.6669 3.31597 16.5037 2.98958 16.1773C2.66319 15.8509 2.5 15.4585 2.5 15.0002V3.33354C2.5 2.8752 2.66319 2.48284 2.98958 2.15645C3.31597 1.83006 3.70833 1.66687 4.16667 1.66687H15.8333C16.2917 1.66687 16.684 1.83006 17.0104 2.15645C17.3368 2.48284 17.5 2.8752 17.5 3.33354V8.04187C17.2361 7.91687 16.9653 7.81618 16.6875 7.73979C16.4097 7.6634 16.125 7.60437 15.8333 7.5627V3.33354H4.16667V10.8335H7.66667C7.79167 11.2085 8 11.5349 8.29167 11.8127C8.58333 12.0905 8.90972 12.2849 9.27083 12.396C9.22917 12.6738 9.20139 12.9551 9.1875 13.2398C9.17361 13.5245 9.1875 13.8058 9.22917 14.0835C8.72917 13.9863 8.26042 13.8023 7.82292 13.5315C7.38542 13.2606 7 12.9169 6.66667 12.5002H4.16667V15.0002H9.4375C9.53472 15.3058 9.64583 15.5974 9.77083 15.8752C9.89583 16.153 10.0486 16.4169 10.2292 16.6669H4.16667Z" fill="#080525"/>
  <rect x="14.1797" y="9.15625" width="1.66406" height="8.34375" fill="#080525"/>
  <rect x="19.1836" y="12.4961" width="1.66406" height="8.34375" transform="rotate(90 19.1836 12.4961)" fill="#080525"/>
</svg>