<svg width="12" height="12" viewBox="0 0 12 12" fill="none" xmlns="http://www.w3.org/2000/svg">
<path d="M2.99999 5.33366C2.35555 5.33366 1.80555 5.10588 1.34999 4.65033C0.894434 4.19477 0.666656 3.64477 0.666656 3.00033C0.666656 2.35588 0.894434 1.80588 1.34999 1.35033C1.80555 0.89477 2.35555 0.666992 2.99999 0.666992C3.64443 0.666992 4.19443 0.89477 4.64999 1.35033C5.10555 1.80588 5.33332 2.35588 5.33332 3.00033C5.33332 3.64477 5.10555 4.19477 4.64999 4.65033C4.19443 5.10588 3.64443 5.33366 2.99999 5.33366ZM2.99999 4.00033C3.27777 4.00033 3.51388 3.9031 3.70832 3.70866C3.90277 3.51421 3.99999 3.2781 3.99999 3.00033C3.99999 2.72255 3.90277 2.48644 3.70832 2.29199C3.51388 2.09755 3.27777 2.00033 2.99999 2.00033C2.72221 2.00033 2.4861 2.09755 2.29166 2.29199C2.09721 2.48644 1.99999 2.72255 1.99999 3.00033C1.99999 3.2781 2.09721 3.51421 2.29166 3.70866C2.4861 3.9031 2.72221 4.00033 2.99999 4.00033ZM8.99999 11.3337C8.35555 11.3337 7.80555 11.1059 7.34999 10.6503C6.89443 10.1948 6.66666 9.64477 6.66666 9.00033C6.66666 8.35588 6.89443 7.80588 7.34999 7.35033C7.80555 6.89477 8.35555 6.66699 8.99999 6.66699C9.64443 6.66699 10.1944 6.89477 10.65 7.35033C11.1055 7.80588 11.3333 8.35588 11.3333 9.00033C11.3333 9.64477 11.1055 10.1948 10.65 10.6503C10.1944 11.1059 9.64443 11.3337 8.99999 11.3337ZM8.99999 10.0003C9.27777 10.0003 9.51388 9.9031 9.70832 9.70866C9.90277 9.51421 9.99999 9.2781 9.99999 9.00033C9.99999 8.72255 9.90277 8.48644 9.70832 8.29199C9.51388 8.09755 9.27777 8.00033 8.99999 8.00033C8.72221 8.00033 8.4861 8.09755 8.29166 8.29199C8.09721 8.48644 7.99999 8.72255 7.99999 9.00033C7.99999 9.2781 8.09721 9.51421 8.29166 9.70866C8.4861 9.9031 8.72221 10.0003 8.99999 10.0003ZM1.59999 11.3337L0.666656 10.4003L10.4 0.666992L11.3333 1.60033L1.59999 11.3337Z" fill="#C1C0C8"/>
</svg>
