<svg width="14" height="14" viewBox="0 0 14 14" fill="none" xmlns="http://www.w3.org/2000/svg">
<path d="M7.00065 7.00004C6.08398 7.00004 5.29926 6.67365 4.64648 6.02087C3.99371 5.3681 3.66732 4.58337 3.66732 3.66671C3.66732 2.75004 3.99371 1.96532 4.64648 1.31254C5.29926 0.659763 6.08398 0.333374 7.00065 0.333374C7.91732 0.333374 8.70204 0.659763 9.35482 1.31254C10.0076 1.96532 10.334 2.75004 10.334 3.66671C10.334 4.58337 10.0076 5.3681 9.35482 6.02087C8.70204 6.67365 7.91732 7.00004 7.00065 7.00004ZM0.333984 13.6667V11.3334C0.333984 10.8612 0.455512 10.4271 0.698568 10.0313C0.941623 9.63546 1.26454 9.33337 1.66732 9.12504C2.52843 8.69448 3.40343 8.37157 4.29232 8.15629C5.18121 7.94101 6.08398 7.83337 7.00065 7.83337C7.91732 7.83337 8.8201 7.94101 9.70898 8.15629C10.5979 8.37157 11.4729 8.69448 12.334 9.12504C12.7368 9.33337 13.0597 9.63546 13.3027 10.0313C13.5458 10.4271 13.6673 10.8612 13.6673 11.3334V13.6667H0.333984ZM2.00065 12H12.0007V11.3334C12.0007 11.1806 11.9625 11.0417 11.8861 10.9167C11.8097 10.7917 11.709 10.6945 11.584 10.625C10.834 10.25 10.077 9.96879 9.31315 9.78129C8.54926 9.59379 7.77843 9.50004 7.00065 9.50004C6.22287 9.50004 5.45204 9.59379 4.68815 9.78129C3.92426 9.96879 3.16732 10.25 2.41732 10.625C2.29232 10.6945 2.19162 10.7917 2.11523 10.9167C2.03885 11.0417 2.00065 11.1806 2.00065 11.3334V12ZM7.00065 5.33337C7.45898 5.33337 7.85135 5.17018 8.17773 4.84379C8.50412 4.5174 8.66732 4.12504 8.66732 3.66671C8.66732 3.20837 8.50412 2.81601 8.17773 2.48962C7.85135 2.16324 7.45898 2.00004 7.00065 2.00004C6.54232 2.00004 6.14996 2.16324 5.82357 2.48962C5.49718 2.81601 5.33398 3.20837 5.33398 3.66671C5.33398 4.12504 5.49718 4.5174 5.82357 4.84379C6.14996 5.17018 6.54232 5.33337 7.00065 5.33337Z" fill="#080525"/>
</svg>
