<svg width="16" height="16" viewBox="0 0 16 16" fill="none" xmlns="http://www.w3.org/2000/svg">
<path d="M6.66659 7.33333H3.99992C3.82311 7.33333 3.65354 7.2631 3.52851 7.13807C3.40349 7.01305 3.33325 6.84348 3.33325 6.66667V4.66667C3.33325 4.48986 3.40349 4.32029 3.52851 4.19526C3.65354 4.07024 3.82311 4 3.99992 4H5.99992C6.17673 4 6.3463 4.07024 6.47132 4.19526C6.59635 4.32029 6.66659 4.48986 6.66659 4.66667V8.66667C6.66659 10.4447 5.77792 11.5553 3.99992 12M12.6666 7.33333H9.99992C9.82311 7.33333 9.65354 7.2631 9.52851 7.13807C9.40349 7.01305 9.33325 6.84348 9.33325 6.66667V4.66667C9.33325 4.48986 9.40349 4.32029 9.52851 4.19526C9.65354 4.07024 9.82311 4 9.99992 4H11.9999C12.1767 4 12.3463 4.07024 12.4713 4.19526C12.5963 4.32029 12.6666 4.48986 12.6666 4.66667V8.66667C12.6666 10.4447 11.7779 11.5553 9.99992 12" stroke="#5A50FA" stroke-width="2" stroke-linecap="round" stroke-linejoin="round"/>
</svg>
