<svg width="17" height="18" viewBox="0 0 17 18" fill="none" xmlns="http://www.w3.org/2000/svg">
<path d="M11.75 15.667H12.5833V12.3337H11.75V15.667ZM12.1667 11.5003C12.2778 11.5003 12.375 11.4587 12.4583 11.3753C12.5417 11.292 12.5833 11.1948 12.5833 11.0837C12.5833 10.9725 12.5417 10.8753 12.4583 10.792C12.375 10.7087 12.2778 10.667 12.1667 10.667C12.0556 10.667 11.9583 10.7087 11.875 10.792C11.7917 10.8753 11.75 10.9725 11.75 11.0837C11.75 11.1948 11.7917 11.292 11.875 11.3753C11.9583 11.4587 12.0556 11.5003 12.1667 11.5003ZM3.83333 10.667H6.89583C7.04861 10.3475 7.22569 10.0489 7.42708 9.77116C7.62847 9.49338 7.85417 9.23644 8.10417 9.00033H3.83333V10.667ZM3.83333 14.0003H6.39583C6.35417 13.7225 6.33333 13.4448 6.33333 13.167C6.33333 12.8892 6.35417 12.6114 6.39583 12.3337H3.83333V14.0003ZM2.16667 17.3337C1.70833 17.3337 1.31597 17.1705 0.989583 16.8441C0.663194 16.5177 0.5 16.1253 0.5 15.667V2.33366C0.5 1.87533 0.663194 1.48296 0.989583 1.15658C1.31597 0.830187 1.70833 0.666992 2.16667 0.666992H8.83333L13.8333 5.66699V7.58366C13.5694 7.50033 13.2986 7.43783 13.0208 7.39616C12.7431 7.35449 12.4583 7.33366 12.1667 7.33366V6.50033H8V2.33366H2.16667V15.667H6.89583C7.04861 15.9864 7.22569 16.285 7.42708 16.5628C7.62847 16.8406 7.85417 17.0975 8.10417 17.3337H2.16667ZM12.1667 9.00033C13.3194 9.00033 14.3021 9.40658 15.1146 10.2191C15.9271 11.0316 16.3333 12.0142 16.3333 13.167C16.3333 14.3198 15.9271 15.3024 15.1146 16.1149C14.3021 16.9274 13.3194 17.3337 12.1667 17.3337C11.0139 17.3337 10.0313 16.9274 9.21875 16.1149C8.40625 15.3024 8 14.3198 8 13.167C8 12.0142 8.40625 11.0316 9.21875 10.2191C10.0313 9.40658 11.0139 9.00033 12.1667 9.00033Z" fill="black"/>
</svg>
