<svg width="20" height="20" viewBox="0 0 20 20" fill="none" xmlns="http://www.w3.org/2000/svg">
<mask id="mask0_160_187" style="mask-type:alpha" maskUnits="userSpaceOnUse" x="0" y="0" width="20" height="20">
<rect width="20" height="20" fill="#D9D9D9"/>
</mask>
<g mask="url(#mask0_160_187)">
<path d="M3.54199 15.2502C3.01421 14.6252 2.5906 13.9377 2.27116 13.1877C1.95171 12.4377 1.75033 11.6529 1.66699 10.8335H3.37533C3.45866 11.4307 3.61144 12.0036 3.83366 12.5522C4.05588 13.1009 4.34755 13.6113 4.70866 14.0835L3.54199 15.2502ZM1.66699 9.16683C1.7781 8.34738 1.98644 7.56266 2.29199 6.81266C2.59755 6.06266 3.01421 5.37516 3.54199 4.75016L4.70866 5.91683C4.34755 6.38905 4.05588 6.89947 3.83366 7.44808C3.61144 7.99669 3.45866 8.56961 3.37533 9.16683H1.66699ZM9.12533 18.2918C8.30588 18.2085 7.52463 18.0106 6.78158 17.6981C6.03852 17.3856 5.34755 16.9724 4.70866 16.4585L5.87533 15.2502C6.36144 15.6113 6.87533 15.9099 7.41699 16.146C7.95866 16.3821 8.5281 16.5418 9.12533 16.6252V18.2918ZM5.91699 4.75016L4.70866 3.54183C5.36144 3.02794 6.06283 2.61475 6.81283 2.30225C7.56283 1.98975 8.34755 1.79183 9.16699 1.7085V3.37516C8.56977 3.4585 7.99685 3.61822 7.44824 3.85433C6.89963 4.09044 6.38921 4.38905 5.91699 4.75016ZM10.792 18.2918V16.6252C11.4031 16.5418 11.983 16.3856 12.5316 16.1564C13.0802 15.9272 13.5975 15.6252 14.0837 15.2502L15.292 16.4585C14.6392 16.9863 13.9344 17.4029 13.1774 17.7085C12.4205 18.0141 11.6253 18.2085 10.792 18.2918ZM14.1253 4.75016C13.6392 4.38905 13.1184 4.09044 12.5628 3.85433C12.0073 3.61822 11.4309 3.4585 10.8337 3.37516V1.7085C11.6531 1.79183 12.4413 1.98975 13.1982 2.30225C13.9552 2.61475 14.6531 3.02794 15.292 3.54183L14.1253 4.75016ZM16.4587 15.2502L15.292 14.0835C15.6531 13.6113 15.9448 13.1009 16.167 12.5522C16.3892 12.0036 16.542 11.4307 16.6253 10.8335H18.3337C18.2225 11.6529 18.0142 12.4377 17.7087 13.1877C17.4031 13.9377 16.9864 14.6252 16.4587 15.2502ZM16.6253 9.16683C16.542 8.56961 16.3892 7.99669 16.167 7.44808C15.9448 6.89947 15.6531 6.38905 15.292 5.91683L16.4587 4.75016C16.9864 5.37516 17.41 6.06266 17.7295 6.81266C18.0489 7.56266 18.2503 8.34738 18.3337 9.16683H16.6253Z" fill="#5A50FA"/>
<mask id="mask1_160_187" style="mask-type:alpha" maskUnits="userSpaceOnUse" x="2" y="2" width="17" height="17">
<rect x="2.00012" y="2.00012" width="16" height="16" fill="#D9D9D9"/>
</mask>
<g mask="url(#mask1_160_187)">
<path d="M8.66679 13.133L6.00012 10.4663L6.93346 9.533L8.66679 11.2663L13.0668 6.86633L14.0001 7.79967L8.66679 13.133Z" fill="#5A50FA"/>
</g>
</g>
</svg>
