<svg width="24" height="24" viewBox="0 0 24 24" fill="none" xmlns="http://www.w3.org/2000/svg">
<path d="M12.5 12H12.491M8 12C10.9997 8 14.0003 8 17 12C14.0003 16 10.9997 16 8 12Z" stroke="black" stroke-width="2.2" stroke-linecap="round" stroke-linejoin="round"/>
<path d="M19.2244 18.8824L19.5313 18.5647V20.6527C19.5313 21.0386 19.8162 21.3336 20.1889 21.3336H20.3424C20.715 21.3336 21 21.0386 21 20.6527L20.9781 16.749C20.9781 16.3404 20.6493 16 20.2547 16H16.4623C16.0896 16 15.8046 16.2951 15.8046 16.6809V16.8398C15.8046 17.2256 16.0896 17.5207 16.4623 17.5207H18.479L18.1721 17.8384C14.8839 21.2201 9.64469 21.379 6.20302 18.2696C5.93996 18.02 5.54538 18.0427 5.30424 18.2923L5.19464 18.4058C4.93158 18.6782 4.93158 19.1321 5.21656 19.4044C9.2501 23.0132 15.3662 22.877 19.2244 18.8824Z" fill="black" stroke="black" stroke-width="0.3"/>
<path d="M4.77564 5.11757L4.46874 5.43532V3.34726C4.46874 2.96142 4.18376 2.66637 3.81109 2.66637H3.65764C3.28498 2.66637 3 2.96142 3 3.34726L3.02192 7.25102C3.02192 7.65956 3.35074 8 3.74533 8H7.53774C7.9104 8 8.19538 7.70495 8.19538 7.31911V7.16024C8.19538 6.7744 7.9104 6.47935 7.53774 6.47935H5.52097L5.82787 6.1616C9.11609 2.77985 14.3553 2.62098 17.797 5.73037C18.06 5.98003 18.4546 5.95733 18.6958 5.70767L18.8054 5.59419C19.0684 5.32184 19.0684 4.86791 18.7834 4.59556C14.7499 0.986847 8.63381 1.12302 4.77564 5.11757Z" fill="black" stroke="black" stroke-width="0.3"/>
</svg>
