<svg width="40" height="40" viewBox="0 0 40 40" fill="none" stroke="#080525" xmlns="http://www.w3.org/2000/svg">
<path d="M6.6665 13.3346V10.0013C6.6665 9.11725 7.01769 8.2694 7.64281 7.64428C8.26794 7.01916 9.11578 6.66797 9.99984 6.66797H13.3332M6.6665 26.668V30.0013C6.6665 30.8854 7.01769 31.7332 7.64281 32.3583C8.26794 32.9834 9.11578 33.3346 9.99984 33.3346H13.3332M26.6665 6.66797H29.9998C30.8839 6.66797 31.7317 7.01916 32.3569 7.64428C32.982 8.2694 33.3332 9.11725 33.3332 10.0013V13.3346M26.6665 33.3346H29.9998C30.8839 33.3346 31.7317 32.9834 32.3569 32.3583C32.982 31.7332 33.3332 30.8854 33.3332 30.0013V26.668M19.9998 20.0013H19.9832M11.6665 20.0013C17.2215 12.223 22.7782 12.223 28.3332 20.0013C22.7782 27.7796 17.2215 27.7796 11.6665 20.0013Z" stroke-width="3" stroke-linecap="round" stroke-linejoin="round"/>
</svg>
