<svg width="20" height="20" viewBox="0 0 20 20" fill="none" xmlns="http://www.w3.org/2000/svg">
<g id="snooze on">
<path id="Vector" d="M3.33366 15.8332V14.1665H5.00033V8.33317C5.00033 7.87484 5.05935 7.42345 5.17741 6.979C5.29546 6.53456 5.47255 6.11095 5.70866 5.70817L6.95866 6.95817C6.86144 7.18039 6.78852 7.40609 6.73991 7.63525C6.6913 7.86442 6.66699 8.09706 6.66699 8.33317V14.1665H11.8337L1.16699 3.49984L2.33366 2.33317L17.667 17.6665L16.5003 18.8332L13.4587 15.8332H3.33366ZM15.0003 12.6248L13.3337 10.9582V8.33317C13.3337 7.4165 13.0073 6.63178 12.3545 5.979C11.7017 5.32623 10.917 4.99984 10.0003 4.99984C9.63922 4.99984 9.29199 5.05539 8.95866 5.1665C8.62533 5.27762 8.31977 5.44428 8.04199 5.6665L6.83366 4.45817C7.11144 4.23595 7.41005 4.0415 7.72949 3.87484C8.04894 3.70817 8.38922 3.58317 8.75033 3.49984V2.9165C8.75033 2.56928 8.87185 2.27414 9.11491 2.03109C9.35797 1.78803 9.6531 1.6665 10.0003 1.6665C10.3475 1.6665 10.6427 1.78803 10.8857 2.03109C11.1288 2.27414 11.2503 2.56928 11.2503 2.9165V3.49984C12.3614 3.77762 13.2642 4.36442 13.9587 5.26025C14.6531 6.15609 15.0003 7.18039 15.0003 8.33317V12.6248ZM10.0003 18.3332C9.54199 18.3332 9.14963 18.17 8.82324 17.8436C8.49685 17.5172 8.33366 17.1248 8.33366 16.6665H11.667C11.667 17.1248 11.5038 17.5172 11.1774 17.8436C10.851 18.17 10.4587 18.3332 10.0003 18.3332Z" fill="black"/>
</g>
</svg>
