<svg width="32" height="32" viewBox="0 0 32 32" fill="none" xmlns="http://www.w3.org/2000/svg">
<path d="M24 10.6667C25.0609 10.6667 26.0783 11.0881 26.8284 11.8382C27.5786 12.5884 28 13.6058 28 14.6667C28 15.7275 27.5786 16.7449 26.8284 17.4951C26.0783 18.2452 25.0609 18.6667 24 18.6667M13.3333 10.6667V25.3333C13.3333 25.687 13.1929 26.0261 12.9428 26.2761C12.6928 26.5262 12.3536 26.6667 12 26.6667H10.6667C10.313 26.6667 9.97391 26.5262 9.72386 26.2761C9.47381 26.0261 9.33333 25.687 9.33333 25.3333V18.6667M16 10.6667L22.032 5.64001C22.2073 5.49402 22.4205 5.40101 22.6468 5.37189C22.873 5.34276 23.1029 5.37871 23.3094 5.47555C23.5159 5.57238 23.6906 5.72607 23.8129 5.91861C23.9352 6.11115 24.0001 6.33457 24 6.56268V22.7707C24.0001 22.9988 23.9352 23.2222 23.8129 23.4147C23.6906 23.6073 23.5159 23.761 23.3094 23.8578C23.1029 23.9546 22.873 23.9906 22.6468 23.9615C22.4205 23.9323 22.2073 23.8393 22.032 23.6933L16 18.6667H5.33333C4.97971 18.6667 4.64057 18.5262 4.39052 18.2762C4.14048 18.0261 4 17.687 4 17.3333V12C4 11.6464 4.14048 11.3073 4.39052 11.0572C4.64057 10.8072 4.97971 10.6667 5.33333 10.6667H16Z" stroke="#5A50FA" stroke-width="2" stroke-linecap="round" stroke-linejoin="round"/>
</svg>
