<svg xmlns="http://www.w3.org/2000/svg" width="16" height="16" viewBox="0 0 16 16" fill="none">
  <path d="M4.00002 9.33334C3.63335 9.33334 3.31946 9.20278 3.05835 8.94167C2.79724 8.68056 2.66669 8.36667 2.66669 8.00001C2.66669 7.63334 2.79724 7.31945 3.05835 7.05834C3.31946 6.79723 3.63335 6.66667 4.00002 6.66667C4.36669 6.66667 4.68058 6.79723 4.94169 7.05834C5.2028 7.31945 5.33335 7.63334 5.33335 8.00001C5.33335 8.36667 5.2028 8.68056 4.94169 8.94167C4.68058 9.20278 4.36669 9.33334 4.00002 9.33334ZM8.00002 9.33334C7.63335 9.33334 7.31947 9.20278 7.05835 8.94167C6.79724 8.68056 6.66669 8.36667 6.66669 8.00001C6.66669 7.63334 6.79724 7.31945 7.05835 7.05834C7.31947 6.79723 7.63335 6.66667 8.00002 6.66667C8.36669 6.66667 8.68058 6.79723 8.94169 7.05834C9.2028 7.31945 9.33335 7.63334 9.33335 8.00001C9.33335 8.36667 9.2028 8.68056 8.94169 8.94167C8.68058 9.20278 8.36669 9.33334 8.00002 9.33334ZM12 9.33334C11.6334 9.33334 11.3195 9.20278 11.0584 8.94167C10.7972 8.68056 10.6667 8.36667 10.6667 8.00001C10.6667 7.63334 10.7972 7.31945 11.0584 7.05834C11.3195 6.79723 11.6334 6.66667 12 6.66667C12.3667 6.66667 12.6806 6.79723 12.9417 7.05834C13.2028 7.31945 13.3334 7.63334 13.3334 8.00001C13.3334 8.36667 13.2028 8.68056 12.9417 8.94167C12.6806 9.20278 12.3667 9.33334 12 9.33334Z" fill="#000000"/>
</svg>
