<svg width="18" height="18" viewBox="0 0 18 18" fill="none" xmlns="http://www.w3.org/2000/svg">
<path d="M5.66602 12.3333H15.666V3.99996H5.66602V12.3333ZM5.66602 14C5.20768 14 4.81532 13.8368 4.48893 13.5104C4.16254 13.184 3.99935 12.7916 3.99935 12.3333V2.33329C3.99935 1.87496 4.16254 1.4826 4.48893 1.15621C4.81532 0.82982 5.20768 0.666626 5.66602 0.666626H15.666C16.1243 0.666626 16.5167 0.82982 16.8431 1.15621C17.1695 1.4826 17.3327 1.87496 17.3327 2.33329V12.3333C17.3327 12.7916 17.1695 13.184 16.8431 13.5104C16.5167 13.8368 16.1243 14 15.666 14H5.66602ZM2.33268 17.3333C1.87435 17.3333 1.48199 17.1701 1.1556 16.8437C0.82921 16.5173 0.666016 16.125 0.666016 15.6666V3.99996H2.33268V15.6666H13.9993V17.3333H2.33268Z" fill="#080525"/>
</svg>
