<svg width="20" height="20" viewBox="0 0 20 20" fill="none" xmlns="http://www.w3.org/2000/svg">
<mask id="mask0_160_178" style="mask-type:alpha" maskUnits="userSpaceOnUse" x="0" y="0" width="20" height="20">
<rect width="20" height="20" fill="#D9D9D9"/>
</mask>
<g mask="url(#mask0_160_178)">
<path d="M10.0003 18.3337C8.84755 18.3337 7.76421 18.1149 6.75033 17.6774C5.73644 17.2399 4.85449 16.6462 4.10449 15.8962C3.35449 15.1462 2.76074 14.2642 2.32324 13.2503C1.88574 12.2364 1.66699 11.1531 1.66699 10.0003C1.66699 8.84755 1.88574 7.76421 2.32324 6.75033C2.76074 5.73644 3.35449 4.85449 4.10449 4.10449C4.85449 3.35449 5.73644 2.76074 6.75033 2.32324C7.76421 1.88574 8.84755 1.66699 10.0003 1.66699C11.2225 1.66699 12.3788 1.91699 13.4691 2.41699C14.5594 2.91699 15.5003 3.62533 16.292 4.54199L10.0003 10.8337V3.33366C8.13921 3.33366 6.56283 3.97949 5.27116 5.27116C3.97949 6.56283 3.33366 8.13921 3.33366 10.0003C3.33366 11.8614 3.97949 13.4378 5.27116 14.7295C6.56283 16.0212 8.13921 16.667 10.0003 16.667C10.9587 16.667 11.8753 16.4691 12.7503 16.0732C13.6253 15.6774 14.3753 15.1114 15.0003 14.3753V16.667C14.2642 17.1948 13.4725 17.6045 12.6253 17.8962C11.7781 18.1878 10.9031 18.3337 10.0003 18.3337ZM16.667 15.0003V8.33366H18.3337V15.0003H16.667ZM17.5003 18.3337C17.2642 18.3337 17.0663 18.2538 16.9066 18.0941C16.7469 17.9344 16.667 17.7364 16.667 17.5003C16.667 17.2642 16.7469 17.0663 16.9066 16.9066C17.0663 16.7469 17.2642 16.667 17.5003 16.667C17.7364 16.667 17.9344 16.7469 18.0941 16.9066C18.2538 17.0663 18.3337 17.2642 18.3337 17.5003C18.3337 17.7364 18.2538 17.9344 18.0941 18.0941C17.9344 18.2538 17.7364 18.3337 17.5003 18.3337Z" fill="#D2371D"/>
</g>
</svg>
