<svg width="16" height="16" viewBox="0 0 16 16" fill="none" xmlns="http://www.w3.org/2000/svg">
<path d="M10 4L12 6M4 14L14 4L12 2L2 12L4 14ZM6 2C6 2.35362 6.14048 2.69276 6.39052 2.94281C6.64057 3.19286 6.97971 3.33333 7.33333 3.33333C6.97971 3.33333 6.64057 3.47381 6.39052 3.72386C6.14048 3.97391 6 4.31304 6 4.66667C6 4.31304 5.85952 3.97391 5.60948 3.72386C5.35943 3.47381 5.02029 3.33333 4.66667 3.33333C5.02029 3.33333 5.35943 3.19286 5.60948 2.94281C5.85952 2.69276 6 2.35362 6 2ZM12.6667 8.66667C12.6667 9.02029 12.8071 9.35943 13.0572 9.60948C13.3072 9.85952 13.6464 10 14 10C13.6464 10 13.3072 10.1405 13.0572 10.3905C12.8071 10.6406 12.6667 10.9797 12.6667 11.3333C12.6667 10.9797 12.5262 10.6406 12.2761 10.3905C12.0261 10.1405 11.687 10 11.3333 10C11.687 10 12.0261 9.85952 12.2761 9.60948C12.5262 9.35943 12.6667 9.02029 12.6667 8.66667Z" stroke="#5A50FA" stroke-linecap="round" stroke-linejoin="round"/>
</svg>
