<?xml version="1.0" encoding="utf-8"?><svg xmlns="http://www.w3.org/2000/svg" xmlns:xlink="http://www.w3.org/1999/xlink"><symbol viewBox="0 0 20 20" fill="none" id="alt-route" xmlns="http://www.w3.org/2000/svg"><g id="aaalt_route"><mask id="aamask0_9340_32143" style="mask-type:alpha" maskUnits="userSpaceOnUse" x="0" y="0" width="20" height="20"><rect id="aaBounding box" width="20" height="20" fill="currentColor"/></mask><g mask="url(#aamask0_9340_32143)"><path id="aaalt_route_2" d="M9.16667 18.3333V14.1667C9.16667 13.3889 9.04861 12.8125 8.8125 12.4375C8.57639 12.0625 8.26389 11.6944 7.875 11.3333L9.0625 10.1458C9.22917 10.2986 9.38889 10.4618 9.54167 10.6354C9.69444 10.809 9.84722 10.993 10 11.1875C10.1944 10.9236 10.3924 10.691 10.5938 10.4896C10.7951 10.2882 11 10.0903 11.2083 9.89582C11.7361 9.40971 12.2153 8.84721 12.6458 8.20832C13.0764 7.56943 13.3056 6.45138 13.3333 4.85416L12.0208 6.16666L10.8333 4.99999L14.1667 1.66666L17.5 4.99999L16.3333 6.16666L15 4.85416C14.9722 6.84027 14.6667 8.25346 14.0833 9.09374C13.5 9.93402 12.9167 10.618 12.3333 11.1458C11.8889 11.5486 11.5278 11.941 11.25 12.3229C10.9722 12.7049 10.8333 13.3194 10.8333 14.1667V18.3333H9.16667ZM5.16667 6.81249C5.11111 6.53471 5.07292 6.22916 5.05208 5.89582C5.03125 5.56249 5.01389 5.21527 5 4.85416L3.66667 6.16666L2.5 4.99999L5.83333 1.66666L9.16667 4.99999L7.97917 6.16666L6.66667 4.87499C6.66667 5.16666 6.68056 5.44096 6.70833 5.69791C6.73611 5.95485 6.76389 6.19443 6.79167 6.41666L5.16667 6.81249ZM6.95833 10.4792C6.68056 10.1875 6.41319 9.84721 6.15625 9.45832C5.89931 9.06943 5.67361 8.59027 5.47917 8.02082L7.08333 7.62499C7.22222 7.99999 7.38194 8.31943 7.5625 8.58332C7.74306 8.84721 7.9375 9.08332 8.14583 9.29166L6.95833 10.4792Z" fill="currentColor"/></g></g></symbol><symbol viewBox="0 0 24 24" fill="none" id="analytics" xmlns="http://www.w3.org/2000/svg"><path fill-rule="evenodd" clip-rule="evenodd" d="M1 5a2 2 0 0 1 2-2h18a2 2 0 0 1 2 2v14a2 2 0 0 1-2 2H3a2 2 0 0 1-2-2V5zm20 0H3v14h18V5zM7 8v9H5V8h2zm12 0v9h-2V8h2zm-8 2v7H9v-7h2zm4 4v3h-2v-3h2z" fill="currentColor"/></symbol><symbol viewBox="0 0 24 24" fill="none" id="arrow-2-down" xmlns="http://www.w3.org/2000/svg"><path d="m12 14-4-4h8l-4 4z" fill="currentColor"/></symbol><symbol viewBox="0 0 24 24" fill="none" id="arrow-2-up" xmlns="http://www.w3.org/2000/svg"><path d="m12 10-4 4h8l-4-4z" fill="currentColor"/></symbol><symbol viewBox="0 0 24 24" fill="none" id="arrow-left" xmlns="http://www.w3.org/2000/svg"><path d="M15.207 7.707a1 1 0 0 0-1.414-1.414l1.414 1.414zM9.5 12l-.707-.707a1 1 0 0 0 0 1.414L9.5 12zm4.293 5.707a1 1 0 0 0 1.414-1.414l-1.414 1.414zm0-11.414-5 5 1.414 1.414 5-5-1.414-1.414zm-5 6.414 5 5 1.414-1.414-5-5-1.414 1.414z" fill="currentColor"/></symbol><symbol viewBox="0 0 24 24" fill="none" id="arrow-right" xmlns="http://www.w3.org/2000/svg"><path d="M10.207 6.293a1 1 0 0 0-1.414 1.414l1.414-1.414zM14.5 12l.707.707a1 1 0 0 0 0-1.414L14.5 12zm-5.707 4.293a1 1 0 1 0 1.414 1.414l-1.414-1.414zm0-8.586 5 5 1.414-1.414-5-5-1.414 1.414zm5 3.586-5 5 1.414 1.414 5-5-1.414-1.414z" fill="currentColor"/></symbol><symbol viewBox="0 0 20 20" fill="none" id="attachment" xmlns="http://www.w3.org/2000/svg"><mask id="agmask0_9068_33632" style="mask-type:alpha" maskUnits="userSpaceOnUse" x="0" y="0" width="20" height="20"><rect width="20" height="20" fill="currentColor"/></mask><g mask="url(#agmask0_9068_33632)"><path d="M6.25521 14.5837C4.97743 14.5837 3.8941 14.1392 3.00521 13.2503C2.11632 12.3614 1.67188 11.2781 1.67188 10.0003C1.67188 8.72255 2.11632 7.63921 3.00521 6.75033C3.8941 5.86144 4.97743 5.41699 6.25521 5.41699H15.0052C15.9219 5.41699 16.7066 5.74338 17.3594 6.39616C18.0122 7.04894 18.3385 7.83366 18.3385 8.75033C18.3385 9.66699 18.0122 10.4517 17.3594 11.1045C16.7066 11.7573 15.9219 12.0837 15.0052 12.0837H7.08854C6.50521 12.0837 6.01215 11.8823 5.60937 11.4795C5.2066 11.0767 5.00521 10.5837 5.00521 10.0003C5.00521 9.41699 5.2066 8.92394 5.60937 8.52116C6.01215 8.11838 6.50521 7.91699 7.08854 7.91699H15.0052V9.16699H7.08854C6.85243 9.16699 6.65451 9.24685 6.49479 9.40658C6.33507 9.5663 6.25521 9.76421 6.25521 10.0003C6.25521 10.2364 6.33507 10.4344 6.49479 10.5941C6.65451 10.7538 6.85243 10.8337 7.08854 10.8337H15.0052C15.5885 10.8337 16.0816 10.6323 16.4844 10.2295C16.8872 9.82671 17.0885 9.33366 17.0885 8.75033C17.0885 8.16699 16.8872 7.67394 16.4844 7.27116C16.0816 6.86838 15.5885 6.66699 15.0052 6.66699H6.25521C5.33854 6.66699 4.55382 6.99338 3.90104 7.64616C3.24826 8.29894 2.92188 9.08366 2.92188 10.0003C2.92188 10.917 3.24826 11.7017 3.90104 12.3545C4.55382 13.0073 5.33854 13.3337 6.25521 13.3337H15.0052V14.5837H6.25521Z" fill="currentColor"/></g></symbol><symbol viewBox="0 0 24 24" fill="none" id="backtest" xmlns="http://www.w3.org/2000/svg"><path fill-rule="evenodd" clip-rule="evenodd" d="M20 4a2 2 0 0 0-2-2H6a2 2 0 0 0-2 2v17a2 2 0 0 0 2 2h12a2 2 0 0 0 2-2V4zm-2 0v17H6V4h12zm-6-.248a.752.752 0 1 0 0-1.504.752.752 0 0 0 0 1.503z" fill="currentColor"/><path fill-rule="evenodd" clip-rule="evenodd" d="M16 2v4H8V2h2.268a2 2 0 0 1 3.464 0H16zm-4 1.752a.752.752 0 1 0 0-1.504.752.752 0 0 0 0 1.503zM16.684 10.729l-6.017 5.64-3.351-3.14 1.368-1.46 1.983 1.86 4.65-4.36 1.367 1.46z" fill="currentColor"/></symbol><symbol viewBox="0 0 24 24" fill="none" id="boolean" xmlns="http://www.w3.org/2000/svg"><mask id="aimask0_7278_5227" style="mask-type:alpha" maskUnits="userSpaceOnUse" x="0" y="0" width="24" height="24"><rect width="24" height="24" fill="currentColor"/></mask><g mask="url(#aimask0_7278_5227)"><path d="M12 22C10.6167 22 9.31667 21.7375 8.1 21.2125C6.88333 20.6875 5.825 19.975 4.925 19.075C4.025 18.175 3.3125 17.1167 2.7875 15.9C2.2625 14.6833 2 13.3833 2 12C2 10.6167 2.2625 9.31667 2.7875 8.1C3.3125 6.88333 4.025 5.825 4.925 4.925C5.825 4.025 6.88333 3.3125 8.1 2.7875C9.31667 2.2625 10.6167 2 12 2C13.3833 2 14.6833 2.2625 15.9 2.7875C17.1167 3.3125 18.175 4.025 19.075 4.925C19.975 5.825 20.6875 6.88333 21.2125 8.1C21.7375 9.31667 22 10.6167 22 12C22 13.3833 21.7375 14.6833 21.2125 15.9C20.6875 17.1167 19.975 18.175 19.075 19.075C18.175 19.975 17.1167 20.6875 15.9 21.2125C14.6833 21.7375 13.3833 22 12 22ZM7.35 11.225L8.75 9.8L10.15 11.225L11.225 10.15L9.8 8.75L11.225 7.35L10.15 6.275L8.75 7.7L7.35 6.275L6.275 7.35L7.7 8.75L6.275 10.15L7.35 11.225ZM12 20C14.2167 20 16.1042 19.2208 17.6625 17.6625C19.2208 16.1042 20 14.2167 20 12C20 10.9 19.7917 9.86667 19.375 8.9C18.9583 7.93333 18.3833 7.08333 17.65 6.35L6.35 17.65C7.08333 18.3833 7.93333 18.9583 8.9 19.375C9.86667 19.7917 10.9 20 12 20ZM14.05 17.6L11.65 15.2L12.7 14.125L14.05 15.475L16.55 13L17.6 14.05L14.05 17.6Z" fill="currentColor"/></g></symbol><symbol viewBox="0 0 24 24" fill="none" id="calendar" xmlns="http://www.w3.org/2000/svg"><path fill-rule="evenodd" clip-rule="evenodd" d="M6 3H4a2 2 0 0 0-2 2v15a2 2 0 0 0 2 2h16a2 2 0 0 0 2-2V5a2 2 0 0 0-2-2h-2V1h-2v2H8V1H6v2zM4 5v2.95h16V5H4zm16 4.95H4V20h16V9.95z" fill="currentColor"/></symbol><symbol viewBox="0 -960 960 960" fill="none" id="calendar-month" xmlns="http://www.w3.org/2000/svg"><path fill-rule="evenodd" clip-rule="evenodd" fill="currentColor" d="M200-80q-33 0-56.5-23.5T120-160v-560q0-33 23.5-56.5T200-800h40v-80h80v80h320v-80h80v80h40q33 0 56.5 23.5T840-720v560q0 33-23.5 56.5T760-80H200Zm0-80h560v-400H200v400Zm0-480h560v-80H200v80Zm0 0v-80 80Zm280 240q-17 0-28.5-11.5T440-440q0-17 11.5-28.5T480-480q17 0 28.5 11.5T520-440q0 17-11.5 28.5T480-400Zm-160 0q-17 0-28.5-11.5T280-440q0-17 11.5-28.5T320-480q17 0 28.5 11.5T360-440q0 17-11.5 28.5T320-400Zm320 0q-17 0-28.5-11.5T600-440q0-17 11.5-28.5T640-480q17 0 28.5 11.5T680-440q0 17-11.5 28.5T640-400ZM480-240q-17 0-28.5-11.5T440-280q0-17 11.5-28.5T480-320q17 0 28.5 11.5T520-280q0 17-11.5 28.5T480-240Zm-160 0q-17 0-28.5-11.5T280-280q0-17 11.5-28.5T320-320q17 0 28.5 11.5T360-280q0 17-11.5 28.5T320-240Zm320 0q-17 0-28.5-11.5T600-280q0-17 11.5-28.5T640-320q17 0 28.5 11.5T680-280q0 17-11.5 28.5T640-240Z"/></symbol><symbol viewBox="0 0 20 20" fill="none" id="case-manager" xmlns="http://www.w3.org/2000/svg"><mask id="almask0_9100_25953" style="mask-type:alpha" maskUnits="userSpaceOnUse" x="0" y="0" width="20" height="20"><rect width="20" height="20" fill="currentColor"/></mask><g mask="url(#almask0_9100_25953)"><path d="M9.375 11.25C9.90278 11.25 10.3472 11.0694 10.7083 10.7083C11.0694 10.3472 11.25 9.90278 11.25 9.375C11.25 8.84722 11.0694 8.40278 10.7083 8.04167C10.3472 7.68056 9.90278 7.5 9.375 7.5C8.84722 7.5 8.40278 7.68056 8.04167 8.04167C7.68056 8.40278 7.5 8.84722 7.5 9.375C7.5 9.90278 7.68056 10.3472 8.04167 10.7083C8.40278 11.0694 8.84722 11.25 9.375 11.25ZM13.3958 14.5833L11.2083 12.3958C10.9306 12.5764 10.6354 12.7083 10.3229 12.7917C10.0104 12.875 9.69444 12.9167 9.375 12.9167C8.38889 12.9167 7.55208 12.5729 6.86458 11.8854C6.17708 11.1979 5.83333 10.3611 5.83333 9.375C5.83333 8.38889 6.17708 7.55208 6.86458 6.86458C7.55208 6.17708 8.38889 5.83333 9.375 5.83333C10.3611 5.83333 11.1979 6.17708 11.8854 6.86458C12.5729 7.55208 12.9167 8.38889 12.9167 9.375C12.9167 9.69444 12.8715 10.0104 12.7812 10.3229C12.691 10.6354 12.5556 10.9306 12.375 11.2083L14.5833 13.4167L13.3958 14.5833ZM4.16667 17.5C3.70833 17.5 3.31597 17.3368 2.98958 17.0104C2.66319 16.684 2.5 16.2917 2.5 15.8333V12.5H4.16667V15.8333H7.5V17.5H4.16667ZM12.5 17.5V15.8333H15.8333V12.5H17.5V15.8333C17.5 16.2917 17.3368 16.684 17.0104 17.0104C16.684 17.3368 16.2917 17.5 15.8333 17.5H12.5ZM2.5 7.5V4.16667C2.5 3.70833 2.66319 3.31597 2.98958 2.98958C3.31597 2.66319 3.70833 2.5 4.16667 2.5H7.5V4.16667H4.16667V7.5H2.5ZM15.8333 7.5V4.16667H12.5V2.5H15.8333C16.2917 2.5 16.684 2.66319 17.0104 2.98958C17.3368 3.31597 17.5 3.70833 17.5 4.16667V7.5H15.8333Z" fill="currentColor"/></g></symbol><symbol viewBox="0 0 20 20" fill="none" id="category" xmlns="http://www.w3.org/2000/svg"><g id="amcategory"><mask id="ammask0_9340_32149" style="mask-type:alpha" maskUnits="userSpaceOnUse" x="0" y="0" width="20" height="20"><rect id="amBounding box" width="20" height="20" fill="currentColor"/></mask><g mask="url(#ammask0_9340_32149)"><path id="amcategory_2" d="M5.41667 9.16666L10 1.66666L14.5833 9.16666H5.41667ZM14.5833 18.3333C13.5417 18.3333 12.6562 17.9687 11.9271 17.2396C11.1979 16.5104 10.8333 15.625 10.8333 14.5833C10.8333 13.5417 11.1979 12.6562 11.9271 11.9271C12.6562 11.1979 13.5417 10.8333 14.5833 10.8333C15.625 10.8333 16.5104 11.1979 17.2396 11.9271C17.9688 12.6562 18.3333 13.5417 18.3333 14.5833C18.3333 15.625 17.9688 16.5104 17.2396 17.2396C16.5104 17.9687 15.625 18.3333 14.5833 18.3333ZM2.5 17.9167V11.25H9.16667V17.9167H2.5ZM14.5833 16.6667C15.1667 16.6667 15.6597 16.4653 16.0625 16.0625C16.4653 15.6597 16.6667 15.1667 16.6667 14.5833C16.6667 14 16.4653 13.5069 16.0625 13.1042C15.6597 12.7014 15.1667 12.5 14.5833 12.5C14 12.5 13.5069 12.7014 13.1042 13.1042C12.7014 13.5069 12.5 14 12.5 14.5833C12.5 15.1667 12.7014 15.6597 13.1042 16.0625C13.5069 16.4653 14 16.6667 14.5833 16.6667ZM4.16667 16.25H7.5V12.9167H4.16667V16.25ZM8.375 7.49999H11.625L10 4.87499L8.375 7.49999Z" fill="currentColor"/></g></g></symbol><symbol viewBox="0 0 20 20" fill="none" id="check-indeterminate-small" xmlns="http://www.w3.org/2000/svg"><g id="ancheck_indeterminate_small"><mask id="anmask0_10532_14908" style="mask-type:alpha" maskUnits="userSpaceOnUse" x="0" y="0" width="20" height="20"><rect id="anBounding box" width="20.0001" height="20" fill="currentColor"/></mask><g mask="url(#anmask0_10532_14908)"><path id="ancheck_indeterminate_small_2" d="M5 10.8332V9.1665H15.0001V10.8332H5Z" fill="currentColor"/></g></g></symbol><symbol viewBox="0 0 24 24" fill="none" id="collapse" xmlns="http://www.w3.org/2000/svg"><rect x="3.793" y="5" width="2" height="13" rx="1" fill="currentColor"/><rect x="13.157" y="5.136" width="2" height="9" rx="1" transform="rotate(45 13.157 5.136)" fill="currentColor"/><rect x="14.571" y="16.45" width="2" height="9" rx="1" transform="rotate(135 14.571 16.45)" fill="currentColor"/><rect x="7.207" y="12.5" width="2" height="13" rx="1" transform="rotate(-90 7.207 12.5)" fill="currentColor"/></symbol><symbol viewBox="0 -960 960 960" id="copy" xmlns="http://www.w3.org/2000/svg"><path fill="currentColor" d="M760-200H320q-33 0-56.5-23.5T240-280v-560q0-33 23.5-56.5T320-920h280l240 240v400q0 33-23.5 56.5T760-200ZM560-640v-200H320v560h440v-360H560ZM160-40q-33 0-56.5-23.5T80-120v-560h80v560h440v80H160Zm160-800v200-200 560-560Z"/></symbol><symbol viewBox="0 0 16 16" fill="none" id="create-new-folder" xmlns="http://www.w3.org/2000/svg"><g id="aqcreate_new_folder"><mask id="aqmask0_9087_11240" style="mask-type:alpha" maskUnits="userSpaceOnUse" x="0" y="0" width="16" height="16"><rect id="aqBounding box" width="16" height="16" fill="currentColor"/></mask><g mask="url(#aqmask0_9087_11240)"><path id="aqcreate_new_folder_2" d="M9.33203 10.6666H10.6654V9.33329H11.9987V7.99996H10.6654V6.66663H9.33203V7.99996H7.9987V9.33329H9.33203V10.6666ZM2.66536 13.3333C2.2987 13.3333 1.98481 13.2027 1.7237 12.9416C1.46259 12.6805 1.33203 12.3666 1.33203 12V3.99996C1.33203 3.63329 1.46259 3.3194 1.7237 3.05829C1.98481 2.79718 2.2987 2.66663 2.66536 2.66663H6.66536L7.9987 3.99996H13.332C13.6987 3.99996 14.0126 4.13051 14.2737 4.39163C14.5348 4.65274 14.6654 4.96663 14.6654 5.33329V12C14.6654 12.3666 14.5348 12.6805 14.2737 12.9416C14.0126 13.2027 13.6987 13.3333 13.332 13.3333H2.66536ZM2.66536 12H13.332V5.33329H7.4487L6.11536 3.99996H2.66536V12Z" fill="currentColor"/></g></g></symbol><symbol viewBox="0 0 24 24" fill="none" id="cross" xmlns="http://www.w3.org/2000/svg"><path d="m16.086 7.914-8.172 8.172M16.086 16.086 7.914 7.914" stroke="currentColor" stroke-width="2" stroke-linecap="round" stroke-linejoin="round"/></symbol><symbol viewBox="0 0 24 24" fill="none" id="currency-dollar" xmlns="http://www.w3.org/2000/svg"><path d="M10.75 8.439a2.875 2.875 0 0 0-.709.334c-.454.302-.541.585-.541.727 0 .143.088.425.541.727.22.143.459.256.709.334V8.44zM13.25 13.439v2.122c.25-.078.489-.19.709-.334.454-.302.541-.585.541-.727 0-.143-.086-.424-.541-.727a2.895 2.895 0 0 0-.709-.334z" fill="currentColor"/><path fill-rule="evenodd" clip-rule="evenodd" d="M19.071 19.071A10 10 0 1 1 4.93 4.928 10 10 0 0 1 19.07 19.071zM12.884 4.866c.234.235.366.552.366.884v.115c1.176.221 2.239.755 2.942 1.566a1.25 1.25 0 1 1-1.888 1.638c-.204-.234-.565-.472-1.054-.63v2.426c.747.133 1.46.414 2.095.828.902.6 1.655 1.57 1.655 2.807 0 1.239-.753 2.207-1.655 2.808a5.668 5.668 0 0 1-2.095.827v.115a1.25 1.25 0 0 1-2.5 0v-.115c-1.175-.221-2.239-.755-2.941-1.566a1.25 1.25 0 1 1 1.887-1.638c.204.234.565.472 1.054.63v-2.426a5.667 5.667 0 0 1-2.095-.828C7.753 11.707 7 10.737 7 9.5c0-1.239.753-2.207 1.655-2.808a5.668 5.668 0 0 1 2.095-.827V5.75a1.25 1.25 0 0 1 2.134-.884z" fill="currentColor"/></symbol><symbol viewBox="0 0 24 24" fill="none" id="decision" xmlns="http://www.w3.org/2000/svg"><path fill-rule="evenodd" clip-rule="evenodd" d="M3 12a9 9 0 0 0 9 9 8.966 8.966 0 0 0 6.364-2.636A8.966 8.966 0 0 0 21 12a9 9 0 0 0-9-9 8.966 8.966 0 0 0-6.364 2.636A8.966 8.966 0 0 0 3 12zm16.778 7.778A10.966 10.966 0 0 0 23 12c0-6.075-4.925-11-11-11a10.966 10.966 0 0 0-7.778 3.222A10.966 10.966 0 0 0 1 12c0 6.075 4.925 11 11 11 3.038 0 5.788-1.231 7.778-3.222z" fill="currentColor"/><path fill-rule="evenodd" clip-rule="evenodd" d="m10.461 10.564-3.844 6.407c-.16.268.144.572.412.412l6.407-3.844a.3.3 0 0 0 .103-.103l3.844-6.407c.16-.268-.144-.572-.412-.412l-6.407 3.844a.3.3 0 0 0-.103.103zm2.246 2.143a1 1 0 1 0-1.414-1.414 1 1 0 0 0 1.414 1.414z" fill="currentColor"/></symbol><symbol viewBox="0 0 24 24" fill="none" id="delete" xmlns="http://www.w3.org/2000/svg"><mask id="aumask0_6130_61179" style="mask-type:alpha" maskUnits="userSpaceOnUse" x="0" y="0" width="24" height="24"><rect width="24" height="24" fill="currentColor"/></mask><g mask="url(#aumask0_6130_61179)"><path d="M7 21C6.45 21 5.97917 20.8042 5.5875 20.4125C5.19583 20.0208 5 19.55 5 19V6H4V4H9V3H15V4H20V6H19V19C19 19.55 18.8042 20.0208 18.4125 20.4125C18.0208 20.8042 17.55 21 17 21H7ZM17 6H7V19H17V6ZM9 17H11V8H9V17ZM13 17H15V8H13V17Z" fill="currentColor"/></g></symbol><symbol viewBox="0 -960 960 960" id="download" xmlns="http://www.w3.org/2000/svg"><path d="M480-320 280-520l56-58 104 104v-326h80v326l104-104 56 58-200 200ZM240-160q-33 0-56.5-23.5T160-240v-120h80v120h480v-120h80v120q0 33-23.5 56.5T720-160H240Z" fill="currentColor"/></symbol><symbol viewBox="0 0 24 24" fill="none" id="draft" xmlns="http://www.w3.org/2000/svg"><path fill-rule="evenodd" clip-rule="evenodd" d="M19.707 7.293A1 1 0 0 1 20 8v12a2 2 0 0 1-2 2H6a2 2 0 0 1-2-2V4a2 2 0 0 1 2-2h8a1 1 0 0 1 .707.293l5 5zM18 20V9h-5V4H6v16h12zM15 5.414V7h1.586L15 5.414z" fill="currentColor"/></symbol><symbol viewBox="0 0 24 24" fill="none" id="duplicate" xmlns="http://www.w3.org/2000/svg"><path d="M19 15V5H7a2 2 0 0 1 2-2h10a2 2 0 0 1 2 2v10a2 2 0 0 1-2 2v-2z" fill="currentColor"/><path fill-rule="evenodd" clip-rule="evenodd" d="M5 19h10V9H5v10zm10 2a2 2 0 0 0 2-2V9a2 2 0 0 0-2-2H5a2 2 0 0 0-2 2v10a2 2 0 0 0 2 2h10z" fill="currentColor"/></symbol><symbol viewBox="0 0 24 24" fill="none" id="edit" xmlns="http://www.w3.org/2000/svg"><mask id="aymask0_6130_61189" style="mask-type:alpha" maskUnits="userSpaceOnUse" x="0" y="0" width="24" height="24"><rect width="24" height="24" fill="currentColor"/></mask><g mask="url(#aymask0_6130_61189)"><path d="M5 21C4.45 21 3.97917 20.8041 3.5875 20.4125C3.19583 20.0208 3 19.55 3 19V4.99998C3 4.44998 3.19583 3.97914 3.5875 3.58748C3.97917 3.19581 4.45 2.99998 5 2.99998H13.925L11.925 4.99998H5V19H19V12.05L21 10.05V19C21 19.55 20.8042 20.0208 20.4125 20.4125C20.0208 20.8041 19.55 21 19 21H5ZM16.175 3.57498L17.6 4.97498L11 11.575V13H12.4L19.025 6.37498L20.45 7.77498L13.25 15H9V10.75L16.175 3.57498ZM20.45 7.77498L16.175 3.57498L18.675 1.07498C19.075 0.674976 19.5542 0.474976 20.1125 0.474976C20.6708 0.474976 21.1417 0.674976 21.525 1.07498L22.925 2.49998C23.3083 2.88331 23.5 3.34998 23.5 3.89998C23.5 4.44998 23.3083 4.91664 22.925 5.29998L20.45 7.77498Z" fill="currentColor"/></g></symbol><symbol viewBox="0 -960 960 960" id="enum" xmlns="http://www.w3.org/2000/svg"><path d="M120-320v-80h320v80H120Zm0-160v-80h480v80H120Zm0-160v-80h480v80H120Zm534 440L512-342l56-56 86 84 170-170 56 58-226 226Z" fill="currentColor"/></symbol><symbol viewBox="0 0 24 24" fill="none" id="field" xmlns="http://www.w3.org/2000/svg"><mask id="bamask0_7278_5222" style="mask-type:alpha" maskUnits="userSpaceOnUse" x="0" y="0" width="24" height="24"><rect width="24" height="24" fill="currentColor"/></mask><g mask="url(#bamask0_7278_5222)"><path d="M14 20V18H17C17.2833 18 17.5208 17.9042 17.7125 17.7125C17.9042 17.5208 18 17.2833 18 17V15C18 14.3667 18.1833 13.7917 18.55 13.275C18.9167 12.7583 19.4 12.3917 20 12.175V11.825C19.4 11.6083 18.9167 11.2417 18.55 10.725C18.1833 10.2083 18 9.63333 18 9V7C18 6.71667 17.9042 6.47917 17.7125 6.2875C17.5208 6.09583 17.2833 6 17 6H14V4H17C17.8333 4 18.5417 4.29167 19.125 4.875C19.7083 5.45833 20 6.16667 20 7V9C20 9.28333 20.0958 9.52083 20.2875 9.7125C20.4792 9.90417 20.7167 10 21 10H22V14H21C20.7167 14 20.4792 14.0958 20.2875 14.2875C20.0958 14.4792 20 14.7167 20 15V17C20 17.8333 19.7083 18.5417 19.125 19.125C18.5417 19.7083 17.8333 20 17 20H14ZM7 20C6.16667 20 5.45833 19.7083 4.875 19.125C4.29167 18.5417 4 17.8333 4 17V15C4 14.7167 3.90417 14.4792 3.7125 14.2875C3.52083 14.0958 3.28333 14 3 14H2V10H3C3.28333 10 3.52083 9.90417 3.7125 9.7125C3.90417 9.52083 4 9.28333 4 9V7C4 6.16667 4.29167 5.45833 4.875 4.875C5.45833 4.29167 6.16667 4 7 4H10V6H7C6.71667 6 6.47917 6.09583 6.2875 6.2875C6.09583 6.47917 6 6.71667 6 7V9C6 9.63333 5.81667 10.2083 5.45 10.725C5.08333 11.2417 4.6 11.6083 4 11.825V12.175C4.6 12.3917 5.08333 12.7583 5.45 13.275C5.81667 13.7917 6 14.3667 6 15V17C6 17.2833 6.09583 17.5208 6.2875 17.7125C6.47917 17.9042 6.71667 18 7 18H10V20H7Z" fill="currentColor"/></g></symbol><symbol viewBox="0 0 24 24" fill="none" id="filters" xmlns="http://www.w3.org/2000/svg"><path d="M2 6h20v2H2V6zM6 11h12v2H6v-2zM10 16h4v2h-4v-2z" fill="currentColor"/></symbol><symbol viewBox="0 0 24 24" fill="none" id="function" xmlns="http://www.w3.org/2000/svg"><mask id="bcmask0_7278_5224" style="mask-type:alpha" maskUnits="userSpaceOnUse" x="0" y="0" width="24" height="24"><rect width="24" height="24" fill="currentColor"/></mask><g mask="url(#bcmask0_7278_5224)"><path d="M10 18V16H11.55L14.175 13L11.55 10H9.9L8.3 18.6C8.16667 19.35 7.85833 19.9375 7.375 20.3625C6.89167 20.7875 6.275 21 5.525 21C4.775 21 4.16667 20.8 3.7 20.4C3.23333 20 3 19.4667 3 18.8C3 18.2667 3.14167 17.8375 3.425 17.5125C3.70833 17.1875 4.06667 17.025 4.5 17.025C4.91667 17.025 5.27083 17.1667 5.5625 17.45C5.85417 17.7333 6 18.075 6 18.475C6 18.5583 5.99583 18.6333 5.9875 18.7C5.97917 18.7667 5.96667 18.8417 5.95 18.925C6.03333 18.9083 6.10417 18.8625 6.1625 18.7875C6.22083 18.7125 6.26667 18.6083 6.3 18.475L7.85 10H5V8H8.225L8.75 5.15C8.86667 4.51667 9.17917 4 9.6875 3.6C10.1958 3.2 10.8 3 11.5 3C12.2333 3 12.8333 3.21667 13.3 3.65C13.7667 4.08333 14 4.625 14 5.275C14 5.775 13.8583 6.1875 13.575 6.5125C13.2917 6.8375 12.9333 7 12.5 7C12.0833 7 11.7292 6.85833 11.4375 6.575C11.1458 6.29167 11 5.94167 11 5.525C11 5.44167 11.0042 5.36667 11.0125 5.3C11.0208 5.23333 11.0333 5.15833 11.05 5.075C10.95 5.10833 10.875 5.15833 10.825 5.225C10.775 5.29167 10.7333 5.39167 10.7 5.525L10.275 8H15V10H14.2L15.5 11.475L16.8 10H16V8H21V10H19.45L16.825 13L19.45 16H21V18H16V16H16.8L15.5 14.5L14.2 16H15V18H10Z" fill="currentColor"/></g></symbol><symbol viewBox="0 -960 960 960" fill="none" id="harddrive" xmlns="http://www.w3.org/2000/svg"><path fill-rule="evenodd" clip-rule="evenodd" fill="currentColor" d="M560-200q17 0 28.5-11.5T600-240q0-17-11.5-28.5T560-280q-17 0-28.5 11.5T520-240q0 17 11.5 28.5T560-200Zm120 0q17 0 28.5-11.5T720-240q0-17-11.5-28.5T680-280q-17 0-28.5 11.5T640-240q0 17 11.5 28.5T680-200ZM120-440v-360q0-33 23.5-56.5T200-880h560q33 0 56.5 23.5T840-800v360h-80v-360H200v360h-80Zm80 80v200h560v-200H200Zm0 280q-33 0-56.5-23.5T120-160v-280h720v280q0 33-23.5 56.5T760-80H200Zm0-360h560-560Zm0 80h560-560Z"/></symbol><symbol viewBox="0 0 24 24" fill="none" id="help" xmlns="http://www.w3.org/2000/svg"><path d="M11.95 18c.35 0 .646-.121.888-.363.241-.241.362-.537.362-.887s-.12-.646-.362-.887a1.208 1.208 0 0 0-.888-.363c-.35 0-.646.121-.888.363a1.206 1.206 0 0 0-.362.887c0 .35.12.646.362.887.242.242.538.363.888.363zm-.9-3.85h1.85c0-.55.063-.983.188-1.3.125-.317.479-.75 1.062-1.3a7.483 7.483 0 0 0 1.025-1.238c.25-.391.375-.862.375-1.412 0-.933-.342-1.65-1.025-2.15-.683-.5-1.492-.75-2.425-.75-.95 0-1.72.25-2.312.75-.592.5-1.005 1.1-1.238 1.8l1.65.65c.083-.3.271-.625.563-.975.291-.35.737-.525 1.337-.525.533 0 .933.146 1.2.437.267.292.4.613.4.963 0 .333-.1.646-.3.937-.2.292-.45.563-.75.813-.733.65-1.183 1.142-1.35 1.475-.167.333-.25.942-.25 1.825zM12 22a9.733 9.733 0 0 1-3.9-.788 10.092 10.092 0 0 1-3.175-2.137c-.9-.9-1.612-1.958-2.137-3.175A9.733 9.733 0 0 1 2 12c0-1.383.263-2.683.788-3.9a10.092 10.092 0 0 1 2.137-3.175c.9-.9 1.958-1.613 3.175-2.138A9.743 9.743 0 0 1 12 2c1.383 0 2.683.262 3.9.787a10.105 10.105 0 0 1 3.175 2.138c.9.9 1.612 1.958 2.137 3.175A9.733 9.733 0 0 1 22 12a9.733 9.733 0 0 1-.788 3.9 10.092 10.092 0 0 1-2.137 3.175c-.9.9-1.958 1.612-3.175 2.137A9.733 9.733 0 0 1 12 22zm0-2c2.233 0 4.125-.775 5.675-2.325C19.225 16.125 20 14.233 20 12c0-2.233-.775-4.125-2.325-5.675C16.125 4.775 14.233 4 12 4c-2.233 0-4.125.775-5.675 2.325C4.775 7.875 4 9.767 4 12c0 2.233.775 4.125 2.325 5.675C7.875 19.225 9.767 20 12 20z" fill="currentColor"/></symbol><symbol viewBox="0 0 24 24" fill="none" id="helpcenter" xmlns="http://www.w3.org/2000/svg"><path fill-rule="evenodd" clip-rule="evenodd" d="M12 21a9 9 0 1 0 0-18 9 9 0 0 0 0 18zm0 2c6.075 0 11-4.925 11-11S18.075 1 12 1 1 5.925 1 12s4.925 11 11 11z" fill="currentColor"/><path fill-rule="evenodd" clip-rule="evenodd" d="M12.035 7.498c-1.258 0-2.347.987-2.347 2.3h-2c0-2.512 2.081-4.3 4.347-4.3a4.26 4.26 0 0 1 4.274 4.3c0 1.086-.478 1.81-1.032 2.378-.215.22-.459.436-.681.632l-.123.11a9.542 9.542 0 0 0-.76.735c-.206.227-.383.553-.51.9-.129.357-.168.635-.168.727h-2c0-.399.11-.917.29-1.41.182-.504.473-1.082.905-1.56.318-.35.637-.642.915-.888l.143-.126c.222-.197.399-.353.556-.515.335-.344.465-.594.465-.982a2.26 2.26 0 0 0-2.274-2.3zm-1 11.002v-2h2v2h-2z" fill="currentColor"/></symbol><symbol viewBox="0 0 24 24" fill="none" id="history" xmlns="http://www.w3.org/2000/svg"><path fill-rule="evenodd" clip-rule="evenodd" d="M11 12.414V5h2v6.586l3.707 3.707-1.414 1.414L11 12.414zM12 21a9 9 0 1 0 0-18 9 9 0 0 0 0 18zm0 2c6.075 0 11-4.925 11-11S18.075 1 12 1 1 5.925 1 12s4.925 11 11 11z" fill="currentColor"/></symbol><symbol viewBox="0 0 24 24" fill="none" id="home" xmlns="http://www.w3.org/2000/svg"><path fill-rule="evenodd" clip-rule="evenodd" d="M18 10.828V20h-3v-7H9v7H6v-9.172l6-6 6 6zM12 2l10 10h-2v10h-7v-7h-2v7H4V12H2L12 2z" fill="currentColor"/></symbol><symbol viewBox="0 0 20 20" fill="none" id="inbox" xmlns="http://www.w3.org/2000/svg"><mask id="bimask0_9556_31444" style="mask-type:alpha" maskUnits="userSpaceOnUse" x="0" y="0" width="20" height="20"><rect width="20" height="20" fill="currentColor"/></mask><g mask="url(#bimask0_9556_31444)"><path d="M4.16667 17.5C3.70833 17.5 3.31597 17.3368 2.98958 17.0104C2.66319 16.684 2.5 16.2917 2.5 15.8333V4.16667C2.5 3.70833 2.66319 3.31597 2.98958 2.98958C3.31597 2.66319 3.70833 2.5 4.16667 2.5H15.8333C16.2917 2.5 16.684 2.66319 17.0104 2.98958C17.3368 3.31597 17.5 3.70833 17.5 4.16667V15.8333C17.5 16.2917 17.3368 16.684 17.0104 17.0104C16.684 17.3368 16.2917 17.5 15.8333 17.5H4.16667ZM10 13.3333C10.5278 13.3333 11.0069 13.1806 11.4375 12.875C11.8681 12.5694 12.1667 12.1667 12.3333 11.6667H15.8333V4.16667H4.16667V11.6667H7.66667C7.83333 12.1667 8.13194 12.5694 8.5625 12.875C8.99306 13.1806 9.47222 13.3333 10 13.3333Z" fill="currentColor"/></g></symbol><symbol viewBox="0 0 24 24" fill="none" id="lightbulb" xmlns="http://www.w3.org/2000/svg"><mask id="bj0lvk9xxnya" style="mask-type:alpha" maskUnits="userSpaceOnUse" x="0" y="0" width="24" height="24"><path fill="currentColor" d="M0 0h24v24H0z"/></mask><g mask="url(#bj0lvk9xxnya)"><path d="M12 22c-.55 0-1.02-.196-1.412-.587A1.927 1.927 0 0 1 10 20h4c0 .55-.196 1.021-.587 1.413A1.928 1.928 0 0 1 12 22zm-4-3v-2h8v2H8zm.25-3a7.658 7.658 0 0 1-2.737-2.75A7.275 7.275 0 0 1 4.5 9.5c0-2.083.73-3.854 2.188-5.312C8.146 2.729 9.917 2 12 2s3.854.73 5.312 2.188C18.771 5.646 19.5 7.417 19.5 9.5c0 1.35-.337 2.6-1.012 3.75A7.666 7.666 0 0 1 15.75 16h-7.5zm.6-2h6.3a5.554 5.554 0 0 0 1.738-1.975A5.386 5.386 0 0 0 17.5 9.5c0-1.533-.533-2.833-1.6-3.9C14.833 4.533 13.533 4 12 4s-2.833.533-3.9 1.6C7.033 6.667 6.5 7.967 6.5 9.5c0 .9.204 1.742.613 2.525A5.544 5.544 0 0 0 8.85 14z" fill="currentColor"/></g></symbol><symbol viewBox="0 0 24 24" fill="none" id="list" xmlns="http://www.w3.org/2000/svg"><mask id="bkmask0_7278_5223" style="mask-type:alpha" maskUnits="userSpaceOnUse" x="0" y="0" width="24" height="24"><rect width="24" height="24" fill="currentColor"/></mask><g mask="url(#bkmask0_7278_5223)"><path d="M7 9V7H21V9H7ZM7 13V11H21V13H7ZM7 17V15H21V17H7ZM4 9C3.71667 9 3.47917 8.90417 3.2875 8.7125C3.09583 8.52083 3 8.28333 3 8C3 7.71667 3.09583 7.47917 3.2875 7.2875C3.47917 7.09583 3.71667 7 4 7C4.28333 7 4.52083 7.09583 4.7125 7.2875C4.90417 7.47917 5 7.71667 5 8C5 8.28333 4.90417 8.52083 4.7125 8.7125C4.52083 8.90417 4.28333 9 4 9ZM4 13C3.71667 13 3.47917 12.9042 3.2875 12.7125C3.09583 12.5208 3 12.2833 3 12C3 11.7167 3.09583 11.4792 3.2875 11.2875C3.47917 11.0958 3.71667 11 4 11C4.28333 11 4.52083 11.0958 4.7125 11.2875C4.90417 11.4792 5 11.7167 5 12C5 12.2833 4.90417 12.5208 4.7125 12.7125C4.52083 12.9042 4.28333 13 4 13ZM4 17C3.71667 17 3.47917 16.9042 3.2875 16.7125C3.09583 16.5208 3 16.2833 3 16C3 15.7167 3.09583 15.4792 3.2875 15.2875C3.47917 15.0958 3.71667 15 4 15C4.28333 15 4.52083 15.0958 4.7125 15.2875C4.90417 15.4792 5 15.7167 5 16C5 16.2833 4.90417 16.5208 4.7125 16.7125C4.52083 16.9042 4.28333 17 4 17Z" fill="currentColor"/></g></symbol><symbol viewBox="0 0 24 24" fill="none" id="lists" xmlns="http://www.w3.org/2000/svg"><path fill-rule="evenodd" clip-rule="evenodd" d="M6.5 9h-.52a1 1 0 1 1 0-2h.52a1 1 0 0 1 0 2zM9 8a1 1 0 0 1 1-1h8a1 1 0 1 1 0 2h-8a1 1 0 0 1-1-1zm-4.02 4a1 1 0 0 1 1-1h.52a1 1 0 1 1 0 2h-.52a1 1 0 0 1-1-1zM9 12a1 1 0 0 1 1-1h8a1 1 0 1 1 0 2h-8a1 1 0 0 1-1-1zm-4.02 4a1 1 0 0 1 1-1h.52a1 1 0 1 1 0 2h-.52a1 1 0 0 1-1-1zM9 16a1 1 0 0 1 1-1h8a1 1 0 1 1 0 2h-8a1 1 0 0 1-1-1z" fill="currentColor"/><path fill-rule="evenodd" clip-rule="evenodd" d="M21 3H3v18h18V3zM3 1a2 2 0 0 0-2 2v18a2 2 0 0 0 2 2h18a2 2 0 0 0 2-2V3a2 2 0 0 0-2-2H3z" fill="currentColor"/></symbol><symbol viewBox="0 0 24 24" fill="none" id="logout" xmlns="http://www.w3.org/2000/svg"><path d="M5 21c-.55 0-1.021-.196-1.413-.587A1.928 1.928 0 0 1 3 19V5c0-.55.196-1.021.587-1.413A1.928 1.928 0 0 1 5 3h7v2H5v14h7v2H5zm11-4-1.375-1.45 2.55-2.55H9v-2h8.175l-2.55-2.55L16 7l5 5-5 5z" fill="currentColor"/></symbol><symbol viewBox="0 0 24 24" fill="none" id="mail" xmlns="http://www.w3.org/2000/svg"><path fill-rule="evenodd" clip-rule="evenodd" d="M2 6.364c0-1.005.814-1.819 1.818-1.819h16.364c1.004 0 1.818.814 1.818 1.819v10.909a1.818 1.818 0 0 1-1.818 1.818H3.818A1.818 1.818 0 0 1 2 17.273V6.363zm18.182 0H3.818v10.909h16.364V6.363z" fill="currentColor"/><path fill-rule="evenodd" clip-rule="evenodd" d="m2.441 7.143.936-1.559L12 10.758l8.623-5.174.936 1.56L12 12.877 2.441 7.143z" fill="currentColor"/></symbol><symbol viewBox="0 0 16 16" fill="none" id="manage-search" xmlns="http://www.w3.org/2000/svg"><g id="bomanage_search"><mask id="bomask0_9087_11216" style="mask-type:alpha" maskUnits="userSpaceOnUse" x="0" y="0" width="16" height="16"><rect id="boBounding box" width="16" height="16" fill="currentColor"/></mask><g mask="url(#bomask0_9087_11216)"><path id="bomanage_search_2" d="M1.33203 12.6667V11.3333H7.9987V12.6667H1.33203ZM1.33203 9.33333V8H4.66536V9.33333H1.33203ZM1.33203 6V4.66667H4.66536V6H1.33203ZM13.732 12.6667L11.1654 10.1C10.8987 10.2889 10.607 10.4306 10.2904 10.525C9.9737 10.6194 9.65425 10.6667 9.33203 10.6667C8.40981 10.6667 7.6237 10.3417 6.9737 9.69167C6.3237 9.04167 5.9987 8.25556 5.9987 7.33333C5.9987 6.41111 6.3237 5.625 6.9737 4.975C7.6237 4.325 8.40981 4 9.33203 4C10.2543 4 11.0404 4.325 11.6904 4.975C12.3404 5.625 12.6654 6.41111 12.6654 7.33333C12.6654 7.65556 12.6181 7.975 12.5237 8.29167C12.4293 8.60833 12.2876 8.9 12.0987 9.16667L14.6654 11.7333L13.732 12.6667ZM9.33203 9.33333C9.88759 9.33333 10.3598 9.13889 10.7487 8.75C11.1376 8.36111 11.332 7.88889 11.332 7.33333C11.332 6.77778 11.1376 6.30556 10.7487 5.91667C10.3598 5.52778 9.88759 5.33333 9.33203 5.33333C8.77648 5.33333 8.30425 5.52778 7.91536 5.91667C7.52648 6.30556 7.33203 6.77778 7.33203 7.33333C7.33203 7.88889 7.52648 8.36111 7.91536 8.75C8.30425 9.13889 8.77648 9.33333 9.33203 9.33333Z" fill="currentColor"/></g></g></symbol><symbol viewBox="0 0 24 24" fill="none" id="minus" xmlns="http://www.w3.org/2000/svg"><path d="M17 11a1 1 0 1 1 0 2H7a1 1 0 1 1 0-2h10z" fill="currentColor"/></symbol><symbol viewBox="0 0 20 20" fill="none" id="new-inbox" xmlns="http://www.w3.org/2000/svg"><mask id="bqmask0_9556_31460" style="mask-type:alpha" maskUnits="userSpaceOnUse" x="0" y="0" width="20" height="20"><rect width="20" height="20" fill="currentColor"/></mask><g mask="url(#bqmask0_9556_31460)"><path d="M4.16667 16.6669C3.70833 16.6669 3.31597 16.5037 2.98958 16.1773C2.66319 15.8509 2.5 15.4585 2.5 15.0002V3.33354C2.5 2.8752 2.66319 2.48284 2.98958 2.15645C3.31597 1.83006 3.70833 1.66687 4.16667 1.66687H15.8333C16.2917 1.66687 16.684 1.83006 17.0104 2.15645C17.3368 2.48284 17.5 2.8752 17.5 3.33354V8.04187C17.2361 7.91687 16.9653 7.81618 16.6875 7.73979C16.4097 7.6634 16.125 7.60437 15.8333 7.5627V3.33354H4.16667V10.8335H7.66667C7.79167 11.2085 8 11.5349 8.29167 11.8127C8.58333 12.0905 8.90972 12.2849 9.27083 12.396C9.22917 12.6738 9.20139 12.9551 9.1875 13.2398C9.17361 13.5245 9.1875 13.8058 9.22917 14.0835C8.72917 13.9863 8.26042 13.8023 7.82292 13.5315C7.38542 13.2606 7 12.9169 6.66667 12.5002H4.16667V15.0002H9.4375C9.53472 15.3058 9.64583 15.5974 9.77083 15.8752C9.89583 16.153 10.0486 16.4169 10.2292 16.6669H4.16667Z" fill="currentColor"/><rect x="14.1797" y="9.15625" width="1.66406" height="8.34375" fill="currentColor"/><rect x="19.1836" y="12.4961" width="1.66406" height="8.34375" transform="rotate(90 19.1836 12.4961)" fill="currentColor"/></g></symbol><symbol viewBox="0 0 24 24" fill="none" id="number" xmlns="http://www.w3.org/2000/svg"><mask id="brmask0_7278_5225" style="mask-type:alpha" maskUnits="userSpaceOnUse" x="0" y="0" width="24" height="24"><rect width="24" height="24" fill="currentColor"/></mask><g mask="url(#brmask0_7278_5225)"><path d="M6 20L7 16H3L3.5 14H7.5L8.5 10H4.5L5 8H9L10 4H12L11 8H15L16 4H18L17 8H21L20.5 10H16.5L15.5 14H19.5L19 16H15L14 20H12L13 16H9L8 20H6ZM9.5 14H13.5L14.5 10H10.5L9.5 14Z" fill="currentColor"/></g></symbol><symbol viewBox="0 0 24 24" fill="none" id="play" xmlns="http://www.w3.org/2000/svg"><path fill-rule="evenodd" clip-rule="evenodd" d="M18.236 11.175 7.382 4.179C6.738 3.833 6 3.87 6 5.114v13.774c0 1.138.791 1.318 1.382.934l10.854-6.995a1.186 1.186 0 0 0 0-1.652z" fill="currentColor"/></symbol><symbol viewBox="0 0 24 24" fill="none" id="plus" xmlns="http://www.w3.org/2000/svg"><path fill-rule="evenodd" clip-rule="evenodd" d="M12 6a1 1 0 0 0-1 1v4H7a1 1 0 1 0 0 2h4v4a1 1 0 1 0 2 0v-4h4a1 1 0 1 0 0-2h-4V7a1 1 0 0 0-1-1z" fill="currentColor"/></symbol><symbol viewBox="0 0 24 24" fill="none" id="pushtolive" xmlns="http://www.w3.org/2000/svg"><path d="M12 2C6.486 2 2 6.486 2 12s4.486 10 10 10 10-4.486 10-10S17.514 2 12 2zm3.595 10.447-5.503 3.324a.519.519 0 0 1-.784-.447V8.676a.518.518 0 0 1 .784-.447l5.503 3.324a.524.524 0 0 1 0 .894z" fill="currentColor"/></symbol><symbol viewBox="0 0 16 17" fill="none" id="restart-alt" xmlns="http://www.w3.org/2000/svg"><g id="bvrestart_alt"><mask id="bvmask0_7281_11369" style="mask-type:alpha" maskUnits="userSpaceOnUse" x="0" y="0" width="16" height="17"><rect id="bvBounding box" y="0.5" width="16" height="16" fill="currentColor"/></mask><g mask="url(#bvmask0_7281_11369)"><path id="bvrestart_alt_2" d="M7.33268 14.4667C5.98824 14.3001 4.87435 13.714 3.99102 12.7084C3.10768 11.7029 2.66602 10.5223 2.66602 9.16675C2.66602 8.43341 2.81046 7.73064 3.09935 7.05841C3.38824 6.38619 3.79935 5.80008 4.33268 5.30008L5.28268 6.25008C4.86046 6.62786 4.54102 7.06675 4.32435 7.56675C4.10768 8.06675 3.99935 8.60008 3.99935 9.16675C3.99935 10.1445 4.31046 11.0084 4.93268 11.7584C5.5549 12.5084 6.3549 12.9667 7.33268 13.1334V14.4667ZM8.66602 14.4667V13.1334C9.63268 12.9556 10.4299 12.4945 11.0577 11.7501C11.6855 11.0056 11.9993 10.1445 11.9993 9.16675C11.9993 8.05564 11.6105 7.11119 10.8327 6.33341C10.0549 5.55564 9.11046 5.16675 7.99935 5.16675H7.94935L8.68268 5.90008L7.74935 6.83341L5.41602 4.50008L7.74935 2.16675L8.68268 3.10008L7.94935 3.83341H7.99935C9.48824 3.83341 10.7493 4.35008 11.7827 5.38341C12.816 6.41675 13.3327 7.67786 13.3327 9.16675C13.3327 10.5112 12.891 11.6862 12.0077 12.6917C11.1243 13.6973 10.0105 14.289 8.66602 14.4667Z" fill="currentColor"/></g></g></symbol><symbol viewBox="0 0 24 24" fill="none" id="rules" xmlns="http://www.w3.org/2000/svg"><path fill-rule="evenodd" clip-rule="evenodd" d="M1 7a2 2 0 0 1 2-2h18a2 2 0 0 1 2 2v10a2 2 0 0 1-2 2H3a2 2 0 0 1-2-2V7zm4 0H3v10h18V7h-2v5h-2V7h-2v5h-2V7h-2v5H9V7H7v5H5V7z" fill="currentColor"/></symbol><symbol viewBox="0 0 24 24" fill="none" id="scenarios" xmlns="http://www.w3.org/2000/svg"><path fill-rule="evenodd" clip-rule="evenodd" d="M2 5v14a2 2 0 0 0 2 2h16a2 2 0 0 0 2-2V3h-3.917l1.819 4H17.14l-1.846-4H13.09l1.846 4H12.14l-1.846-4H8.09l1.846 4h-2.84L4.943 3H4a2 2 0 0 0-2 2zm5.097 4H20v10H4V5.466l1.336 2.482A2 2 0 0 0 7.097 9z" fill="currentColor"/></symbol><symbol fill="none" viewBox="0 -960 960 960" id="schedule" xmlns="http://www.w3.org/2000/svg"><path fill-rule="evenodd" clip-rule="evenodd" fill="currentColor" d="m612-292 56-56-148-148v-184h-80v216l172 172ZM480-80q-83 0-156-31.5T197-197q-54-54-85.5-127T80-480q0-83 31.5-156T197-763q54-54 127-85.5T480-880q83 0 156 31.5T763-763q54 54 85.5 127T880-480q0 83-31.5 156T763-197q-54 54-127 85.5T480-80Zm0-400Zm0 320q133 0 226.5-93.5T800-480q0-133-93.5-226.5T480-800q-133 0-226.5 93.5T160-480q0 133 93.5 226.5T480-160Z"/></symbol><symbol viewBox="0 -960 960 960" id="scheduled-execution" xmlns="http://www.w3.org/2000/svg"><path fill="currentColor" d="M160-200v-440 440-15 15Zm0 80q-33 0-56.5-23.5T80-200v-440q0-33 23.5-56.5T160-720h160v-80q0-33 23.5-56.5T400-880h160q33 0 56.5 23.5T640-800v80h160q33 0 56.5 23.5T880-640v171q-18-13-38-22.5T800-508v-132H160v440h283q3 21 9 41t15 39H160Zm240-600h160v-80H400v80ZM720-40q-83 0-141.5-58.5T520-240q0-83 58.5-141.5T720-440q83 0 141.5 58.5T920-240q0 83-58.5 141.5T720-40Zm20-208v-112h-40v128l86 86 28-28-74-74Z"/></symbol><symbol viewBox="0 0 24 24" fill="none" id="search" xmlns="http://www.w3.org/2000/svg"><path d="M15.5 14h-.79l-.28-.27A6.471 6.471 0 0 0 16 9.5 6.5 6.5 0 1 0 9.5 16c1.61 0 3.09-.59 4.23-1.57l.27.28v.79l5 4.99L20.49 19l-4.99-5zm-6 0C7.01 14 5 11.99 5 9.5S7.01 5 9.5 5 14 7.01 14 9.5 11.99 14 9.5 14z" fill="currentColor"/></symbol><symbol viewBox="0 0 16 16" fill="none" id="send" xmlns="http://www.w3.org/2000/svg"><g id="cbsend"><mask id="cbmask0_9508_83768" style="mask-type:alpha" maskUnits="userSpaceOnUse" x="0" y="0" width="16" height="16"><rect id="cbBounding box" width="16" height="16" fill="currentColor"/></mask><g mask="url(#cbmask0_9508_83768)"><path id="cbsend_2" d="M2 13.3332V2.6665L14.6667 7.99984L2 13.3332ZM3.33333 11.3332L11.2333 7.99984L3.33333 4.6665V6.99984L7.33333 7.99984L3.33333 8.99984V11.3332Z" fill="currentColor"/></g></g></symbol><symbol viewBox="0 0 24 24" fill="none" id="settings" xmlns="http://www.w3.org/2000/svg"><path fill-rule="evenodd" clip-rule="evenodd" d="M9.593 2h4.814l.508 3.115c.572.24 1.107.55 1.595.916l2.947-1.115 2.407 4.168-2.422 1.98a7.512 7.512 0 0 1 0 1.872l2.422 1.98-2.408 4.17-2.942-1.12a7.5 7.5 0 0 1-1.599.919L14.407 22H9.593l-.508-3.115a7.505 7.505 0 0 1-1.595-.916l-2.947 1.115-2.407-4.168 2.422-1.98a7.503 7.503 0 0 1 0-1.872l-2.422-1.98 2.408-4.17 2.942 1.12a7.5 7.5 0 0 1 1.599-.919L9.593 2zm1.7 2-.426 2.611-.58.189A5.5 5.5 0 0 0 8.336 7.92l-.453.403-2.458-.935-.705 1.223 2.026 1.657-.127.596a5.468 5.468 0 0 0 0 2.27l.127.596-2.026 1.657.706 1.224 2.461-.932.453.402c.56.497 1.221.881 1.949 1.118l.58.189.425 2.611h1.414l.426-2.611.58-.189a5.5 5.5 0 0 0 1.952-1.121l.453-.403 2.458.935.706-1.223-2.027-1.657.127-.596a5.467 5.467 0 0 0 0-2.27l-.127-.596 2.027-1.657-.707-1.224-2.461.932-.453-.402A5.5 5.5 0 0 0 13.712 6.8l-.58-.189L12.708 4h-1.414zM12 10a2 2 0 1 0 0 4 2 2 0 0 0 0-4zm-4 2a4 4 0 1 1 8 0 4 4 0 0 1-8 0z" fill="currentColor"/></symbol><symbol viewBox="0 0 24 24" fill="none" id="smallarrow-down" xmlns="http://www.w3.org/2000/svg"><path d="M9.03 9.47a.75.75 0 0 0-1.06 1.06l1.06-1.06zM12 13.5l-.53.53a.75.75 0 0 0 1.06 0L12 13.5zm4.03-2.97a.75.75 0 1 0-1.06-1.06l1.06 1.06zm-8.06 0 3.5 3.5 1.06-1.06-3.5-3.5-1.06 1.06zm4.56 3.5 3.5-3.5-1.06-1.06-3.5 3.5 1.06 1.06z" fill="currentColor"/></symbol><symbol viewBox="0 0 24 24" fill="none" id="smallarrow-left" xmlns="http://www.w3.org/2000/svg"><path d="M13.22 15.78a.75.75 0 1 0 1.06-1.06l-1.06 1.06zm-2.97-4.03-.53-.53a.75.75 0 0 0 0 1.06l.53-.53zm4.03-2.97a.75.75 0 0 0-1.06-1.06l1.06 1.06zm0 5.94-3.5-3.5-1.06 1.06 3.5 3.5 1.06-1.06zm-3.5-2.44 3.5-3.5-1.06-1.06-3.5 3.5 1.06 1.06z" fill="currentColor"/></symbol><symbol viewBox="0 0 24 24" fill="none" id="smallarrow-right" xmlns="http://www.w3.org/2000/svg"><path d="M10.78 7.72a.75.75 0 1 0-1.06 1.06l1.06-1.06zm2.97 4.03.53.53a.75.75 0 0 0 0-1.06l-.53.53zm-4.03 2.97a.75.75 0 1 0 1.06 1.06l-1.06-1.06zm0-5.94 3.5 3.5 1.06-1.06-3.5-3.5-1.06 1.06zm3.5 2.44-3.5 3.5 1.06 1.06 3.5-3.5-1.06-1.06z" fill="currentColor"/></symbol><symbol viewBox="0 0 24 24" fill="none" id="smallarrow-up" xmlns="http://www.w3.org/2000/svg"><path d="M7.97 12.97a.75.75 0 1 0 1.06 1.06l-1.06-1.06zM12 10l.53-.53a.75.75 0 0 0-1.06 0L12 10zm2.97 4.03a.75.75 0 1 0 1.06-1.06l-1.06 1.06zm-5.94 0 3.5-3.5-1.06-1.06-3.5 3.5 1.06 1.06zm2.44-3.5 3.5 3.5 1.06-1.06-3.5-3.5-1.06 1.06z" fill="currentColor"/></symbol><symbol viewBox="0 0 24 24" fill="none" id="stop" xmlns="http://www.w3.org/2000/svg"><mask id="ch2zoud9vhla" style="mask-type:alpha" maskUnits="userSpaceOnUse" x="0" y="0" width="24" height="24"><path fill="currentColor" d="M0 0h24v24H0z"/></mask><g mask="url(#ch2zoud9vhla)"><path d="M8 16h8V8H8v8zm4 6a9.733 9.733 0 0 1-3.9-.788 10.092 10.092 0 0 1-3.175-2.137c-.9-.9-1.612-1.958-2.137-3.175A9.733 9.733 0 0 1 2 12c0-1.383.263-2.683.788-3.9a10.092 10.092 0 0 1 2.137-3.175c.9-.9 1.958-1.613 3.175-2.138A9.743 9.743 0 0 1 12 2c1.383 0 2.683.262 3.9.787a10.105 10.105 0 0 1 3.175 2.138c.9.9 1.612 1.958 2.137 3.175A9.733 9.733 0 0 1 22 12a9.733 9.733 0 0 1-.788 3.9 10.092 10.092 0 0 1-2.137 3.175c-.9.9-1.958 1.612-3.175 2.137A9.733 9.733 0 0 1 12 22z" fill="currentColor"/></g></symbol><symbol viewBox="0 0 24 24" fill="none" id="string" xmlns="http://www.w3.org/2000/svg"><mask id="cimask0_7278_5226" style="mask-type:alpha" maskUnits="userSpaceOnUse" x="0" y="0" width="24" height="24"><rect width="24" height="24" fill="currentColor"/></mask><g mask="url(#cimask0_7278_5226)"><path d="M7 20V7H2V4H15V7H10V20H7ZM16 20V12H13V9H22V12H19V20H16Z" fill="currentColor"/></g></symbol><symbol viewBox="0 0 24 24" fill="none" id="tick" xmlns="http://www.w3.org/2000/svg"><path d="m17.879 7.914-8.172 8.172L6.121 12.5" stroke="currentColor" stroke-width="2" stroke-linecap="round" stroke-linejoin="round"/></symbol><symbol viewBox="0 0 24 24" fill="none" id="tip" xmlns="http://www.w3.org/2000/svg"><mask id="ckmask0_3884_27387" style="mask-type:alpha" maskUnits="userSpaceOnUse" x="0" y="0" width="24" height="24"><rect width="24" height="24" fill="currentColor"/></mask><g mask="url(#ckmask0_3884_27387)"><path d="M11 17H13V11H11V17ZM12 9C12.2833 9 12.5208 8.90417 12.7125 8.7125C12.9042 8.52083 13 8.28333 13 8C13 7.71667 12.9042 7.47917 12.7125 7.2875C12.5208 7.09583 12.2833 7 12 7C11.7167 7 11.4792 7.09583 11.2875 7.2875C11.0958 7.47917 11 7.71667 11 8C11 8.28333 11.0958 8.52083 11.2875 8.7125C11.4792 8.90417 11.7167 9 12 9ZM12 22C10.6167 22 9.31667 21.7375 8.1 21.2125C6.88333 20.6875 5.825 19.975 4.925 19.075C4.025 18.175 3.3125 17.1167 2.7875 15.9C2.2625 14.6833 2 13.3833 2 12C2 10.6167 2.2625 9.31667 2.7875 8.1C3.3125 6.88333 4.025 5.825 4.925 4.925C5.825 4.025 6.88333 3.3125 8.1 2.7875C9.31667 2.2625 10.6167 2 12 2C13.3833 2 14.6833 2.2625 15.9 2.7875C17.1167 3.3125 18.175 4.025 19.075 4.925C19.975 5.825 20.6875 6.88333 21.2125 8.1C21.7375 9.31667 22 10.6167 22 12C22 13.3833 21.7375 14.6833 21.2125 15.9C20.6875 17.1167 19.975 18.175 19.075 19.075C18.175 19.975 17.1167 20.6875 15.9 21.2125C14.6833 21.7375 13.3833 22 12 22ZM12 20C14.2333 20 16.125 19.225 17.675 17.675C19.225 16.125 20 14.2333 20 12C20 9.76667 19.225 7.875 17.675 6.325C16.125 4.775 14.2333 4 12 4C9.76667 4 7.875 4.775 6.325 6.325C4.775 7.875 4 9.76667 4 12C4 14.2333 4.775 16.125 6.325 17.675C7.875 19.225 9.76667 20 12 20Z" fill="currentColor"/></g></symbol><symbol viewBox="0 0 24 24" fill="none" id="trigger" xmlns="http://www.w3.org/2000/svg"><path fill-rule="evenodd" clip-rule="evenodd" d="M12 20a8 8 0 1 0 0-16 8 8 0 0 0 0 16zm0 2c5.523 0 10-4.477 10-10S17.523 2 12 2 2 6.477 2 12s4.477 10 10 10z" fill="currentColor"/><path d="M15 12a3 3 0 1 1-6 0 3 3 0 0 1 6 0z" fill="currentColor"/></symbol><symbol viewBox="0 -960 960 960" id="world" xmlns="http://www.w3.org/2000/svg"><path d="M480-80q-83 0-156-31.5T197-197q-54-54-85.5-127T80-480q0-83 31.5-156T197-763q54-54 127-85.5T480-880q83 0 156 31.5T763-763q54 54 85.5 127T880-480q0 83-31.5 156T763-197q-54 54-127 85.5T480-80Zm-40-82v-78q-33 0-56.5-23.5T360-320v-40L168-552q-3 18-5.5 36t-2.5 36q0 121 79.5 212T440-162Zm276-102q20-22 36-47.5t26.5-53q10.5-27.5 16-56.5t5.5-59q0-98-54.5-179T600-776v16q0 33-23.5 56.5T520-680h-80v80q0 17-11.5 28.5T400-560h-80v80h240q17 0 28.5 11.5T600-440v120h40q26 0 47 15.5t29 40.5Z" fill="currentColor"/></symbol></svg>