<?xml version="1.0" encoding="utf-8"?><svg xmlns="http://www.w3.org/2000/svg" xmlns:xlink="http://www.w3.org/1999/xlink"><symbol viewBox="0 -960 960 960" fill="currentColor" id="add-alert" xmlns="http://www.w3.org/2000/svg"><path d="M440-360h80v-80h80v-80h-80v-80h-80v80h-80v80h80v80ZM160-200v-80h80v-280q0-83 50-147.5T420-792v-28q0-25 17.5-42.5T480-880q25 0 42.5 17.5T540-820v28q80 20 130 84.5T720-560v280h80v80H160Zm320-300Zm0 420q-33 0-56.5-23.5T400-160h160q0 33-23.5 56.5T480-80ZM320-280h320v-280q0-66-47-113t-113-47q-66 0-113 47t-47 113v280Z"/></symbol><symbol viewBox="0 -960 960 960" fill="currentColor" id="alt-route" xmlns="http://www.w3.org/2000/svg"><path d="M440-80v-200q0-56-17-83t-45-53l57-57q12 11 23 23.5t22 26.5q14-19 28.5-33.5T538-485q38-35 69-81t33-161l-63 63-57-56 160-160 160 160-56 56-64-63q-2 143-44 203.5T592-425q-32 29-52 56.5T520-280v200h-80ZM248-633q-4-20-5.5-44t-2.5-50l-64 63-56-56 160-160 160 160-57 56-63-62q0 21 2 39.5t4 34.5l-78 19Zm86 176q-20-21-38.5-49T263-575l77-19q10 27 23 46t28 34l-57 57Z"/></symbol><symbol viewBox="0 -960 960 960" fill="currentColor" id="analytics" xmlns="http://www.w3.org/2000/svg"><path d="M280-280h80v-200h-80v200Zm320 0h80v-400h-80v400Zm-160 0h80v-120h-80v120Zm0-200h80v-80h-80v80ZM200-120q-33 0-56.5-23.5T120-200v-560q0-33 23.5-56.5T200-840h560q33 0 56.5 23.5T840-760v560q0 33-23.5 56.5T760-120H200Zm0-80h560v-560H200v560Zm0-560v560-560Z"/></symbol><symbol viewBox="0 0 24 24" fill="none" id="arrow-2-down" xmlns="http://www.w3.org/2000/svg"><path d="m12 14-4-4h8l-4 4z" fill="currentColor"/></symbol><symbol viewBox="0 0 24 24" fill="none" id="arrow-2-up" xmlns="http://www.w3.org/2000/svg"><path d="m12 10-4 4h8l-4-4z" fill="currentColor"/></symbol><symbol viewBox="0 0 14 14" fill="none" id="arrow-forward" xmlns="http://www.w3.org/2000/svg"><path d="M10.4779 7.83301H0.332031V6.16634H10.4779L5.8112 1.49967L6.9987 0.333008L13.6654 6.99967L6.9987 13.6663L5.8112 12.4997L10.4779 7.83301Z" fill="currentColor"/></symbol><symbol viewBox="0 0 24 24" fill="none" id="arrow-left" xmlns="http://www.w3.org/2000/svg"><path d="M15.207 7.707a1 1 0 0 0-1.414-1.414l1.414 1.414zM9.5 12l-.707-.707a1 1 0 0 0 0 1.414L9.5 12zm4.293 5.707a1 1 0 0 0 1.414-1.414l-1.414 1.414zm0-11.414-5 5 1.414 1.414 5-5-1.414-1.414zm-5 6.414 5 5 1.414-1.414-5-5-1.414 1.414z" fill="currentColor"/></symbol><symbol viewBox="0 0 18 10" fill="none" id="arrow-range" xmlns="http://www.w3.org/2000/svg"><path d="M4.83464 9.16671L0.667969 5.00004L4.83464 0.833374L6.0013 2.00004L3.85547 4.16671H14.1471L12.0013 2.00004L13.168 0.833374L17.3346 5.00004L13.168 9.16671L12.0013 8.00004L14.1471 5.83337H3.85547L6.0013 8.00004L4.83464 9.16671Z" fill="currentColor"/></symbol><symbol viewBox="0 0 24 24" fill="none" id="arrow-right" xmlns="http://www.w3.org/2000/svg"><path d="M10.207 6.293a1 1 0 0 0-1.414 1.414l1.414-1.414zM14.5 12l.707.707a1 1 0 0 0 0-1.414L14.5 12zm-5.707 4.293a1 1 0 1 0 1.414 1.414l-1.414-1.414zm0-8.586 5 5 1.414-1.414-5-5-1.414 1.414zm5 3.586-5 5 1.414 1.414 5-5-1.414-1.414z" fill="currentColor"/></symbol><symbol viewBox="0 0 9 8" fill="none" id="arrow-top-left" xmlns="http://www.w3.org/2000/svg"><path d="M9 6.5L4 6.5L4 1.9125L5.8 3.7125L6.5125 3.0125L3.5 1.31134e-07L0.5 3L1.2125 3.7125L3 1.9125L3 7.5L9 7.5L9 6.5Z" fill="currentColor"/></symbol><symbol fill="none" viewBox="0 0 24 24" stroke-width="1.5" stroke="currentColor" class="akw-6 akh-6" id="arrows-right-left" xmlns="http://www.w3.org/2000/svg"><path stroke-linecap="round" stroke-linejoin="round" d="M7.5 21 3 16.5m0 0L7.5 12M3 16.5h13.5m0-13.5L21 7.5m0 0L16.5 12M21 7.5H7.5"/></symbol><symbol viewBox="0 -960 960 960" fill="currentColor" id="attachment" xmlns="http://www.w3.org/2000/svg"><path d="M330-240q-104 0-177-73T80-490q0-104 73-177t177-73h370q75 0 127.5 52.5T880-560q0 75-52.5 127.5T700-380H350q-46 0-78-32t-32-78q0-46 32-78t78-32h370v80H350q-13 0-21.5 8.5T320-490q0 13 8.5 21.5T350-460h350q42-1 71-29.5t29-70.5q0-42-29-71t-71-29H330q-71-1-120.5 49T160-490q0 70 49.5 119T330-320h390v80H330Z"/></symbol><symbol viewBox="0 0 24 24" fill="none" id="backtest" xmlns="http://www.w3.org/2000/svg"><path fill-rule="evenodd" clip-rule="evenodd" d="M20 4a2 2 0 0 0-2-2H6a2 2 0 0 0-2 2v17a2 2 0 0 0 2 2h12a2 2 0 0 0 2-2V4zm-2 0v17H6V4h12zm-6-.248a.752.752 0 1 0 0-1.504.752.752 0 0 0 0 1.503z" fill="currentColor"/><path fill-rule="evenodd" clip-rule="evenodd" d="M16 2v4H8V2h2.268a2 2 0 0 1 3.464 0H16zm-4 1.752a.752.752 0 1 0 0-1.504.752.752 0 0 0 0 1.503zM16.684 10.729l-6.017 5.64-3.351-3.14 1.368-1.46 1.983 1.86 4.65-4.36 1.367 1.46z" fill="currentColor"/></symbol><symbol viewBox="0 -960 960 960" fill="currentColor" id="boolean" xmlns="http://www.w3.org/2000/svg"><path d="M480-80q-83 0-156-31.5T197-197q-54-54-85.5-127T80-480q0-83 31.5-156T197-763q54-54 127-85.5T480-880q83 0 156 31.5T763-763q54 54 85.5 127T880-480q0 83-31.5 156T763-197q-54 54-127 85.5T480-80ZM294-511l56-57 56 57 43-43-57-56 57-56-43-43-56 57-56-57-43 43 57 56-57 56 43 43Zm186 351q133 0 226.5-93.5T800-480q0-66-25-124t-69-102L254-254q44 44 102 69t124 25Zm82-96-96-96 42-43 54 54 100-99 42 42-142 142Z"/></symbol><symbol viewBox="0 -960 960 960" fill="currentColor" id="calendar-month" xmlns="http://www.w3.org/2000/svg"><path d="M200-80q-33 0-56.5-23.5T120-160v-560q0-33 23.5-56.5T200-800h40v-80h80v80h320v-80h80v80h40q33 0 56.5 23.5T840-720v560q0 33-23.5 56.5T760-80H200Zm0-80h560v-400H200v400Zm0-480h560v-80H200v80Zm0 0v-80 80Zm280 240q-17 0-28.5-11.5T440-440q0-17 11.5-28.5T480-480q17 0 28.5 11.5T520-440q0 17-11.5 28.5T480-400Zm-160 0q-17 0-28.5-11.5T280-440q0-17 11.5-28.5T320-480q17 0 28.5 11.5T360-440q0 17-11.5 28.5T320-400Zm320 0q-17 0-28.5-11.5T600-440q0-17 11.5-28.5T640-480q17 0 28.5 11.5T680-440q0 17-11.5 28.5T640-400ZM480-240q-17 0-28.5-11.5T440-280q0-17 11.5-28.5T480-320q17 0 28.5 11.5T520-280q0 17-11.5 28.5T480-240Zm-160 0q-17 0-28.5-11.5T280-280q0-17 11.5-28.5T320-320q17 0 28.5 11.5T360-280q0 17-11.5 28.5T320-240Zm320 0q-17 0-28.5-11.5T600-280q0-17 11.5-28.5T640-320q17 0 28.5 11.5T680-280q0 17-11.5 28.5T640-240Z"/></symbol><symbol viewBox="0 -960 960 960" fill="currentColor" id="case-manager" xmlns="http://www.w3.org/2000/svg"><path d="M450-420q38 0 64-26t26-64q0-38-26-64t-64-26q-38 0-64 26t-26 64q0 38 26 64t64 26Zm193 160L538-365q-20 13-42.5 19t-45.5 6q-71 0-120.5-49.5T280-510q0-71 49.5-120.5T450-680q71 0 120.5 49.5T620-510q0 23-6.5 45.5T594-422l106 106-57 56ZM200-120q-33 0-56.5-23.5T120-200v-160h80v160h160v80H200Zm400 0v-80h160v-160h80v160q0 33-23.5 56.5T760-120H600ZM120-600v-160q0-33 23.5-56.5T200-840h160v80H200v160h-80Zm640 0v-160H600v-80h160q33 0 56.5 23.5T840-760v160h-80Z"/></symbol><symbol viewBox="0 -960 960 960" fill="currentColor" id="category" xmlns="http://www.w3.org/2000/svg"><path d="m260-520 220-360 220 360H260ZM700-80q-75 0-127.5-52.5T520-260q0-75 52.5-127.5T700-440q75 0 127.5 52.5T880-260q0 75-52.5 127.5T700-80Zm-580-20v-320h320v320H120Zm580-60q42 0 71-29t29-71q0-42-29-71t-71-29q-42 0-71 29t-29 71q0 42 29 71t71 29Zm-500-20h160v-160H200v160Zm202-420h156l-78-126-78 126Zm78 0ZM360-340Zm340 80Z"/></symbol><symbol viewBox="0 -960 960 960" fill="currentColor" id="center-focus" xmlns="http://www.w3.org/2000/svg"><path d="M200-120q-33 0-56.5-23.5T120-200v-160h80v160h160v80H200Zm400 0v-80h160v-160h80v160q0 33-23.5 56.5T760-120H600ZM120-600v-160q0-33 23.5-56.5T200-840h160v80H200v160h-80Zm640 0v-160H600v-80h160q33 0 56.5 23.5T840-760v160h-80ZM480-280q-83 0-141.5-58.5T280-480q0-83 58.5-141.5T480-680q83 0 141.5 58.5T680-480q0 83-58.5 141.5T480-280Zm0-80q50 0 85-35t35-85q0-50-35-85t-85-35q-50 0-85 35t-35 85q0 50 35 85t85 35Zm0-120Z"/></symbol><symbol viewBox="0 -960 960 960" fill="currentColor" id="check-indeterminate-small" xmlns="http://www.w3.org/2000/svg"><path d="M240-440v-80h480v80H240Z"/></symbol><symbol viewBox="0 0 15 15" fill="none" id="commit" xmlns="http://www.w3.org/2000/svg"><path d="M9.94969 7.49989C9.94969 8.85288 8.85288 9.94969 7.49989 9.94969C6.14691 9.94969 5.0501 8.85288 5.0501 7.49989C5.0501 6.14691 6.14691 5.0501 7.49989 5.0501C8.85288 5.0501 9.94969 6.14691 9.94969 7.49989ZM10.8632 8C10.6213 9.64055 9.20764 10.8997 7.49989 10.8997C5.79214 10.8997 4.37847 9.64055 4.13662 8H0.5C0.223858 8 0 7.77614 0 7.5C0 7.22386 0.223858 7 0.5 7H4.13659C4.37835 5.35935 5.79206 4.1001 7.49989 4.1001C9.20772 4.1001 10.6214 5.35935 10.8632 7H14.5C14.7761 7 15 7.22386 15 7.5C15 7.77614 14.7761 8 14.5 8H10.8632Z" fill="currentColor" fill-rule="evenodd" clip-rule="evenodd"/></symbol><symbol viewBox="0 -960 960 960" fill="currentColor" id="copy" xmlns="http://www.w3.org/2000/svg"><path d="M360-240q-33 0-56.5-23.5T280-320v-480q0-33 23.5-56.5T360-880h360q33 0 56.5 23.5T800-800v480q0 33-23.5 56.5T720-240H360Zm0-80h360v-480H360v480ZM200-80q-33 0-56.5-23.5T120-160v-560h80v560h440v80H200Zm160-240v-480 480Z"/></symbol><symbol viewBox="0 -960 960 960" fill="currentColor" id="create-new-folder" xmlns="http://www.w3.org/2000/svg"><path d="M560-320h80v-80h80v-80h-80v-80h-80v80h-80v80h80v80ZM160-160q-33 0-56.5-23.5T80-240v-480q0-33 23.5-56.5T160-800h240l80 80h320q33 0 56.5 23.5T880-640v400q0 33-23.5 56.5T800-160H160Zm0-80h640v-400H447l-80-80H160v480Zm0 0v-480 480Z"/></symbol><symbol viewBox="0 0 24 24" fill="none" id="cross" xmlns="http://www.w3.org/2000/svg"><path d="m16.086 7.914-8.172 8.172M16.086 16.086 7.914 7.914" stroke="currentColor" stroke-width="2" stroke-linecap="round" stroke-linejoin="round"/></symbol><symbol viewBox="0 0 512 512" id="dash" xmlns="http://www.w3.org/2000/svg"><path d="M0 256c0-17.7 14.3-32 32-32l448 0c17.7 0 32 14.3 32 32s-14.3 32-32 32L32 288c-17.7 0-32-14.3-32-32z"/></symbol><symbol viewBox="0 -960 960 960" fill="currentColor" id="decision" xmlns="http://www.w3.org/2000/svg"><path d="m300-300 280-80 80-280-280 80-80 280Zm180-120q-25 0-42.5-17.5T420-480q0-25 17.5-42.5T480-540q25 0 42.5 17.5T540-480q0 25-17.5 42.5T480-420Zm0 340q-83 0-156-31.5T197-197q-54-54-85.5-127T80-480q0-83 31.5-156T197-763q54-54 127-85.5T480-880q83 0 156 31.5T763-763q54 54 85.5 127T880-480q0 83-31.5 156T763-197q-54 54-127 85.5T480-80Zm0-80q133 0 226.5-93.5T800-480q0-133-93.5-226.5T480-800q-133 0-226.5 93.5T160-480q0 133 93.5 226.5T480-160Zm0-320Z"/></symbol><symbol viewBox="0 -960 960 960" fill="currentColor" id="delete" xmlns="http://www.w3.org/2000/svg"><path d="M280-120q-33 0-56.5-23.5T200-200v-520h-40v-80h200v-40h240v40h200v80h-40v520q0 33-23.5 56.5T680-120H280Zm400-600H280v520h400v-520ZM360-280h80v-360h-80v360Zm160 0h80v-360h-80v360ZM280-720v520-520Z"/></symbol><symbol viewBox="0 -960 960 960" fill="currentColor" id="download" xmlns="http://www.w3.org/2000/svg"><path d="M480-320 280-520l56-58 104 104v-326h80v326l104-104 56 58-200 200ZM240-160q-33 0-56.5-23.5T160-240v-120h80v120h480v-120h80v120q0 33-23.5 56.5T720-160H240Z"/></symbol><symbol viewBox="0 -960 960 960" fill="currentColor" id="draft" xmlns="http://www.w3.org/2000/svg"><path d="M240-80q-33 0-56.5-23.5T160-160v-640q0-33 23.5-56.5T240-880h320l240 240v480q0 33-23.5 56.5T720-80H240Zm280-520v-200H240v640h480v-440H520ZM240-800v200-200 640-640Z"/></symbol><symbol viewBox="0 -960 960 960" fill="currentColor" id="edit" xmlns="http://www.w3.org/2000/svg"><path d="M200-200h57l391-391-57-57-391 391v57Zm-80 80v-170l528-527q12-11 26.5-17t30.5-6q16 0 31 6t26 18l55 56q12 11 17.5 26t5.5 30q0 16-5.5 30.5T817-647L290-120H120Zm640-584-56-56 56 56Zm-141 85-28-29 57 57-29-28Z"/></symbol><symbol viewBox="0 -960 960 960" fill="currentColor" id="edit-square" xmlns="http://www.w3.org/2000/svg"><path d="M200-120q-33 0-56.5-23.5T120-200v-560q0-33 23.5-56.5T200-840h357l-80 80H200v560h560v-278l80-80v358q0 33-23.5 56.5T760-120H200Zm280-360ZM360-360v-170l367-367q12-12 27-18t30-6q16 0 30.5 6t26.5 18l56 57q11 12 17 26.5t6 29.5q0 15-5.5 29.5T897-728L530-360H360Zm481-424-56-56 56 56ZM440-440h56l232-232-28-28-29-28-231 231v57Zm260-260-29-28 29 28 28 28-28-28Z"/></symbol><symbol viewBox="0 -960 960 960" fill="currentColor" id="enum" xmlns="http://www.w3.org/2000/svg"><path d="M120-320v-80h320v80H120Zm0-160v-80h480v80H120Zm0-160v-80h480v80H120Zm534 440L512-342l56-56 86 84 170-170 56 58-226 226Z"/></symbol><symbol viewBox="0 -960 960 960" fill="currentColor" id="field" xmlns="http://www.w3.org/2000/svg"><path d="M560-160v-80h120q17 0 28.5-11.5T720-280v-80q0-38 22-69t58-44v-14q-36-13-58-44t-22-69v-80q0-17-11.5-28.5T680-720H560v-80h120q50 0 85 35t35 85v80q0 17 11.5 28.5T840-560h40v160h-40q-17 0-28.5 11.5T800-360v80q0 50-35 85t-85 35H560Zm-280 0q-50 0-85-35t-35-85v-80q0-17-11.5-28.5T120-400H80v-160h40q17 0 28.5-11.5T160-600v-80q0-50 35-85t85-35h120v80H280q-17 0-28.5 11.5T240-680v80q0 38-22 69t-58 44v14q36 13 58 44t22 69v80q0 17 11.5 28.5T280-240h120v80H280Z"/></symbol><symbol viewBox="0 -960 960 960" fill="currentColor" id="filters" xmlns="http://www.w3.org/2000/svg"><path d="M400-240v-80h160v80H400ZM240-440v-80h480v80H240ZM120-640v-80h720v80H120Z"/></symbol><symbol viewBox="0 -960 960 960" fill="currentColor" id="function" xmlns="http://www.w3.org/2000/svg"><path d="M400-240v-80h62l105-120-105-120h-66l-64 344q-8 45-37 70.5T221-120q-45 0-73-24t-28-64q0-32 17-51.5t43-19.5q25 0 42.5 17t17.5 41q0 5-.5 9t-1.5 9q5-1 8.5-5.5T252-221l62-339H200v-80h129l21-114q7-38 37.5-62t72.5-24q44 0 72 26t28 65q0 30-17 49.5T500-680q-25 0-42.5-17T440-739q0-5 .5-9t1.5-9q-6 2-9 6t-5 12l-17 99h189v80h-32l52 59 52-59h-32v-80h200v80h-62L673-440l105 120h62v80H640v-80h32l-52-60-52 60h32v80H400Z"/></symbol><symbol viewBox="0 -960 960 960" fill="currentColor" id="harddrive" xmlns="http://www.w3.org/2000/svg"><path d="M560-200q17 0 28.5-11.5T600-240q0-17-11.5-28.5T560-280q-17 0-28.5 11.5T520-240q0 17 11.5 28.5T560-200Zm120 0q17 0 28.5-11.5T720-240q0-17-11.5-28.5T680-280q-17 0-28.5 11.5T640-240q0 17 11.5 28.5T680-200ZM120-440v-360q0-33 23.5-56.5T200-880h560q33 0 56.5 23.5T840-800v360h-80v-360H200v360h-80Zm80 80v200h560v-200H200Zm0 280q-33 0-56.5-23.5T120-160v-280h720v280q0 33-23.5 56.5T760-80H200Zm0-360h560-560Zm0 80h560-560Z"/></symbol><symbol viewBox="0 -960 960 960" fill="currentColor" id="helpcenter" xmlns="http://www.w3.org/2000/svg"><path d="M478-240q21 0 35.5-14.5T528-290q0-21-14.5-35.5T478-340q-21 0-35.5 14.5T428-290q0 21 14.5 35.5T478-240Zm-36-154h74q0-33 7.5-52t42.5-52q26-26 41-49.5t15-56.5q0-56-41-86t-97-30q-57 0-92.5 30T342-618l66 26q5-18 22.5-39t53.5-21q32 0 48 17.5t16 38.5q0 20-12 37.5T506-526q-44 39-54 59t-10 73Zm38 314q-83 0-156-31.5T197-197q-54-54-85.5-127T80-480q0-83 31.5-156T197-763q54-54 127-85.5T480-880q83 0 156 31.5T763-763q54 54 85.5 127T880-480q0 83-31.5 156T763-197q-54 54-127 85.5T480-80Zm0-80q134 0 227-93t93-227q0-134-93-227t-227-93q-134 0-227 93t-93 227q0 134 93 227t227 93Zm0-320Z"/></symbol><symbol viewBox="0 -960 960 960" fill="currentColor" id="history" xmlns="http://www.w3.org/2000/svg"><path d="M480-120q-138 0-240.5-91.5T122-440h82q14 104 92.5 172T480-200q117 0 198.5-81.5T760-480q0-117-81.5-198.5T480-760q-69 0-129 32t-101 88h110v80H120v-240h80v94q51-64 124.5-99T480-840q75 0 140.5 28.5t114 77q48.5 48.5 77 114T840-480q0 75-28.5 140.5t-77 114q-48.5 48.5-114 77T480-120Zm112-192L440-464v-216h80v184l128 128-56 56Z"/></symbol><symbol viewBox="0 -960 960 960" fill="currentColor" id="inbox" xmlns="http://www.w3.org/2000/svg"><path d="M200-120q-33 0-56.5-23.5T120-200v-560q0-33 23.5-56.5T200-840h560q33 0 56.5 23.5T840-760v560q0 33-23.5 56.5T760-120H200Zm0-80h560v-120H640q-30 38-71.5 59T480-240q-47 0-88.5-21T320-320H200v120Zm280-120q38 0 69-22t43-58h168v-360H200v360h168q12 36 43 58t69 22ZM200-200h560-560Z"/></symbol><symbol viewBox="0 -960 960 960" fill="currentColor" id="left-panel-close" xmlns="http://www.w3.org/2000/svg"><path d="M660-320v-320L500-480l160 160ZM200-120q-33 0-56.5-23.5T120-200v-560q0-33 23.5-56.5T200-840h560q33 0 56.5 23.5T840-760v560q0 33-23.5 56.5T760-120H200Zm120-80v-560H200v560h120Zm80 0h360v-560H400v560Zm-80 0H200h120Z"/></symbol><symbol viewBox="0 -960 960 960" fill="currentColor" id="left-panel-open" xmlns="http://www.w3.org/2000/svg"><path d="M500-640v320l160-160-160-160ZM200-120q-33 0-56.5-23.5T120-200v-560q0-33 23.5-56.5T200-840h560q33 0 56.5 23.5T840-760v560q0 33-23.5 56.5T760-120H200Zm120-80v-560H200v560h120Zm80 0h360v-560H400v560Zm-80 0H200h120Z"/></symbol><symbol viewBox="0 -960 960 960" fill="currentColor" id="lightbulb" xmlns="http://www.w3.org/2000/svg"><path d="M480-80q-33 0-56.5-23.5T400-160h160q0 33-23.5 56.5T480-80ZM320-200v-80h320v80H320Zm10-120q-69-41-109.5-110T180-580q0-125 87.5-212.5T480-880q125 0 212.5 87.5T780-580q0 81-40.5 150T630-320H330Zm24-80h252q45-32 69.5-79T700-580q0-92-64-156t-156-64q-92 0-156 64t-64 156q0 54 24.5 101t69.5 79Zm126 0Z"/></symbol><symbol viewBox="0 -960 960 960" fill="currentColor" id="linked-services" xmlns="http://www.w3.org/2000/svg"><path d="M760-600q-57 0-99-34t-56-86H354q-11 42-41.5 72.5T240-606v251q52 14 86 56t34 99q0 66-47 113T200-40q-66 0-113-47T40-200q0-57 34-99t86-56v-251q-52-14-86-56t-34-98q0-66 47-113t113-47q56 0 98 34t56 86h251q14-52 56-86t99-34q66 0 113 47t47 113q0 66-47 113t-113 47ZM200-120q33 0 56.5-24t23.5-56q0-33-23.5-56.5T200-280q-32 0-56 23.5T120-200q0 32 24 56t56 24Zm0-560q33 0 56.5-23.5T280-760q0-33-23.5-56.5T200-840q-32 0-56 23.5T120-760q0 33 24 56.5t56 23.5ZM760-40q-66 0-113-47t-47-113q0-66 47-113t113-47q66 0 113 47t47 113q0 66-47 113T760-40Zm0-80q33 0 56.5-24t23.5-56q0-33-23.5-56.5T760-280q-33 0-56.5 23.5T680-200q0 32 23.5 56t56.5 24Zm0-560q33 0 56.5-23.5T840-760q0-33-23.5-56.5T760-840q-33 0-56.5 23.5T680-760q0 33 23.5 56.5T760-680ZM200-200Zm0-560Zm560 560Zm0-560Z"/></symbol><symbol viewBox="0 -960 960 960" fill="currentColor" id="list" xmlns="http://www.w3.org/2000/svg"><path d="M280-600v-80h560v80H280Zm0 160v-80h560v80H280Zm0 160v-80h560v80H280ZM160-600q-17 0-28.5-11.5T120-640q0-17 11.5-28.5T160-680q17 0 28.5 11.5T200-640q0 17-11.5 28.5T160-600Zm0 160q-17 0-28.5-11.5T120-480q0-17 11.5-28.5T160-520q17 0 28.5 11.5T200-480q0 17-11.5 28.5T160-440Zm0 160q-17 0-28.5-11.5T120-320q0-17 11.5-28.5T160-360q17 0 28.5 11.5T200-320q0 17-11.5 28.5T160-280Z"/></symbol><symbol viewBox="0 -960 960 960" fill="currentColor" id="lists" xmlns="http://www.w3.org/2000/svg"><path d="M320-280q17 0 28.5-11.5T360-320q0-17-11.5-28.5T320-360q-17 0-28.5 11.5T280-320q0 17 11.5 28.5T320-280Zm0-160q17 0 28.5-11.5T360-480q0-17-11.5-28.5T320-520q-17 0-28.5 11.5T280-480q0 17 11.5 28.5T320-440Zm0-160q17 0 28.5-11.5T360-640q0-17-11.5-28.5T320-680q-17 0-28.5 11.5T280-640q0 17 11.5 28.5T320-600Zm120 320h240v-80H440v80Zm0-160h240v-80H440v80Zm0-160h240v-80H440v80ZM200-120q-33 0-56.5-23.5T120-200v-560q0-33 23.5-56.5T200-840h560q33 0 56.5 23.5T840-760v560q0 33-23.5 56.5T760-120H200Zm0-80h560v-560H200v560Zm0-560v560-560Z"/></symbol><symbol viewBox="0 0 16 21" fill="none" id="lock" xmlns="http://www.w3.org/2000/svg"><path d="M2 21C1.45 21 0.979167 20.8042 0.5875 20.4125C0.195833 20.0208 0 19.55 0 19V9C0 8.45 0.195833 7.97917 0.5875 7.5875C0.979167 7.19583 1.45 7 2 7H3V5C3 3.61667 3.4875 2.4375 4.4625 1.4625C5.4375 0.4875 6.61667 0 8 0C9.38333 0 10.5625 0.4875 11.5375 1.4625C12.5125 2.4375 13 3.61667 13 5V7H14C14.55 7 15.0208 7.19583 15.4125 7.5875C15.8042 7.97917 16 8.45 16 9V19C16 19.55 15.8042 20.0208 15.4125 20.4125C15.0208 20.8042 14.55 21 14 21H2ZM2 19H14V9H2V19ZM8 16C8.55 16 9.02083 15.8042 9.4125 15.4125C9.80417 15.0208 10 14.55 10 14C10 13.45 9.80417 12.9792 9.4125 12.5875C9.02083 12.1958 8.55 12 8 12C7.45 12 6.97917 12.1958 6.5875 12.5875C6.19583 12.9792 6 13.45 6 14C6 14.55 6.19583 15.0208 6.5875 15.4125C6.97917 15.8042 7.45 16 8 16ZM5 7H11V5C11 4.16667 10.7083 3.45833 10.125 2.875C9.54167 2.29167 8.83333 2 8 2C7.16667 2 6.45833 2.29167 5.875 2.875C5.29167 3.45833 5 4.16667 5 5V7Z" fill="currentColor"/></symbol><symbol viewBox="0 -960 960 960" fill="currentColor" id="logout" xmlns="http://www.w3.org/2000/svg"><path d="M200-120q-33 0-56.5-23.5T120-200v-560q0-33 23.5-56.5T200-840h280v80H200v560h280v80H200Zm440-160-55-58 102-102H360v-80h327L585-622l55-58 200 200-200 200Z"/></symbol><symbol viewBox="0 -960 960 960" fill="currentColor" id="manage-search" xmlns="http://www.w3.org/2000/svg"><path d="M80-200v-80h400v80H80Zm0-200v-80h200v80H80Zm0-200v-80h200v80H80Zm744 400L670-354q-24 17-52.5 25.5T560-320q-83 0-141.5-58.5T360-520q0-83 58.5-141.5T560-720q83 0 141.5 58.5T760-520q0 29-8.5 57.5T726-410l154 154-56 56ZM560-400q50 0 85-35t35-85q0-50-35-85t-85-35q-50 0-85 35t-35 85q0 50 35 85t85 35Z"/></symbol><symbol viewBox="0 -960 960 960" fill="currentColor" id="more-menu" xmlns="http://www.w3.org/2000/svg"><path d="M240-400q-33 0-56.5-23.5T160-480q0-33 23.5-56.5T240-560q33 0 56.5 23.5T320-480q0 33-23.5 56.5T240-400Zm240 0q-33 0-56.5-23.5T400-480q0-33 23.5-56.5T480-560q33 0 56.5 23.5T560-480q0 33-23.5 56.5T480-400Zm240 0q-33 0-56.5-23.5T640-480q0-33 23.5-56.5T720-560q33 0 56.5 23.5T800-480q0 33-23.5 56.5T720-400Z"/></symbol><symbol viewBox="0 0 20 20" fill="none" id="new-inbox" xmlns="http://www.w3.org/2000/svg"><path d="M4.16667 16.6669C3.70833 16.6669 3.31597 16.5037 2.98958 16.1773C2.66319 15.8509 2.5 15.4585 2.5 15.0002V3.33354C2.5 2.8752 2.66319 2.48284 2.98958 2.15645C3.31597 1.83006 3.70833 1.66687 4.16667 1.66687H15.8333C16.2917 1.66687 16.684 1.83006 17.0104 2.15645C17.3368 2.48284 17.5 2.8752 17.5 3.33354V8.04187C17.2361 7.91687 16.9653 7.81618 16.6875 7.73979C16.4097 7.6634 16.125 7.60437 15.8333 7.5627V3.33354H4.16667V10.8335H7.66667C7.79167 11.2085 8 11.5349 8.29167 11.8127C8.58333 12.0905 8.90972 12.2849 9.27083 12.396C9.22917 12.6738 9.20139 12.9551 9.1875 13.2398C9.17361 13.5245 9.1875 13.8058 9.22917 14.0835C8.72917 13.9863 8.26042 13.8023 7.82292 13.5315C7.38542 13.2606 7 12.9169 6.66667 12.5002H4.16667V15.0002H9.4375C9.53472 15.3058 9.64583 15.5974 9.77083 15.8752C9.89583 16.153 10.0486 16.4169 10.2292 16.6669H4.16667Z" fill="currentColor"/><rect x="14.1797" y="9.15625" width="1.66406" height="8.34375" fill="currentColor"/><rect x="19.1836" y="12.4961" width="1.66406" height="8.34375" transform="rotate(90 19.1836 12.4961)" fill="currentColor"/></symbol><symbol viewBox="0 0 16 16" fill="none" id="news" xmlns="http://www.w3.org/2000/svg"><path d="M2.16667 15.5C1.70833 15.5 1.31597 15.3368 0.989583 15.0104C0.663194 14.684 0.5 14.2917 0.5 13.8333V2.16667C0.5 1.70833 0.663194 1.31597 0.989583 0.989583C1.31597 0.663194 1.70833 0.5 2.16667 0.5H11.3333L15.5 4.66667V13.8333C15.5 14.2917 15.3368 14.684 15.0104 15.0104C14.684 15.3368 14.2917 15.5 13.8333 15.5H2.16667ZM2.16667 13.8333H13.8333V5.5H10.5V2.16667H2.16667V13.8333ZM3.83333 12.1667H12.1667V10.5H3.83333V12.1667ZM3.83333 5.5H8V3.83333H3.83333V5.5ZM3.83333 8.83333H12.1667V7.16667H3.83333V8.83333Z" fill="currentColor"/></symbol><symbol viewBox="0 -960 960 960" fill="currentColor" id="notifications" xmlns="http://www.w3.org/2000/svg"><path d="M160-200v-80h80v-280q0-83 50-147.5T420-792v-28q0-25 17.5-42.5T480-880q25 0 42.5 17.5T540-820v28q80 20 130 84.5T720-560v280h80v80H160Zm320-300Zm0 420q-33 0-56.5-23.5T400-160h160q0 33-23.5 56.5T480-80ZM320-280h320v-280q0-66-47-113t-113-47q-66 0-113 47t-47 113v280Z"/></symbol><symbol viewBox="0 -960 960 960" fill="currentColor" id="number" xmlns="http://www.w3.org/2000/svg"><path d="m240-160 40-160H120l20-80h160l40-160H180l20-80h160l40-160h80l-40 160h160l40-160h80l-40 160h160l-20 80H660l-40 160h160l-20 80H600l-40 160h-80l40-160H360l-40 160h-80Zm140-240h160l40-160H420l-40 160Z"/></symbol><symbol viewBox="0 -960 960 960" fill="currentColor" id="paste" xmlns="http://www.w3.org/2000/svg"><path d="M200-120q-33 0-56.5-23.5T120-200v-560q0-33 23.5-56.5T200-840h167q11-35 43-57.5t70-22.5q40 0 71.5 22.5T594-840h166q33 0 56.5 23.5T840-760v560q0 33-23.5 56.5T760-120H200Zm0-80h560v-560h-80v120H280v-120h-80v560Zm280-560q17 0 28.5-11.5T520-800q0-17-11.5-28.5T480-840q-17 0-28.5 11.5T440-800q0 17 11.5 28.5T480-760Z"/></symbol><symbol viewBox="0 0 14 14" fill="none" id="person" xmlns="http://www.w3.org/2000/svg"><path d="M7.00065 7.00004C6.08398 7.00004 5.29926 6.67365 4.64648 6.02087C3.99371 5.3681 3.66732 4.58337 3.66732 3.66671C3.66732 2.75004 3.99371 1.96532 4.64648 1.31254C5.29926 0.659763 6.08398 0.333374 7.00065 0.333374C7.91732 0.333374 8.70204 0.659763 9.35482 1.31254C10.0076 1.96532 10.334 2.75004 10.334 3.66671C10.334 4.58337 10.0076 5.3681 9.35482 6.02087C8.70204 6.67365 7.91732 7.00004 7.00065 7.00004ZM0.333984 13.6667V11.3334C0.333984 10.8612 0.455512 10.4271 0.698568 10.0313C0.941623 9.63546 1.26454 9.33337 1.66732 9.12504C2.52843 8.69448 3.40343 8.37157 4.29232 8.15629C5.18121 7.94101 6.08398 7.83337 7.00065 7.83337C7.91732 7.83337 8.8201 7.94101 9.70898 8.15629C10.5979 8.37157 11.4729 8.69448 12.334 9.12504C12.7368 9.33337 13.0597 9.63546 13.3027 10.0313C13.5458 10.4271 13.6673 10.8612 13.6673 11.3334V13.6667H0.333984ZM2.00065 12H12.0007V11.3334C12.0007 11.1806 11.9625 11.0417 11.8861 10.9167C11.8097 10.7917 11.709 10.6945 11.584 10.625C10.834 10.25 10.077 9.96879 9.31315 9.78129C8.54926 9.59379 7.77843 9.50004 7.00065 9.50004C6.22287 9.50004 5.45204 9.59379 4.68815 9.78129C3.92426 9.96879 3.16732 10.25 2.41732 10.625C2.29232 10.6945 2.19162 10.7917 2.11523 10.9167C2.03885 11.0417 2.00065 11.1806 2.00065 11.3334V12ZM7.00065 5.33337C7.45898 5.33337 7.85135 5.17018 8.17773 4.84379C8.50412 4.5174 8.66732 4.12504 8.66732 3.66671C8.66732 3.20837 8.50412 2.81601 8.17773 2.48962C7.85135 2.16324 7.45898 2.00004 7.00065 2.00004C6.54232 2.00004 6.14996 2.16324 5.82357 2.48962C5.49718 2.81601 5.33398 3.20837 5.33398 3.66671C5.33398 4.12504 5.49718 4.5174 5.82357 4.84379C6.14996 5.17018 6.54232 5.33337 7.00065 5.33337Z" fill="currentColor"/></symbol><symbol viewBox="0 -960 960 960" fill="currentColor" id="play" xmlns="http://www.w3.org/2000/svg"><path d="M320-273v-414q0-17 12-28.5t28-11.5q5 0 10.5 1.5T381-721l326 207q9 6 13.5 15t4.5 19q0 10-4.5 19T707-446L381-239q-5 3-10.5 4.5T360-233q-16 0-28-11.5T320-273Z"/></symbol><symbol viewBox="0 -960 960 960" fill="currentColor" id="plus" xmlns="http://www.w3.org/2000/svg"><path d="M440-440H200v-80h240v-240h80v240h240v80H520v240h-80v-240Z"/></symbol><symbol viewBox="0 -960 960 960" fill="currentColor" id="policy" xmlns="http://www.w3.org/2000/svg"><path d="M480-80q-139-35-229.5-159.5T160-516v-244l320-120 320 120v244q0 63-16.5 122.5T736-280L618-398q11-19 16.5-39.5T640-480q0-66-47-113t-113-47q-66 0-113 47t-47 113q0 66 47 113t113 47q21 0 41.5-5.5T560-342l129 128q-42 49-94.5 84T480-80Zm0-320q-33 0-56.5-23.5T400-480q0-33 23.5-56.5T480-560q33 0 56.5 23.5T560-480q0 33-23.5 56.5T480-400Z"/></symbol><symbol viewBox="0 -960 960 960" fill="currentColor" id="pushtolive" xmlns="http://www.w3.org/2000/svg"><path d="m380-300 280-180-280-180v360ZM480-80q-83 0-156-31.5T197-197q-54-54-85.5-127T80-480q0-83 31.5-156T197-763q54-54 127-85.5T480-880q83 0 156 31.5T763-763q54 54 85.5 127T880-480q0 83-31.5 156T763-197q-54 54-127 85.5T480-80Zm0-80q134 0 227-93t93-227q0-134-93-227t-227-93q-134 0-227 93t-93 227q0 134 93 227t227 93Zm0-320Z"/></symbol><symbol fill="none" viewBox="0 0 24 24" stroke-width="1.5" stroke="currentColor" class="cgw-6 cgh-6" id="queue-list" xmlns="http://www.w3.org/2000/svg"><path stroke-linecap="round" stroke-linejoin="round" d="M3.75 12h16.5m-16.5 3.75h16.5M3.75 19.5h16.5M5.625 4.5h12.75a1.875 1.875 0 0 1 0 3.75H5.625a1.875 1.875 0 0 1 0-3.75Z"/></symbol><symbol viewBox="0 -960 960 960" fill="currentColor" id="restart-alt" xmlns="http://www.w3.org/2000/svg"><path d="M440-122q-121-15-200.5-105.5T160-440q0-66 26-126.5T260-672l57 57q-38 34-57.5 79T240-440q0 88 56 155.5T440-202v80Zm80 0v-80q87-16 143.5-83T720-440q0-100-70-170t-170-70h-3l44 44-56 56-140-140 140-140 56 56-44 44h3q134 0 227 93t93 227q0 121-79.5 211.5T520-122Z"/></symbol><symbol viewBox="0 -960 960 960" fill="currentColor" id="rule-settings" xmlns="http://www.w3.org/2000/svg"><path d="M120-160v-80h110l-16-14q-52-46-73-105t-21-119q0-111 66.5-197.5T360-790v84q-72 26-116 88.5T200-478q0 45 17 87.5t53 78.5l10 10v-98h80v240H120Zm717-360h-81q-5-35-21.5-67T690-648l-10-10v98h-80v-240h240v80H730l16 14q41 42 63 89t28 97ZM680-40l-12-60q-12-5-22.5-10.5T624-124l-58 18-40-68 46-40q-2-14-2-26t2-26l-46-40 40-68 58 18q11-8 21.5-13.5T668-380l12-60h80l12 60q12 5 22.5 11t21.5 15l58-20 40 70-46 40q2 12 2 25t-2 25l46 40-40 68-58-18q-11 8-21.5 13.5T772-100l-12 60h-80Zm40-120q33 0 56.5-23.5T800-240q0-33-23.5-56.5T720-320q-33 0-56.5 23.5T640-240q0 33 23.5 56.5T720-160Z"/></symbol><symbol viewBox="0 -960 960 960" fill="currentColor" id="rules" xmlns="http://www.w3.org/2000/svg"><path d="M160-240q-33 0-56.5-23.5T80-320v-320q0-33 23.5-56.5T160-720h640q33 0 56.5 23.5T880-640v320q0 33-23.5 56.5T800-240H160Zm0-80h640v-320H680v160h-80v-160h-80v160h-80v-160h-80v160h-80v-160H160v320Zm120-160h80-80Zm160 0h80-80Zm160 0h80-80Zm-120 0Z"/></symbol><symbol viewBox="0 -960 960 960" fill="currentColor" id="save" xmlns="http://www.w3.org/2000/svg"><path d="M840-680v480q0 33-23.5 56.5T760-120H200q-33 0-56.5-23.5T120-200v-560q0-33 23.5-56.5T200-840h480l160 160Zm-80 34L646-760H200v560h560v-446ZM480-240q50 0 85-35t35-85q0-50-35-85t-85-35q-50 0-85 35t-35 85q0 50 35 85t85 35ZM240-560h360v-160H240v160Zm-40-86v446-560 114Z"/></symbol><symbol viewBox="0 0 24 24" fill="none" id="scenarios" xmlns="http://www.w3.org/2000/svg"><path fill-rule="evenodd" clip-rule="evenodd" d="M2 5v14a2 2 0 0 0 2 2h16a2 2 0 0 0 2-2V3h-3.917l1.819 4H17.14l-1.846-4H13.09l1.846 4H12.14l-1.846-4H8.09l1.846 4h-2.84L4.943 3H4a2 2 0 0 0-2 2zm5.097 4H20v10H4V5.466l1.336 2.482A2 2 0 0 0 7.097 9z" fill="currentColor"/></symbol><symbol viewBox="0 -960 960 960" fill="currentColor" id="schedule" xmlns="http://www.w3.org/2000/svg"><path d="m612-292 56-56-148-148v-184h-80v216l172 172ZM480-80q-83 0-156-31.5T197-197q-54-54-85.5-127T80-480q0-83 31.5-156T197-763q54-54 127-85.5T480-880q83 0 156 31.5T763-763q54 54 85.5 127T880-480q0 83-31.5 156T763-197q-54 54-127 85.5T480-80Zm0-400Zm0 320q133 0 226.5-93.5T800-480q0-133-93.5-226.5T480-800q-133 0-226.5 93.5T160-480q0 133 93.5 226.5T480-160Z"/></symbol><symbol viewBox="0 -960 960 960" fill="currentColor" id="scheduled-execution" xmlns="http://www.w3.org/2000/svg"><path d="M160-200v-440 440-15 15Zm0 80q-33 0-56.5-23.5T80-200v-440q0-33 23.5-56.5T160-720h160v-80q0-33 23.5-56.5T400-880h160q33 0 56.5 23.5T640-800v80h160q33 0 56.5 23.5T880-640v171q-18-13-38-22.5T800-508v-132H160v440h283q3 21 9 41t15 39H160Zm240-600h160v-80H400v80ZM720-40q-83 0-141.5-58.5T520-240q0-83 58.5-141.5T720-440q83 0 141.5 58.5T920-240q0 83-58.5 141.5T720-40Zm20-208v-112h-40v128l86 86 28-28-74-74Z"/></symbol><symbol viewBox="0 -960 960 960" fill="currentColor" id="search" xmlns="http://www.w3.org/2000/svg"><path d="M784-120 532-372q-30 24-69 38t-83 14q-109 0-184.5-75.5T120-580q0-109 75.5-184.5T380-840q109 0 184.5 75.5T640-580q0 44-14 83t-38 69l252 252-56 56ZM380-400q75 0 127.5-52.5T560-580q0-75-52.5-127.5T380-760q-75 0-127.5 52.5T200-580q0 75 52.5 127.5T380-400Z"/></symbol><symbol viewBox="0 -960 960 960" fill="currentColor" id="send" xmlns="http://www.w3.org/2000/svg"><path d="M120-160v-640l760 320-760 320Zm80-120 474-200-474-200v140l240 60-240 60v140Zm0 0v-400 400Z"/></symbol><symbol viewBox="0 -960 960 960" fill="currentColor" id="settings" xmlns="http://www.w3.org/2000/svg"><path d="m370-80-16-128q-13-5-24.5-12T307-235l-119 50L78-375l103-78q-1-7-1-13.5v-27q0-6.5 1-13.5L78-585l110-190 119 50q11-8 23-15t24-12l16-128h220l16 128q13 5 24.5 12t22.5 15l119-50 110 190-103 78q1 7 1 13.5v27q0 6.5-2 13.5l103 78-110 190-118-50q-11 8-23 15t-24 12L590-80H370Zm70-80h79l14-106q31-8 57.5-23.5T639-327l99 41 39-68-86-65q5-14 7-29.5t2-31.5q0-16-2-31.5t-7-29.5l86-65-39-68-99 42q-22-23-48.5-38.5T533-694l-13-106h-79l-14 106q-31 8-57.5 23.5T321-633l-99-41-39 68 86 64q-5 15-7 30t-2 32q0 16 2 31t7 30l-86 65 39 68 99-42q22 23 48.5 38.5T427-266l13 106Zm42-180q58 0 99-41t41-99q0-58-41-99t-99-41q-59 0-99.5 41T342-480q0 58 40.5 99t99.5 41Zm-2-140Z"/></symbol><symbol viewBox="0 0 24 24" fill="none" id="smallarrow-up" xmlns="http://www.w3.org/2000/svg"><path d="M7.97 12.97a.75.75 0 1 0 1.06 1.06l-1.06-1.06zM12 10l.53-.53a.75.75 0 0 0-1.06 0L12 10zm2.97 4.03a.75.75 0 1 0 1.06-1.06l-1.06 1.06zm-5.94 0 3.5-3.5-1.06-1.06-3.5 3.5 1.06 1.06zm2.44-3.5 3.5 3.5 1.06-1.06-3.5-3.5-1.06 1.06z" fill="currentColor"/></symbol><symbol viewBox="0 -960 960 960" fill="currentColor" id="snooze" xmlns="http://www.w3.org/2000/svg"><path d="M160-200v-80h80v-280q0-83 50-147.5T420-792v-28q0-25 17.5-42.5T480-880q25 0 42.5 17.5T540-820v28q80 20 130 84.5T720-560v280h80v80H160ZM480-80q-33 0-56.5-23.5T400-160h160q0 33-23.5 56.5T480-80ZM370-320h220v-72H480l110-136v-72H370v72h110L370-392v72Z"/></symbol><symbol viewBox="0 -960 960 960" fill="currentColor" id="stop" xmlns="http://www.w3.org/2000/svg"><path d="M320-320h320v-320H320v320ZM480-80q-83 0-156-31.5T197-197q-54-54-85.5-127T80-480q0-83 31.5-156T197-763q54-54 127-85.5T480-880q83 0 156 31.5T763-763q54 54 85.5 127T880-480q0 83-31.5 156T763-197q-54 54-127 85.5T480-80Zm0-80q134 0 227-93t93-227q0-134-93-227t-227-93q-134 0-227 93t-93 227q0 134 93 227t227 93Zm0-320Z"/></symbol><symbol viewBox="0 -960 960 960" fill="currentColor" id="string" xmlns="http://www.w3.org/2000/svg"><path d="M280-160v-520H80v-120h520v120H400v520H280Zm360 0v-320H520v-120h360v120H760v320H640Z"/></symbol><symbol viewBox="0 -960 960 960" fill="currentColor" id="tick" xmlns="http://www.w3.org/2000/svg"><path d="M382-240 154-468l57-57 171 171 367-367 57 57-424 424Z"/></symbol><symbol viewBox="0 -960 960 960" fill="currentColor" id="tip" xmlns="http://www.w3.org/2000/svg"><path d="M440-280h80v-240h-80v240Zm40-320q17 0 28.5-11.5T520-640q0-17-11.5-28.5T480-680q-17 0-28.5 11.5T440-640q0 17 11.5 28.5T480-600Zm0 520q-83 0-156-31.5T197-197q-54-54-85.5-127T80-480q0-83 31.5-156T197-763q54-54 127-85.5T480-880q83 0 156 31.5T763-763q54 54 85.5 127T880-480q0 83-31.5 156T763-197q-54 54-127 85.5T480-80Zm0-80q134 0 227-93t93-227q0-134-93-227t-227-93q-134 0-227 93t-93 227q0 134 93 227t227 93Zm0-320Z"/></symbol><symbol viewBox="0 -960 960 960" id="tree-schema" xmlns="http://www.w3.org/2000/svg"><path d="M604-120v-125H450v-410h-93v130H80v-315h277v125h247v-125h276v315H604v-130h-94v350h94v-130h276v315H604ZM140-780v195-195Zm524 405v195-195Zm0-405v195-195Zm0 195h156v-195H664v195Zm0 405h156v-195H664v195ZM140-585h157v-195H140v195Z" fill="currentColor"/></symbol><symbol viewBox="0 -960 960 960" fill="currentColor" id="trigger" xmlns="http://www.w3.org/2000/svg"><path d="M480-360q50 0 85-35t35-85q0-50-35-85t-85-35q-50 0-85 35t-35 85q0 50 35 85t85 35Zm0 280q-83 0-156-31.5T197-197q-54-54-85.5-127T80-480q0-83 31.5-156T197-763q54-54 127-85.5T480-880q83 0 156 31.5T763-763q54 54 85.5 127T880-480q0 83-31.5 156T763-197q-54 54-127 85.5T480-80Zm0-80q134 0 227-93t93-227q0-134-93-227t-227-93q-134 0-227 93t-93 227q0 134 93 227t227 93Zm0-320Z"/></symbol><symbol viewBox="0 0 24 24" fill="none" id="unlock-right" xmlns="http://www.w3.org/2000/svg"><path d="M6 20H18V10H6V20ZM12 17C12.55 17 13.0208 16.8042 13.4125 16.4125C13.8042 16.0208 14 15.55 14 15C14 14.45 13.8042 13.9792 13.4125 13.5875C13.0208 13.1958 12.55 13 12 13C11.45 13 10.9792 13.1958 10.5875 13.5875C10.1958 13.9792 10 14.45 10 15C10 15.55 10.1958 16.0208 10.5875 16.4125C10.9792 16.8042 11.45 17 12 17ZM6 22C5.45 22 4.97917 21.8042 4.5875 21.4125C4.19583 21.0208 4 20.55 4 20V10C4 9.45 4.19583 8.97917 4.5875 8.5875C4.97917 8.19583 5.45 8 6 8H13V6C13 4.61667 13.4875 3.4375 14.4625 2.4625C15.4375 1.4875 16.6167 1 18 1C19.3833 1 20.5625 1.4875 21.5375 2.4625C22.5125 3.4375 23 4.61667 23 6H21C21 5.16667 20.7083 4.45833 20.125 3.875C19.5417 3.29167 18.8333 3 18 3C17.1667 3 16.4583 3.29167 15.875 3.875C15.2917 4.45833 15 5.16667 15 6V8H18C18.55 8 19.0208 8.19583 19.4125 8.5875C19.8042 8.97917 20 9.45 20 10V20C20 20.55 19.8042 21.0208 19.4125 21.4125C19.0208 21.8042 18.55 22 18 22H6Z" fill="currentColor"/></symbol><symbol viewBox="0 -960 960 960" fill="currentColor" id="upload" xmlns="http://www.w3.org/2000/svg"><path d="M440-320v-326L336-542l-56-58 200-200 200 200-56 58-104-104v326h-80ZM240-160q-33 0-56.5-23.5T160-240v-120h80v120h480v-120h80v120q0 33-23.5 56.5T720-160H240Z"/></symbol><symbol viewBox="0 -960 960 960" fill="currentColor" id="users" xmlns="http://www.w3.org/2000/svg"><path d="M40-160v-112q0-34 17.5-62.5T104-378q62-31 126-46.5T360-440q66 0 130 15.5T616-378q29 15 46.5 43.5T680-272v112H40Zm720 0v-120q0-44-24.5-84.5T666-434q51 6 96 20.5t84 35.5q36 20 55 44.5t19 53.5v120H760ZM360-480q-66 0-113-47t-47-113q0-66 47-113t113-47q66 0 113 47t47 113q0 66-47 113t-113 47Zm400-160q0 66-47 113t-113 47q-11 0-28-2.5t-28-5.5q27-32 41.5-71t14.5-81q0-42-14.5-81T544-792q14-5 28-6.5t28-1.5q66 0 113 47t47 113ZM120-240h480v-32q0-11-5.5-20T580-306q-54-27-109-40.5T360-360q-56 0-111 13.5T140-306q-9 5-14.5 14t-5.5 20v32Zm240-320q33 0 56.5-23.5T440-640q0-33-23.5-56.5T360-720q-33 0-56.5 23.5T280-640q0 33 23.5 56.5T360-560Zm0 320Zm0-400Z"/></symbol><symbol viewBox="0 0 18 18" fill="none" id="version" xmlns="http://www.w3.org/2000/svg"><path d="M5.66602 12.3333H15.666V3.99996H5.66602V12.3333ZM5.66602 14C5.20768 14 4.81532 13.8368 4.48893 13.5104C4.16254 13.184 3.99935 12.7916 3.99935 12.3333V2.33329C3.99935 1.87496 4.16254 1.4826 4.48893 1.15621C4.81532 0.82982 5.20768 0.666626 5.66602 0.666626H15.666C16.1243 0.666626 16.5167 0.82982 16.8431 1.15621C17.1695 1.4826 17.3327 1.87496 17.3327 2.33329V12.3333C17.3327 12.7916 17.1695 13.184 16.8431 13.5104C16.5167 13.8368 16.1243 14 15.666 14H5.66602ZM2.33268 17.3333C1.87435 17.3333 1.48199 17.1701 1.1556 16.8437C0.82921 16.5173 0.666016 16.125 0.666016 15.6666V3.99996H2.33268V15.6666H13.9993V17.3333H2.33268Z" fill="currentColor"/></symbol><symbol viewBox="0 -960 960 960" fill="currentColor" id="visibility" xmlns="http://www.w3.org/2000/svg"><path d="M480-320q75 0 127.5-52.5T660-500q0-75-52.5-127.5T480-680q-75 0-127.5 52.5T300-500q0 75 52.5 127.5T480-320Zm0-72q-45 0-76.5-31.5T372-500q0-45 31.5-76.5T480-608q45 0 76.5 31.5T588-500q0 45-31.5 76.5T480-392Zm0 192q-146 0-266-81.5T40-500q54-137 174-218.5T480-800q146 0 266 81.5T920-500q-54 137-174 218.5T480-200Zm0-300Zm0 220q113 0 207.5-59.5T832-500q-50-101-144.5-160.5T480-720q-113 0-207.5 59.5T128-500q50 101 144.5 160.5T480-280Z"/></symbol><symbol viewBox="0 -960 960 960" fill="currentColor" id="visibility_off" xmlns="http://www.w3.org/2000/svg"><path d="m644-428-58-58q9-47-27-88t-93-32l-58-58q17-8 34.5-12t37.5-4q75 0 127.5 52.5T660-500q0 20-4 37.5T644-428Zm128 126-58-56q38-29 67.5-63.5T832-500q-50-101-143.5-160.5T480-720q-29 0-57 4t-55 12l-62-62q41-17 84-25.5t90-8.5q151 0 269 83.5T920-500q-23 59-60.5 109.5T772-302Zm20 246L624-222q-35 11-70.5 16.5T480-200q-151 0-269-83.5T40-500q21-53 53-98.5t73-81.5L56-792l56-56 736 736-56 56ZM222-624q-29 26-53 57t-41 67q50 101 143.5 160.5T480-280q20 0 39-2.5t39-5.5l-36-38q-11 3-21 4.5t-21 1.5q-75 0-127.5-52.5T300-500q0-11 1.5-21t4.5-21l-84-82Zm319 93Zm-151 75Z"/></symbol><symbol viewBox="0 -960 960 960" fill="currentColor" id="warning" xmlns="http://www.w3.org/2000/svg"><path d="m40-120 440-760 440 760H40Zm138-80h604L480-720 178-200Zm302-40q17 0 28.5-11.5T520-280q0-17-11.5-28.5T480-320q-17 0-28.5 11.5T440-280q0 17 11.5 28.5T480-240Zm-40-120h80v-200h-80v200Zm40-100Z"/></symbol><symbol viewBox="0 -960 960 960" fill="currentColor" id="world" xmlns="http://www.w3.org/2000/svg"><path d="M480-80q-83 0-156-31.5T197-197q-54-54-85.5-127T80-480q0-83 31.5-156T197-763q54-54 127-85.5T480-880q83 0 156 31.5T763-763q54 54 85.5 127T880-480q0 83-31.5 156T763-197q-54 54-127 85.5T480-80Zm-40-82v-78q-33 0-56.5-23.5T360-320v-40L168-552q-3 18-5.5 36t-2.5 36q0 121 79.5 212T440-162Zm276-102q20-22 36-47.5t26.5-53q10.5-27.5 16-56.5t5.5-59q0-98-54.5-179T600-776v16q0 33-23.5 56.5T520-680h-80v80q0 17-11.5 28.5T400-560h-80v80h240q17 0 28.5 11.5T600-440v120h40q26 0 47 15.5t29 40.5Z"/></symbol></svg>