<?xml version="1.0" encoding="UTF-8" standalone="no"?><svg xmlns="http://www.w3.org/2000/svg" xmlns:xlink="http://www.w3.org/1999/xlink"><symbol viewBox="0 0 48 48" class="aaLgbsSe-Bz112c" id="google-logo" xmlns="http://www.w3.org/2000/svg"><path fill="#EA4335" d="M24 9.5c3.54 0 6.71 1.22 9.21 3.6l6.85-6.85C35.9 2.38 30.47 0 24 0 14.62 0 6.51 5.38 2.56 13.22l7.98 6.19C12.43 13.72 17.74 9.5 24 9.5z"/><path fill="#4285F4" d="M46.98 24.55c0-1.57-.15-3.09-.38-4.55H24v9.02h12.94c-.58 2.96-2.26 5.48-4.78 7.18l7.73 6c4.51-4.18 7.09-10.36 7.09-17.65z"/><path fill="#FBBC05" d="M10.53 28.59c-.48-1.45-.76-2.99-.76-4.59s.27-3.14.76-4.59l-7.98-6.19C.92 16.46 0 20.12 0 24c0 3.88.92 7.54 2.56 10.78l7.97-6.19z"/><path fill="#34A853" d="M24 48c6.48 0 11.93-2.13 15.89-5.81l-7.73-6c-2.15 1.45-4.92 2.3-8.16 2.3-6.26 0-11.57-4.22-13.47-9.91l-7.98 6.19C6.51 42.62 14.62 48 24 48z"/><path fill="none" d="M0 0h48v48H0z"/></symbol><symbol fill="none" viewBox="0 0 80 80" id="logo" xmlns="http://www.w3.org/2000/svg"><path d="M71.503 0H8.497A8.497 8.497 0 0 0 0 8.497v63.006A8.497 8.497 0 0 0 8.497 80h63.006A8.497 8.497 0 0 0 80 71.503V8.497A8.497 8.497 0 0 0 71.503 0z" fill="#5A50FA"/><path d="m65.326 31.214-5.155 13.512V29.907l-8.967-2.24-6.726 21.092V25.983l-8.972-2.24-6.727 27.45v-29.13l-8.966-2.245-6.689 20.179 1.695.01 4.994-15.201v35.376l8.966-2.246 6.727-27.473v25.794l8.972-2.246 6.726-21.097v19.418l8.967-2.24 6.705-18.49-1.55-.388z" fill="#fff"/></symbol><symbol fill="none" viewBox="0 0 80 80" id="logo-favicon" xmlns="http://www.w3.org/2000/svg"><path d="M71.503 0H8.497A8.497 8.497 0 0 0 0 8.497v63.006A8.497 8.497 0 0 0 8.497 80h63.006A8.497 8.497 0 0 0 80 71.503V8.497A8.497 8.497 0 0 0 71.503 0z" fill="#5A50FA"/><path d="m64.693 31.434-5.026 13.174V30.16l-8.743-2.184-6.558 20.564V26.334l-8.748-2.185-6.558 26.765V22.512l-8.742-2.19-6.522 19.675 1.653.01 4.868-14.82v34.49l8.743-2.19 6.558-26.785v25.149l8.748-2.19 6.558-20.57v18.933l8.743-2.184 6.537-18.027-1.51-.38z" fill="#fff"/></symbol><symbol fill="none" viewBox="0 0 357 80" id="logo-standard" xmlns="http://www.w3.org/2000/svg"><path d="M71.503 0H8.497A8.497 8.497 0 0 0 0 8.497v63.006A8.497 8.497 0 0 0 8.497 80h63.006A8.497 8.497 0 0 0 80 71.503V8.497A8.497 8.497 0 0 0 71.503 0z" fill="#5A50FA"/><path d="m65.326 31.214-5.155 13.512V29.907l-8.967-2.24-6.726 21.092V25.983l-8.972-2.24-6.727 27.45v-29.13l-8.966-2.245-6.689 20.179 1.695.01 4.994-15.201v35.376l8.966-2.246 6.727-27.473v25.794l8.972-2.246 6.726-21.097v19.418l8.967-2.24 6.705-18.49-1.55-.388z" fill="#fff"/><path d="M120.009 23.957h7.936c4.274 7.49 8.514 15.014 12.754 22.538h.078c4.24-7.524 8.471-15.049 12.745-22.538h7.936v32.077h-6.499V35.388h-.202c-3.862 6.867-7.734 13.779-11.641 20.646h-4.809c-3.906-6.867-7.769-13.779-11.641-20.646h-.166v20.646H120V23.957h.009zm65.801 0h7.402l14.847 32.077h-6.789c-1.358-2.794-2.715-5.597-4.117-8.391h-15.46c-1.358 2.794-2.716 5.597-4.108 8.391h-6.622l14.847-32.077zm8.558 17.764c-1.647-3.416-3.329-6.946-4.853-10.406h-.123a393.502 393.502 0 0 1-4.896 10.406h9.872zm23.186-17.764h14.514c3.662 0 13.201.902 13.201 10.319 0 6.044-4.275 8.838-9.005 9.793v.043c3.25 3.951 6.535 7.937 9.784 11.93h-7.2l-9.373-11.474h-5.509v11.475h-6.412V23.957zM231 39.137c3.451 0 7.568-.867 7.568-4.73 0-3.863-4.196-4.896-7.568-4.896h-7.034v9.626H231zm26.033-15.18h15.548c7.647 0 11.886 3.583 11.886 8.304 0 3.083-2.058 6.254-6.377 7.28v.078c4.652.78 7.735 3.206 7.735 7.647 0 6.666-6.955 8.76-12.876 8.76h-15.916v-32.07zm13.699 13.244c3.618 0 7.034-.823 7.034-3.784 0-2.96-3.617-3.828-7.112-3.828h-7.201v7.612h7.279zm.824 13.2c3.618 0 7.445-.823 7.445-3.95 0-3.127-3.906-3.985-7.445-3.985h-8.103v7.936h8.103zm25.613-26.444h6.411v26.401h17.607v5.676h-24.018V23.957zm33.925 0h24.92v5.632h-18.508v7.2h17.519v5.922h-17.519v7.647h18.999v5.676h-25.42V23.957h.009z" fill="currentColor"/></symbol><symbol fill="none" viewBox="0 0 237 34" id="marble" xmlns="http://www.w3.org/2000/svg"><path d="M.009.957h7.936c4.274 7.49 8.514 15.014 12.754 22.538h.078c4.24-7.524 8.47-15.049 12.745-22.538h7.936v32.077h-6.5V12.388h-.2c-3.863 6.868-7.735 13.779-11.642 20.646h-4.809c-3.906-6.867-7.77-13.778-11.641-20.646H6.5v20.646H0V.957h.009ZM65.81.957h7.401L88.06 33.034H81.27c-1.358-2.794-2.715-5.597-4.117-8.391h-15.46c-1.358 2.794-2.716 5.597-4.108 8.391h-6.623L65.81.957Zm8.558 17.764c-1.647-3.416-3.329-6.946-4.853-10.406h-.123a394.56 394.56 0 0 1-4.896 10.406h9.872ZM97.554.957h14.514c3.662 0 13.201.902 13.201 10.319 0 6.044-4.275 8.838-9.005 9.793v.044c3.25 3.95 6.535 7.936 9.784 11.93h-7.2l-9.373-11.475h-5.509v11.475h-6.412V.957ZM111 16.137c3.451 0 7.568-.867 7.568-4.73 0-3.863-4.196-4.896-7.568-4.896h-7.034v9.626H111ZM137.033.957h15.548c7.647 0 11.886 3.583 11.886 8.304 0 3.083-2.058 6.254-6.377 7.28v.078c4.652.78 7.735 3.206 7.735 7.647 0 6.666-6.955 8.76-12.876 8.76h-15.916V.956Zm13.699 13.244c3.618 0 7.034-.823 7.034-3.784 0-2.96-3.617-3.828-7.112-3.828h-7.201v7.612h7.279Zm.824 13.2c3.618 0 7.445-.823 7.445-3.95 0-3.127-3.906-3.985-7.445-3.985h-8.103v7.936h8.103ZM177.169.957h6.411v26.401h17.607v5.676h-24.018V.957ZM211.094.957h24.92V6.59h-18.508v7.2h17.519v5.922h-17.519v7.647h18.999v5.676h-25.42V.957h.009Z" fill="#080525"/></symbol></svg>