<svg width="1069" height="280" viewBox="0 0 1069 280" fill="none" xmlns="http://www.w3.org/2000/svg">
<path d="M234.772 279.497H44.2007C19.7798 279.497 0 259.717 0 235.296V44.7027C0 20.2818 19.7798 0.501953 44.2007 0.501953H234.794C259.215 0.501953 278.995 20.2818 278.995 44.7027V235.296C278.973 259.717 259.193 279.497 234.772 279.497Z" fill="#1E4ED8"/>
<path d="M71.9219 77.384V202.583C71.9219 204.881 73.7783 206.738 76.0768 206.738H109.736C112.034 206.738 113.89 204.881 113.89 202.583V119.331C113.89 117.032 115.747 115.176 118.045 115.176H203.198C205.496 115.176 207.353 113.319 207.353 111.021V77.3619C207.353 75.0635 205.496 73.207 203.198 73.207H76.0768C73.8004 73.2291 71.9219 75.1077 71.9219 77.384Z" fill="white"/>
<path d="M162.633 206.767H202.436C205.199 206.767 207.431 204.535 207.431 201.772V161.969C207.431 159.207 205.199 156.975 202.436 156.975H162.633C159.871 156.975 157.639 159.207 157.639 161.969V201.772C157.639 204.535 159.871 206.767 162.633 206.767Z" fill="white"/>
<path d="M363.975 198.045V91.3974H379.047C381.68 91.3974 383.516 91.8825 384.556 92.8526C385.595 93.8228 386.288 95.4859 386.635 97.842L388.194 110.731C392.005 104.148 396.475 98.9507 401.603 95.1394C406.731 91.3281 412.482 89.4225 418.858 89.4225C424.124 89.4225 428.49 90.6351 431.955 93.0605L428.628 112.29C428.421 113.538 427.97 114.439 427.277 114.993C426.584 115.478 425.649 115.721 424.471 115.721C423.431 115.721 422.011 115.478 420.209 114.993C418.407 114.508 416.016 114.265 413.037 114.265C407.701 114.265 403.127 115.755 399.316 118.735C395.505 121.645 392.282 125.942 389.649 131.624V198.045H363.975ZM492.909 89.7343C499.63 89.7343 505.798 90.8084 511.411 92.9566C517.093 95.1048 521.979 98.2578 526.067 102.416C530.156 106.504 533.343 111.563 535.63 117.592C537.917 123.551 539.06 130.377 539.06 138.069C539.06 140.009 538.956 141.637 538.748 142.954C538.61 144.201 538.298 145.206 537.813 145.969C537.397 146.661 536.808 147.181 536.046 147.528C535.283 147.805 534.313 147.943 533.135 147.943H467.234C467.996 158.892 470.942 166.931 476.07 172.059C481.197 177.187 487.989 179.751 496.443 179.751C500.601 179.751 504.169 179.266 507.149 178.295C510.198 177.325 512.831 176.251 515.049 175.073C517.336 173.895 519.311 172.821 520.974 171.851C522.706 170.881 524.369 170.396 525.963 170.396C527.003 170.396 527.903 170.603 528.666 171.019C529.428 171.435 530.086 172.024 530.641 172.786L538.125 182.141C535.283 185.468 532.096 188.274 528.562 190.561C525.028 192.778 521.32 194.58 517.44 195.966C513.628 197.283 509.713 198.218 505.694 198.773C501.744 199.327 497.898 199.604 494.156 199.604C486.741 199.604 479.846 198.391 473.471 195.966C467.096 193.471 461.552 189.833 456.84 185.052C452.128 180.201 448.42 174.242 445.718 167.173C443.015 160.036 441.664 151.789 441.664 142.434C441.664 135.158 442.842 128.333 445.198 121.957C447.554 115.513 450.915 109.934 455.281 105.222C459.716 100.441 465.086 96.664 471.392 93.8921C477.767 91.1202 484.939 89.7343 492.909 89.7343ZM493.428 108.133C485.944 108.133 480.089 110.246 475.862 114.473C471.635 118.7 468.932 124.694 467.754 132.456H515.984C515.984 129.129 515.534 126.011 514.633 123.101C513.732 120.121 512.346 117.522 510.475 115.305C508.604 113.087 506.248 111.355 503.407 110.108C500.566 108.791 497.24 108.133 493.428 108.133ZM596.787 89.5264C601.361 89.5264 605.657 90.0115 609.676 90.9816C613.695 91.8825 617.368 93.2338 620.694 95.0355H651.358V104.598C651.358 106.192 650.942 107.44 650.111 108.34C649.279 109.241 647.859 109.865 645.849 110.211L636.286 111.979C636.979 113.78 637.499 115.686 637.845 117.695C638.261 119.705 638.469 121.819 638.469 124.036C638.469 129.303 637.395 134.084 635.247 138.381C633.168 142.608 630.257 146.211 626.515 149.191C622.842 152.171 618.442 154.492 613.314 156.155C608.256 157.749 602.746 158.546 596.787 158.546C592.768 158.546 588.852 158.165 585.041 157.402C581.715 159.412 580.052 161.664 580.052 164.159C580.052 166.307 581.022 167.901 582.962 168.94C584.972 169.91 587.57 170.603 590.758 171.019C594.015 171.435 597.688 171.712 601.776 171.851C605.865 171.92 610.057 172.128 614.354 172.474C618.65 172.821 622.842 173.445 626.931 174.345C631.019 175.177 634.658 176.528 637.845 178.399C641.102 180.27 643.701 182.834 645.641 186.091C647.651 189.279 648.655 193.402 648.655 198.461C648.655 203.173 647.477 207.746 645.121 212.181C642.835 216.616 639.474 220.566 635.039 224.031C630.673 227.496 625.303 230.268 618.927 232.347C612.552 234.495 605.276 235.569 597.099 235.569C588.991 235.569 581.957 234.772 575.998 233.178C570.038 231.654 565.084 229.575 561.134 226.942C557.253 224.378 554.343 221.398 552.402 218.002C550.462 214.607 549.492 211.073 549.492 207.4C549.492 202.411 551.017 198.218 554.066 194.823C557.115 191.427 561.342 188.725 566.747 186.715C564.114 185.26 562 183.319 560.406 180.894C558.812 178.469 558.015 175.316 558.015 171.435C558.015 169.841 558.293 168.213 558.847 166.55C559.401 164.817 560.233 163.119 561.342 161.456C562.52 159.793 563.975 158.234 565.707 156.779C567.44 155.254 569.484 153.903 571.84 152.725C566.435 149.814 562.173 145.934 559.055 141.083C556.006 136.232 554.481 130.55 554.481 124.036C554.481 118.77 555.521 114.023 557.6 109.796C559.748 105.499 562.693 101.861 566.435 98.8814C570.246 95.8324 574.716 93.511 579.844 91.9171C585.041 90.3233 590.689 89.5264 596.787 89.5264ZM624.956 202.826C624.956 200.747 624.332 199.05 623.085 197.733C621.838 196.416 620.14 195.412 617.992 194.719C615.844 193.956 613.314 193.402 610.404 193.056C607.563 192.709 604.514 192.467 601.257 192.328C598.069 192.12 594.743 191.947 591.278 191.808C587.882 191.6 584.591 191.289 581.403 190.873C578.493 192.467 576.137 194.372 574.335 196.59C572.602 198.738 571.736 201.233 571.736 204.074C571.736 205.945 572.187 207.677 573.087 209.271C574.058 210.934 575.548 212.355 577.557 213.533C579.636 214.711 582.304 215.612 585.561 216.235C588.818 216.928 592.802 217.275 597.515 217.275C602.296 217.275 606.419 216.894 609.884 216.131C613.349 215.438 616.19 214.434 618.407 213.117C620.694 211.87 622.357 210.345 623.397 208.543C624.436 206.811 624.956 204.905 624.956 202.826ZM596.787 142.123C599.975 142.123 602.746 141.707 605.103 140.875C607.459 139.974 609.399 138.762 610.923 137.237C612.517 135.713 613.695 133.876 614.458 131.728C615.289 129.58 615.705 127.224 615.705 124.66C615.705 119.393 614.111 115.235 610.923 112.186C607.805 109.068 603.093 107.509 596.787 107.509C590.481 107.509 585.734 109.068 582.546 112.186C579.428 115.235 577.869 119.393 577.869 124.66C577.869 127.154 578.25 129.476 579.012 131.624C579.844 133.772 581.022 135.643 582.546 137.237C584.14 138.762 586.115 139.974 588.471 140.875C590.897 141.707 593.669 142.123 596.787 142.123ZM690.977 91.3974V159.17C690.977 165.683 692.467 170.742 695.447 174.345C698.496 177.88 703.035 179.647 709.064 179.647C713.499 179.647 717.657 178.677 721.537 176.736C725.418 174.727 729.09 171.989 732.555 168.525V91.3974H758.23V198.045H742.534C739.208 198.045 737.025 196.486 735.985 193.367L734.218 184.844C732.001 187.061 729.714 189.106 727.358 190.977C725.002 192.778 722.473 194.338 719.77 195.654C717.137 196.902 714.261 197.872 711.143 198.565C708.094 199.327 704.802 199.708 701.268 199.708C695.447 199.708 690.284 198.738 685.78 196.798C681.345 194.788 677.603 191.981 674.554 188.378C671.505 184.775 669.184 180.513 667.59 175.593C666.065 170.603 665.303 165.129 665.303 159.17V91.3974H690.977ZM812.979 43.5827V198.045H787.305V43.5827H812.979ZM887.609 89.7343C895.578 89.7343 902.785 91.0163 909.229 93.5803C915.743 96.1442 921.287 99.7823 925.86 104.494C930.434 109.207 933.968 114.958 936.463 121.749C938.957 128.54 940.205 136.128 940.205 144.513C940.205 152.967 938.957 160.59 936.463 167.381C933.968 174.172 930.434 179.959 925.86 184.74C921.287 189.521 915.743 193.194 909.229 195.758C902.785 198.322 895.578 199.604 887.609 199.604C879.64 199.604 872.398 198.322 865.884 195.758C859.37 193.194 853.792 189.521 849.149 184.74C844.575 179.959 841.007 174.172 838.443 167.381C835.948 160.59 834.701 152.967 834.701 144.513C834.701 136.128 835.948 128.54 838.443 121.749C841.007 114.958 844.575 109.207 849.149 104.494C853.792 99.7823 859.37 96.1442 865.884 93.5803C872.398 91.0163 879.64 89.7343 887.609 89.7343ZM887.609 179.855C896.479 179.855 903.027 176.875 907.254 170.915C911.551 164.956 913.699 156.224 913.699 144.721C913.699 133.218 911.551 124.452 907.254 118.423C903.027 112.394 896.479 109.38 887.609 109.38C878.6 109.38 871.948 112.429 867.651 118.527C863.355 124.556 861.207 133.287 861.207 144.721C861.207 156.155 863.355 164.886 867.651 170.915C871.948 176.875 878.6 179.855 887.609 179.855ZM960.237 198.045V91.3974H975.933C979.259 91.3974 981.442 92.9566 982.481 96.0749L984.248 104.494C986.396 102.277 988.649 100.267 991.005 98.4657C993.43 96.664 995.959 95.1048 998.593 93.7881C1001.3 92.4715 1004.17 91.4667 1007.22 90.7737C1010.27 90.0808 1013.6 89.7343 1017.2 89.7343C1023.02 89.7343 1028.18 90.7391 1032.69 92.7487C1037.19 94.689 1040.93 97.4609 1043.91 101.064C1046.96 104.598 1049.25 108.86 1050.77 113.85C1052.37 118.77 1053.16 124.209 1053.16 130.169V198.045H1027.49V130.169C1027.49 123.655 1025.96 118.631 1022.92 115.097C1019.94 111.493 1015.43 109.692 1009.4 109.692C1004.97 109.692 1000.81 110.697 996.929 112.706C993.049 114.716 989.376 117.453 985.911 120.918V198.045H960.237Z" fill="#1E4ED8"/>
</svg>
