<svg width="357" height="80" viewBox="0 0 357 80" fill="none" xmlns="http://www.w3.org/2000/svg">
    <path d="M71.503 0H8.497A8.497 8.497 0 0 0 0 8.497v63.006A8.497 8.497 0 0 0 8.497 80h63.006A8.497 8.497 0 0 0 80 71.503V8.497A8.497 8.497 0 0 0 71.503 0z" fill="#5A50FA"/>
    <path d="m65.326 31.214-5.155 13.512V29.907l-8.967-2.24-6.726 21.092V25.983l-8.972-2.24-6.727 27.45v-29.13l-8.966-2.245-6.689 20.179 1.695.01 4.994-15.201v35.376l8.966-2.246 6.727-27.473v25.794l8.972-2.246 6.726-21.097v19.418l8.967-2.24 6.705-18.49-1.55-.388z" fill="#fff"/>
    <path d="M120.009 23.957h7.936c4.274 7.49 8.514 15.014 12.754 22.538h.078c4.24-7.524 8.471-15.049 12.745-22.538h7.936v32.077h-6.499V35.388h-.202c-3.862 6.867-7.734 13.779-11.641 20.646h-4.809c-3.906-6.867-7.769-13.779-11.641-20.646h-.166v20.646H120V23.957h.009zM185.81 23.957h7.402l14.847 32.077h-6.789c-1.358-2.794-2.715-5.597-4.117-8.391h-15.46c-1.358 2.794-2.716 5.597-4.108 8.391h-6.622l14.847-32.077zm8.558 17.764c-1.647-3.416-3.329-6.946-4.853-10.406h-.123a393.502 393.502 0 0 1-4.896 10.406h9.872zM217.554 23.957h14.514c3.662 0 13.201.902 13.201 10.319 0 6.044-4.275 8.838-9.005 9.793v.043c3.25 3.951 6.535 7.937 9.784 11.93h-7.2l-9.373-11.474h-5.509v11.475h-6.412V23.957zM231 39.137c3.451 0 7.568-.867 7.568-4.73 0-3.863-4.196-4.896-7.568-4.896h-7.034v9.626H231zM257.033 23.957h15.548c7.647 0 11.886 3.583 11.886 8.304 0 3.083-2.058 6.254-6.377 7.28v.078c4.652.78 7.735 3.206 7.735 7.647 0 6.666-6.955 8.76-12.876 8.76h-15.916V23.956zm13.699 13.244c3.618 0 7.034-.823 7.034-3.784 0-2.96-3.617-3.828-7.112-3.828h-7.201v7.612h7.279zm.824 13.2c3.618 0 7.445-.823 7.445-3.95 0-3.127-3.906-3.985-7.445-3.985h-8.103v7.936h8.103zM297.169 23.957h6.411v26.401h17.607v5.676h-24.018V23.957zM331.094 23.957h24.92v5.632h-18.508v7.2h17.519v5.922h-17.519v7.647h18.999v5.676h-25.42V23.957h.009z" fill="#080525"/>
</svg>
