<svg width="171" height="171" viewBox="0 0 171 171" fill="none" xmlns="http://www.w3.org/2000/svg">
<path d="M143.891 170.995H27.0904C12.123 170.995 0 158.872 0 143.904V27.0904C0 12.123 12.123 0 27.0904 0H143.904C158.872 0 170.995 12.123 170.995 27.0904V143.904C170.981 158.872 158.858 170.995 143.891 170.995Z" fill="#1E4ED8"/>
<path d="M44.082 47.1206V123.854C44.082 125.263 45.2198 126.401 46.6285 126.401H67.2579C68.6666 126.401 69.8044 125.263 69.8044 123.854V72.8295C69.8044 71.4208 70.9422 70.283 72.3509 70.283H124.541C125.949 70.283 127.087 69.1452 127.087 67.7365V47.1071C127.087 45.6984 125.949 44.5605 124.541 44.5605H46.6285C45.2334 44.5741 44.082 45.7255 44.082 47.1206Z" fill="white"/>
<path d="M99.6784 126.42H124.073C125.767 126.42 127.135 125.052 127.135 123.359V98.9636C127.135 97.2704 125.767 95.9023 124.073 95.9023H99.6784C97.9853 95.9023 96.6172 97.2704 96.6172 98.9636V123.359C96.6172 125.052 97.9853 126.42 99.6784 126.42Z" fill="white"/>
</svg>
