<?xml version="1.0" encoding="utf-8"?>
<!-- Generator: Adobe Illustrator 28.3.0, SVG Export Plug-In . SVG Version: 6.00 Build 0)  -->
<svg version="1.1" id="Layer_1" xmlns="http://www.w3.org/2000/svg" xmlns:xlink="http://www.w3.org/1999/xlink" x="0px" y="0px"
	 viewBox="0 0 1080 1080" style="enable-background:new 0 0 1080 1080;" xml:space="preserve">
<style type="text/css">
	.st0{fill:#1E4ED8;}
	.st1{fill:#FFFFFF;}
</style>
<g>
	<path class="st0" d="M764,784H316c-11.05,0-20-8.95-20-20V316c0-11.05,8.95-20,20-20h448c11.05,0,20,8.95,20,20v448
		C784,775.05,775.05,784,764,784z"/>
	<g>
		<g>
			<path class="st1" d="M421.55,430.49v219.01c0,4.02,3.26,7.27,7.27,7.27h58.86c4.02,0,7.27-3.26,7.27-7.27V503.9
				c0-4.02,3.26-7.27,7.27-7.27h148.94c4.02,0,7.27-3.26,7.27-7.27v-58.86c0-4.02-3.26-7.27-7.27-7.27H428.83
				C424.81,423.22,421.55,426.48,421.55,430.49z"/>
			<path class="st1" d="M580.11,656.78h69.61c4.82,0,8.72-3.91,8.72-8.73v-69.61c0-4.82-3.91-8.73-8.72-8.73h-69.61
				c-4.82,0-8.73,3.91-8.73,8.73v69.61C571.38,652.87,575.29,656.78,580.11,656.78z"/>
		</g>
	</g>
</g>
</svg>
