<?xml version="1.0" encoding="utf-8"?>
<!-- Generator: Adobe Illustrator 28.3.0, SVG Export Plug-In . SVG Version: 6.00 Build 0)  -->
<svg version="1.1" id="Layer_1" xmlns="http://www.w3.org/2000/svg" xmlns:xlink="http://www.w3.org/1999/xlink" x="0px" y="0px"
	 viewBox="0 0 1080 1080" style="enable-background:new 0 0 1080 1080;" xml:space="preserve">
<style type="text/css">
	.st0{fill:#1E4ED8;}
	.st1{font-family:'Lato-Bold';}
	.st2{font-size:119.6636px;}
	.st3{letter-spacing:-6;}
	.st4{letter-spacing:-2;}
	.st5{letter-spacing:-5;}
	.st6{letter-spacing:-4;}
	.st7{fill:#FFFFFF;}
</style>
<g>
	<text transform="matrix(1 0 0 1 433.4038 575.0895)"><tspan x="0" y="0" class="st0 st1 st2 st3">r</tspan><tspan x="42.54" y="0" class="st0 st1 st2 st4">e</tspan><tspan x="103.51" y="0" class="st0 st1 st2 st4">g</tspan><tspan x="163.04" y="0" class="st0 st1 st2 st5">u</tspan><tspan x="225.56" y="0" class="st0 st1 st2 st3">l</tspan><tspan x="251.05" y="0" class="st0 st1 st2 st6">o</tspan><tspan x="314.17" y="0" class="st0 st1 st2">n</tspan></text>
	<path class="st0" d="M370.63,608H284.4c-11.05,0-20-8.95-20-20v-86.24c0-11.05,8.95-20,20-20h86.24c11.05,0,20,8.95,20,20V588
		C390.63,599.05,381.68,608,370.63,608z"/>
	<g>
		<g>
			<path class="st7" d="M296.87,516.55v56.65c0,1.04,0.84,1.88,1.88,1.88h15.23c1.04,0,1.88-0.84,1.88-1.88v-37.67
				c0-1.04,0.84-1.88,1.88-1.88h38.53c1.04,0,1.88-0.84,1.88-1.88v-15.23c0-1.04-0.84-1.88-1.88-1.88h-57.52
				C297.72,514.67,296.87,515.52,296.87,516.55z"/>
			<path class="st7" d="M337.89,575.09h18.01c1.25,0,2.26-1.01,2.26-2.26v-18.01c0-1.25-1.01-2.26-2.26-2.26h-18.01
				c-1.25,0-2.26,1.01-2.26,2.26v18.01C335.63,574.08,336.64,575.09,337.89,575.09z"/>
		</g>
	</g>
</g>
</svg>
