<svg xmlns="http://www.w3.org/2000/svg" width="237" height="34" viewBox="0 0 237 34" fill="none">
  <path d="M0.00875463 0.957062H7.94482C12.2194 8.44639 16.459 15.9707 20.6986 23.4951H20.7774C25.017 15.9707 29.2478 8.44639 33.5224 0.957062H41.4584V33.0341H34.9589V12.3881H34.7575C30.8946 19.2555 27.0229 26.1667 23.1162 33.0341H18.3072C14.4005 26.1667 10.5376 19.2555 6.66594 12.3881H6.49951V33.0341H0V0.957062H0.00875463Z" fill="#080525"/>
  <path d="M65.8098 0.957062H73.2115L88.0588 33.0341H81.2702C79.9125 30.2399 78.5548 27.4369 77.1533 24.6426H61.6928C60.3351 27.4369 58.9774 30.2399 57.5847 33.0341H50.9625L65.8098 0.957062ZM74.3677 18.7212C72.721 15.305 71.0392 11.775 69.515 8.31499H69.3924C68.0347 11.3195 66.2653 15.1036 64.4959 18.7212H74.3677Z" fill="#080525"/>
  <path d="M97.5538 0.957062H112.068C115.73 0.957062 125.269 1.85929 125.269 11.2757C125.269 17.3197 120.994 20.114 116.264 21.0687V21.1125C119.514 25.0631 122.799 29.0486 126.048 33.0429H118.848L109.475 21.568H103.966V33.0429H97.5538V0.957062ZM111 16.1372C114.451 16.1372 118.568 15.27 118.568 11.4071C118.568 7.54416 114.372 6.51055 111 6.51055H103.966V16.1372H111Z" fill="#080525"/>
  <path d="M137.033 0.957062H152.581C160.228 0.957062 164.467 4.53968 164.467 9.26101C164.467 12.3443 162.409 15.5153 158.09 16.5401V16.6189C162.742 17.3985 165.825 19.8249 165.825 24.2659C165.825 30.9319 158.87 33.0254 152.949 33.0254H137.033V0.957062ZM150.732 14.2013C154.35 14.2013 157.766 13.378 157.766 10.4173C157.766 7.45657 154.149 6.58938 150.654 6.58938H143.453V14.2013H150.732ZM151.556 27.4018C155.174 27.4018 159.001 26.5784 159.001 23.4513C159.001 20.3242 155.095 19.4658 151.556 19.4658H143.453V27.4018H151.556Z" fill="#080525"/>
  <path d="M177.169 0.957062H183.58V27.358H201.187V33.0341H177.169V0.957062Z" fill="#080525"/>
  <path d="M211.094 0.957062H236.014V6.58938H217.506V13.7896H235.025V19.711H217.506V27.358H236.505V33.0341H211.085V0.957062H211.094Z" fill="#080525"/>
</svg>