<svg width="342" height="198" viewBox="0 0 342 198" fill="none" xmlns="http://www.w3.org/2000/svg">
<path d="M262.578 57.9194L262.578 99.2903" stroke="#F8FAFE" stroke-width="0.5" stroke-linecap="round" stroke-dasharray="0.06 4.41"/>
<path d="M157.104 41.5308H198.475" stroke="#F8FAFE" stroke-width="0.5" stroke-linecap="round" stroke-dasharray="0.06 4.41"/>
<g opacity="0.4">
<mask id="path-3-inside-1_397_52284" fill="white">
<path d="M0 70C0 68.8954 0.895431 68 2 68H158C159.105 68 160 68.8954 160 70V104C160 105.105 159.105 106 158 106H2C0.895429 106 0 105.105 0 104V70Z"/>
</mask>
<path d="M0 70C0 68.8954 0.895431 68 2 68H158C159.105 68 160 68.8954 160 70V104C160 105.105 159.105 106 158 106H2C0.895429 106 0 105.105 0 104V70Z" fill="#141230" fill-opacity="0.4"/>
<path d="M2 68V68.5H158V68V67.5H2V68ZM160 70H159.5V104H160H160.5V70H160ZM158 106V105.5H2V106V106.5H158V106ZM0 104H0.5V70H0H-0.5V104H0ZM2 106V105.5C1.17157 105.5 0.5 104.828 0.5 104H0H-0.5C-0.5 105.381 0.619286 106.5 2 106.5V106ZM160 104H159.5C159.5 104.828 158.828 105.5 158 105.5V106V106.5C159.381 106.5 160.5 105.381 160.5 104H160ZM158 68V68.5C158.828 68.5 159.5 69.1716 159.5 70H160H160.5C160.5 68.6193 159.381 67.5 158 67.5V68ZM2 68V67.5C0.619288 67.5 -0.5 68.6193 -0.5 70H0H0.5C0.5 69.1716 1.17157 68.5 2 68.5V68Z" fill="#2C2A45" mask="url(#path-3-inside-1_397_52284)"/>
<rect x="8" y="76" width="22" height="22" rx="11" fill="white" fill-opacity="0.2"/>
<rect x="46" y="77" width="88" height="8" rx="4" fill="white" fill-opacity="0.2"/>
<rect opacity="0.5" x="46" y="89" width="54" height="8" rx="4" fill="white" fill-opacity="0.2"/>
</g>
<g opacity="0.2">
<mask id="path-8-inside-2_397_52284" fill="white">
<path d="M0 116C0 114.895 0.895431 114 2 114H158C159.105 114 160 114.895 160 116V150C160 151.105 159.105 152 158 152H2C0.895429 152 0 151.105 0 150V116Z"/>
</mask>
<path d="M0 116C0 114.895 0.895431 114 2 114H158C159.105 114 160 114.895 160 116V150C160 151.105 159.105 152 158 152H2C0.895429 152 0 151.105 0 150V116Z" fill="#141230" fill-opacity="0.4"/>
<path d="M2 114V114.5H158V114V113.5H2V114ZM160 116H159.5V150H160H160.5V116H160ZM158 152V151.5H2V152V152.5H158V152ZM0 150H0.5V116H0H-0.5V150H0ZM2 152V151.5C1.17157 151.5 0.5 150.828 0.5 150H0H-0.5C-0.5 151.381 0.619286 152.5 2 152.5V152ZM160 150H159.5C159.5 150.828 158.828 151.5 158 151.5V152V152.5C159.381 152.5 160.5 151.381 160.5 150H160ZM158 114V114.5C158.828 114.5 159.5 115.172 159.5 116H160H160.5C160.5 114.619 159.381 113.5 158 113.5V114ZM2 114V113.5C0.619288 113.5 -0.5 114.619 -0.5 116H0H0.5C0.5 115.172 1.17157 114.5 2 114.5V114Z" fill="#2C2A45" mask="url(#path-8-inside-2_397_52284)"/>
<rect x="8" y="122" width="22" height="22" rx="11" fill="white" fill-opacity="0.2"/>
<rect x="46" y="123" width="88" height="8" rx="4" fill="white" fill-opacity="0.2"/>
<rect opacity="0.5" x="46" y="135" width="54" height="8" rx="4" fill="white" fill-opacity="0.2"/>
</g>
<g opacity="0.1">
<mask id="path-13-inside-3_397_52284" fill="white">
<path d="M0 162C0 160.895 0.895431 160 2 160H158C159.105 160 160 160.895 160 162V196C160 197.105 159.105 198 158 198H2C0.895429 198 0 197.105 0 196V162Z"/>
</mask>
<path d="M0 162C0 160.895 0.895431 160 2 160H158C159.105 160 160 160.895 160 162V196C160 197.105 159.105 198 158 198H2C0.895429 198 0 197.105 0 196V162Z" fill="#141230" fill-opacity="0.4"/>
<path d="M2 160V160.5H158V160V159.5H2V160ZM160 162H159.5V196H160H160.5V162H160ZM158 198V197.5H2V198V198.5H158V198ZM0 196H0.5V162H0H-0.5V196H0ZM2 198V197.5C1.17157 197.5 0.5 196.828 0.5 196H0H-0.5C-0.5 197.381 0.619286 198.5 2 198.5V198ZM160 196H159.5C159.5 196.828 158.828 197.5 158 197.5V198V198.5C159.381 198.5 160.5 197.381 160.5 196H160ZM158 160V160.5C158.828 160.5 159.5 161.172 159.5 162H160H160.5C160.5 160.619 159.381 159.5 158 159.5V160ZM2 160V159.5C0.619288 159.5 -0.5 160.619 -0.5 162H0H0.5C0.5 161.172 1.17157 160.5 2 160.5V160Z" fill="#2C2A45" mask="url(#path-13-inside-3_397_52284)"/>
<rect x="8" y="168" width="22" height="22" rx="11" fill="white" fill-opacity="0.2"/>
<rect x="46" y="169" width="88" height="8" rx="4" fill="white" fill-opacity="0.2"/>
<rect opacity="0.5" x="46" y="181" width="54" height="8" rx="4" fill="white" fill-opacity="0.2"/>
</g>
<mask id="path-18-inside-4_397_52284" fill="white">
<path d="M0 24C0 22.8954 0.895431 22 2 22H158C159.105 22 160 22.8954 160 24V58C160 59.1046 159.105 60 158 60H2C0.895429 60 0 59.1046 0 58V24Z"/>
</mask>
<path d="M0 24C0 22.8954 0.895431 22 2 22H158C159.105 22 160 22.8954 160 24V58C160 59.1046 159.105 60 158 60H2C0.895429 60 0 59.1046 0 58V24Z" fill="#141230" fill-opacity="0.4"/>
<path d="M2 22V22.5H158V22V21.5H2V22ZM160 24H159.5V58H160H160.5V24H160ZM158 60V59.5H2V60V60.5H158V60ZM0 58H0.5V24H0H-0.5V58H0ZM2 60V59.5C1.17157 59.5 0.5 58.8284 0.5 58H0H-0.5C-0.5 59.3807 0.619286 60.5 2 60.5V60ZM160 58H159.5C159.5 58.8284 158.828 59.5 158 59.5V60V60.5C159.381 60.5 160.5 59.3807 160.5 58H160ZM158 22V22.5C158.828 22.5 159.5 23.1716 159.5 24H160H160.5C160.5 22.6193 159.381 21.5 158 21.5V22ZM2 22V21.5C0.619288 21.5 -0.5 22.6193 -0.5 24H0H0.5C0.5 23.1716 1.17157 22.5 2 22.5V22Z" fill="#2C2A45" mask="url(#path-18-inside-4_397_52284)"/>
<rect x="8" y="30" width="22" height="22" rx="11" fill="#5A50FA" fill-opacity="0.2"/>
<mask id="mask0_397_52284" style="mask-type:alpha" maskUnits="userSpaceOnUse" x="13" y="35" width="12" height="12">
<rect x="13" y="35" width="12" height="12" fill="#D9D9D9"/>
</mask>
<g mask="url(#mask0_397_52284)">
<path d="M15.5 43.5V40H16.5V43.5H15.5ZM18.5 43.5V40H19.5V43.5H18.5ZM14 45.5V44.5H24V45.5H14ZM21.5 43.5V40H22.5V43.5H21.5ZM14 39V38L19 35.5L24 38V39H14ZM16.225 38H21.775L19 36.625L16.225 38Z" fill="#5A50FA"/>
</g>
<path d="M48 38V32.88H46.424V32.16H50.376V32.88H48.8V38H48ZM51.6369 38V33.6H52.4209V34.44H52.6049L52.4209 34.624C52.4209 34.2773 52.5249 34.008 52.7329 33.816C52.9462 33.6187 53.2395 33.52 53.6129 33.52C54.0662 33.52 54.4289 33.6667 54.7009 33.96C54.9729 34.2533 55.1089 34.648 55.1089 35.144V35.464H54.3089V35.216C54.3089 34.896 54.2262 34.648 54.0609 34.472C53.9009 34.296 53.6635 34.208 53.3489 34.208C53.0555 34.208 52.8289 34.296 52.6689 34.472C52.5089 34.6427 52.4289 34.8933 52.4289 35.224V38H51.6369ZM57.5858 38.08C57.1218 38.08 56.7564 37.9627 56.4898 37.728C56.2284 37.488 56.0978 37.1653 56.0978 36.76C56.0978 36.344 56.2338 36.0187 56.5058 35.784C56.7831 35.544 57.1591 35.424 57.6338 35.424H58.9138V35.008C58.9138 34.752 58.8338 34.5547 58.6738 34.416C58.5191 34.272 58.3031 34.2 58.0258 34.2C57.7751 34.2 57.5644 34.256 57.3938 34.368C57.2284 34.4747 57.1271 34.616 57.0898 34.792H56.3138C56.3351 34.536 56.4204 34.3147 56.5698 34.128C56.7244 33.936 56.9271 33.7867 57.1778 33.68C57.4338 33.5733 57.7191 33.52 58.0338 33.52C58.5511 33.52 58.9591 33.6507 59.2578 33.912C59.5564 34.1733 59.7057 34.5307 59.7057 34.984V38H58.9298V37.184H58.8018L58.9378 37.032C58.9378 37.3573 58.8124 37.6133 58.5618 37.8C58.3164 37.9867 57.9911 38.08 57.5858 38.08ZM57.8018 37.464C58.1271 37.464 58.3938 37.384 58.6018 37.224C58.8098 37.0587 58.9138 36.848 58.9138 36.592V35.992H57.6497C57.4151 35.992 57.2284 36.056 57.0898 36.184C56.9564 36.312 56.8898 36.4853 56.8898 36.704C56.8898 36.944 56.9698 37.1307 57.1298 37.264C57.2898 37.3973 57.5138 37.464 57.8018 37.464ZM61.0946 38V33.6H61.8786V34.44H62.0626L61.8786 34.624C61.8786 34.2773 61.9826 34.008 62.1906 33.816C62.404 33.6187 62.6946 33.52 63.0626 33.52C63.5 33.52 63.8493 33.6587 64.1106 33.936C64.372 34.2133 64.5026 34.5867 64.5026 35.056V38H63.7106V35.144C63.7106 34.84 63.6306 34.608 63.4706 34.448C63.3106 34.288 63.092 34.208 62.8146 34.208C62.5266 34.208 62.3 34.296 62.1346 34.472C61.9693 34.6427 61.8866 34.8907 61.8866 35.216V38H61.0946ZM67.4435 38.064C67.1342 38.064 66.8595 38.016 66.6195 37.92C66.3795 37.824 66.1928 37.688 66.0595 37.512C65.9262 37.3307 65.8595 37.1173 65.8595 36.872H66.6675C66.6675 37.032 66.7422 37.1573 66.8915 37.248C67.0408 37.3387 67.2302 37.384 67.4595 37.384H67.7955C68.0675 37.384 68.2702 37.3307 68.4035 37.224C68.5422 37.112 68.6115 36.9653 68.6115 36.784C68.6115 36.6027 68.5475 36.4613 68.4195 36.36C68.2915 36.2533 68.1075 36.1813 67.8675 36.144L67.2755 36.056C66.8328 35.9813 66.5022 35.8427 66.2835 35.64C66.0702 35.432 65.9635 35.1467 65.9635 34.784C65.9635 34.3787 66.0942 34.0693 66.3555 33.856C66.6222 33.6427 67.0062 33.536 67.5075 33.536H67.8115C68.2702 33.536 68.6382 33.64 68.9155 33.848C69.1928 34.0507 69.3315 34.32 69.3315 34.656H68.5235C68.5235 34.5227 68.4595 34.416 68.3315 34.336C68.2035 34.256 68.0248 34.216 67.7955 34.216H67.4915C67.2515 34.216 67.0648 34.2667 66.9315 34.368C66.8035 34.464 66.7395 34.6027 66.7395 34.784C66.7395 35.088 66.9582 35.2773 67.3955 35.352L67.9955 35.448C68.4755 35.5173 68.8275 35.656 69.0515 35.864C69.2755 36.072 69.3875 36.368 69.3875 36.752C69.3875 37.1627 69.2542 37.4853 68.9875 37.72C68.7208 37.9493 68.3182 38.064 67.7795 38.064H67.4435ZM71.9764 38.08C71.5124 38.08 71.147 37.9627 70.8804 37.728C70.619 37.488 70.4884 37.1653 70.4884 36.76C70.4884 36.344 70.6244 36.0187 70.8964 35.784C71.1737 35.544 71.5497 35.424 72.0244 35.424H73.3044V35.008C73.3044 34.752 73.2244 34.5547 73.0644 34.416C72.9097 34.272 72.6937 34.2 72.4164 34.2C72.1657 34.2 71.955 34.256 71.7844 34.368C71.619 34.4747 71.5177 34.616 71.4804 34.792H70.7044C70.7257 34.536 70.811 34.3147 70.9604 34.128C71.115 33.936 71.3177 33.7867 71.5684 33.68C71.8244 33.5733 72.1097 33.52 72.4244 33.52C72.9417 33.52 73.3497 33.6507 73.6484 33.912C73.947 34.1733 74.0964 34.5307 74.0964 34.984V38H73.3204V37.184H73.1924L73.3284 37.032C73.3284 37.3573 73.203 37.6133 72.9524 37.8C72.707 37.9867 72.3817 38.08 71.9764 38.08ZM72.1924 37.464C72.5177 37.464 72.7844 37.384 72.9924 37.224C73.2004 37.0587 73.3044 36.848 73.3044 36.592V35.992H72.0404C71.8057 35.992 71.619 36.056 71.4804 36.184C71.347 36.312 71.2804 36.4853 71.2804 36.704C71.2804 36.944 71.3604 37.1307 71.5204 37.264C71.6804 37.3973 71.9044 37.464 72.1924 37.464ZM77.2133 38.08C76.8559 38.08 76.5413 38.0133 76.2693 37.88C76.0026 37.7413 75.7946 37.5467 75.6453 37.296C75.5013 37.04 75.4293 36.736 75.4293 36.384V35.216C75.4293 34.8587 75.5013 34.5547 75.6453 34.304C75.7946 34.0533 76.0026 33.8613 76.2693 33.728C76.5413 33.5893 76.8559 33.52 77.2133 33.52C77.7306 33.52 78.1466 33.6587 78.4613 33.936C78.7759 34.208 78.9413 34.5813 78.9573 35.056H78.1733C78.1573 34.7893 78.0639 34.584 77.8933 34.44C77.7279 34.296 77.5013 34.224 77.2133 34.224C76.9093 34.224 76.6666 34.3093 76.4853 34.48C76.3093 34.6453 76.2213 34.888 76.2213 35.208V36.384C76.2213 36.704 76.3093 36.9493 76.4853 37.12C76.6666 37.2907 76.9093 37.376 77.2133 37.376C77.5013 37.376 77.7279 37.304 77.8933 37.16C78.0639 37.0107 78.1573 36.8053 78.1733 36.544H78.9573C78.9413 37.0187 78.7759 37.3947 78.4613 37.672C78.1466 37.944 77.7306 38.08 77.2133 38.08ZM82.4581 38C82.0848 38 81.7835 37.8907 81.5541 37.672C81.3301 37.4533 81.2181 37.1627 81.2181 36.8V34.32H79.9941V33.6H81.2181V32.36H82.0181V33.6H83.7541V34.32H82.0181V36.792C82.0181 36.936 82.0581 37.0533 82.1381 37.144C82.2235 37.2347 82.3355 37.28 82.4741 37.28H83.6741V38H82.4581ZM85.039 38V37.28H86.583V34.32H85.199V33.6H87.375V37.28H88.823V38H85.039ZM86.903 32.824C86.7217 32.824 86.5777 32.7787 86.471 32.688C86.3643 32.592 86.311 32.464 86.311 32.304C86.311 32.1387 86.3643 32.008 86.471 31.912C86.5777 31.816 86.7217 31.768 86.903 31.768C87.0843 31.768 87.2283 31.816 87.335 31.912C87.4417 32.008 87.495 32.1387 87.495 32.304C87.495 32.464 87.4417 32.592 87.335 32.688C87.2283 32.7787 87.0843 32.824 86.903 32.824ZM91.5719 38.064C91.2145 38.064 90.9025 37.9973 90.6359 37.864C90.3745 37.7253 90.1719 37.5307 90.0279 37.28C89.8892 37.024 89.8199 36.7227 89.8199 36.376V35.224C89.8199 34.8773 89.8892 34.5787 90.0279 34.328C90.1719 34.072 90.3745 33.8773 90.6359 33.744C90.9025 33.6053 91.2145 33.536 91.5719 33.536C91.9345 33.536 92.2465 33.6053 92.5079 33.744C92.7692 33.8773 92.9692 34.0693 93.1079 34.32C93.2519 34.5707 93.3239 34.8693 93.3239 35.216V36.376C93.3239 36.7227 93.2519 37.024 93.1079 37.28C92.9692 37.5307 92.7692 37.7253 92.5079 37.864C92.2465 37.9973 91.9345 38.064 91.5719 38.064ZM91.5719 37.368C91.8759 37.368 92.1105 37.2853 92.2759 37.12C92.4465 36.9493 92.5319 36.7013 92.5319 36.376V35.224C92.5319 34.8987 92.4465 34.6533 92.2759 34.488C92.1105 34.3173 91.8759 34.232 91.5719 34.232C91.2732 34.232 91.0385 34.3173 90.8679 34.488C90.6972 34.6533 90.6119 34.8987 90.6119 35.224V36.376C90.6119 36.7013 90.6972 36.9493 90.8679 37.12C91.0385 37.2853 91.2732 37.368 91.5719 37.368ZM94.6728 38V33.6H95.4568V34.44H95.6408L95.4568 34.624C95.4568 34.2773 95.5608 34.008 95.7688 33.816C95.9821 33.6187 96.2728 33.52 96.6408 33.52C97.0781 33.52 97.4274 33.6587 97.6888 33.936C97.9501 34.2133 98.0807 34.5867 98.0807 35.056V38H97.2888V35.144C97.2888 34.84 97.2088 34.608 97.0488 34.448C96.8888 34.288 96.6701 34.208 96.3928 34.208C96.1048 34.208 95.8781 34.296 95.7128 34.472C95.5474 34.6427 95.4648 34.8907 95.4648 35.216V38H94.6728ZM104.211 38L104.515 36.36H103.843V35.8H104.611L104.875 34.36H104.123V33.8H104.971L105.275 32.16H105.875L105.571 33.8H106.811L107.115 32.16H107.715L107.411 33.8H108.082V34.36H107.315L107.051 35.8H107.803V36.36H106.955L106.651 38H106.051L106.355 36.36H105.115L104.811 38H104.211ZM105.211 35.8H106.451L106.715 34.36H105.475L105.211 35.8ZM111.519 38V36.752H108.895V35.544L111.031 32.16H111.903L109.679 35.712V36.04H111.519V34.64H112.319V38H111.519ZM115.54 38.08C115.05 38.08 114.65 37.9547 114.34 37.704C114.031 37.4533 113.852 37.112 113.804 36.68H114.596C114.623 36.904 114.716 37.0773 114.876 37.2C115.042 37.3173 115.266 37.376 115.548 37.376C115.868 37.376 116.108 37.2907 116.268 37.12C116.434 36.9493 116.516 36.7067 116.516 36.392V35.824C116.516 35.5093 116.434 35.2667 116.268 35.096C116.108 34.9253 115.871 34.84 115.556 34.84C115.359 34.84 115.186 34.8907 115.036 34.992C114.892 35.088 114.786 35.2187 114.716 35.384H113.932L113.972 32.16H117.1V32.88H114.732L114.708 34.76H114.932L114.708 34.968C114.708 34.7173 114.807 34.52 115.004 34.376C115.202 34.232 115.468 34.16 115.804 34.16C116.279 34.1547 116.647 34.3013 116.908 34.6C117.175 34.8933 117.308 35.3013 117.308 35.824V36.392C117.308 36.9147 117.154 37.328 116.844 37.632C116.535 37.9307 116.1 38.08 115.54 38.08ZM119.417 38L121.513 32.872H119.353V33.824H118.561V32.16H122.337V32.888L120.289 38H119.417ZM125.15 38.08C124.771 38.08 124.438 38.016 124.15 37.888C123.867 37.7547 123.646 37.5707 123.486 37.336C123.331 37.1013 123.254 36.832 123.254 36.528C123.254 36.1707 123.371 35.848 123.606 35.56C123.841 35.2667 124.153 35.0453 124.542 34.896L125.342 34.576C125.582 34.4853 125.774 34.3547 125.918 34.184C126.067 34.008 126.142 33.8187 126.142 33.616C126.142 33.3653 126.049 33.1627 125.862 33.008C125.681 32.848 125.443 32.768 125.15 32.768C124.857 32.768 124.617 32.848 124.43 33.008C124.249 33.1627 124.158 33.3653 124.158 33.616C124.158 33.824 124.227 34.0133 124.366 34.184C124.51 34.3547 124.697 34.4827 124.926 34.568L125.734 34.88C126.134 35.0347 126.451 35.2587 126.686 35.552C126.926 35.8453 127.046 36.1707 127.046 36.528C127.046 36.832 126.966 37.1013 126.806 37.336C126.651 37.5707 126.433 37.7547 126.15 37.888C125.867 38.016 125.534 38.08 125.15 38.08ZM125.15 37.384C125.486 37.384 125.755 37.296 125.958 37.12C126.166 36.944 126.27 36.7147 126.27 36.432C126.27 36.208 126.198 36.0053 126.054 35.824C125.915 35.6373 125.723 35.4933 125.478 35.392L124.662 35.072C124.241 34.9067 123.921 34.696 123.702 34.44C123.489 34.1787 123.382 33.8933 123.382 33.584C123.382 33.2907 123.457 33.032 123.606 32.808C123.761 32.5787 123.969 32.4 124.23 32.272C124.497 32.1387 124.803 32.072 125.15 32.072C125.497 32.072 125.803 32.1387 126.07 32.272C126.337 32.4 126.545 32.5787 126.694 32.808C126.843 33.032 126.918 33.2907 126.918 33.584C126.918 33.8933 126.809 34.1787 126.59 34.44C126.371 34.7013 126.049 34.9147 125.622 35.08L124.806 35.4C124.561 35.5013 124.369 35.6427 124.23 35.824C124.097 36.0053 124.03 36.2053 124.03 36.424C124.03 36.712 124.131 36.944 124.334 37.12C124.542 37.296 124.814 37.384 125.15 37.384Z" fill="white"/>
<path opacity="0.3" d="M46.582 50V45.62H47.956C48.224 45.62 48.456 45.672 48.652 45.776C48.852 45.88 49.006 46.028 49.114 46.22C49.222 46.408 49.276 46.632 49.276 46.892C49.276 47.148 49.222 47.372 49.114 47.564C49.006 47.752 48.852 47.9 48.652 48.008C48.456 48.112 48.224 48.164 47.956 48.164H47.056V50H46.582ZM47.056 47.732H47.956C48.208 47.732 48.408 47.656 48.556 47.504C48.708 47.352 48.784 47.148 48.784 46.892C48.784 46.632 48.708 46.428 48.556 46.28C48.408 46.128 48.208 46.052 47.956 46.052H47.056V47.732ZM50.2817 50V46.7H50.7557V47.312H50.8577L50.7377 47.498C50.7377 47.23 50.8177 47.02 50.9777 46.868C51.1417 46.716 51.3637 46.64 51.6437 46.64C51.9917 46.64 52.2677 46.75 52.4717 46.97C52.6757 47.186 52.7777 47.478 52.7777 47.846V48.074H52.2917V47.882C52.2917 47.618 52.2237 47.414 52.0877 47.27C51.9557 47.126 51.7637 47.054 51.5117 47.054C51.2717 47.054 51.0857 47.126 50.9537 47.27C50.8217 47.41 50.7557 47.614 50.7557 47.882V50H50.2817ZM54.9953 50.054C54.7393 50.054 54.5153 50.004 54.3233 49.904C54.1353 49.8 53.9893 49.656 53.8853 49.472C53.7853 49.284 53.7353 49.062 53.7353 48.806V47.894C53.7353 47.638 53.7853 47.418 53.8853 47.234C53.9893 47.046 54.1353 46.902 54.3233 46.802C54.5153 46.698 54.7393 46.646 54.9953 46.646C55.2553 46.646 55.4793 46.698 55.6673 46.802C55.8553 46.902 55.9993 47.044 56.0993 47.228C56.2033 47.412 56.2553 47.632 56.2553 47.888V48.806C56.2553 49.062 56.2033 49.284 56.0993 49.472C55.9993 49.656 55.8553 49.8 55.6673 49.904C55.4793 50.004 55.2553 50.054 54.9953 50.054ZM54.9953 49.628C55.2433 49.628 55.4353 49.558 55.5713 49.418C55.7073 49.278 55.7753 49.074 55.7753 48.806V47.894C55.7753 47.626 55.7053 47.422 55.5653 47.282C55.4293 47.142 55.2393 47.072 54.9953 47.072C54.7513 47.072 54.5593 47.142 54.4193 47.282C54.2833 47.422 54.2153 47.626 54.2153 47.894V48.806C54.2153 49.074 54.2833 49.278 54.4193 49.418C54.5593 49.558 54.7513 49.628 54.9953 49.628ZM58.611 50.06C58.355 50.06 58.131 50.01 57.939 49.91C57.747 49.81 57.597 49.668 57.489 49.484C57.385 49.296 57.333 49.074 57.333 48.818V47.882C57.333 47.626 57.385 47.406 57.489 47.222C57.597 47.034 57.747 46.89 57.939 46.79C58.131 46.69 58.355 46.64 58.611 46.64C58.987 46.64 59.289 46.742 59.517 46.946C59.745 47.15 59.863 47.428 59.871 47.78H59.397C59.389 47.552 59.315 47.376 59.175 47.252C59.039 47.128 58.851 47.066 58.611 47.066C58.367 47.066 58.173 47.138 58.029 47.282C57.885 47.422 57.813 47.622 57.813 47.882V48.818C57.813 49.074 57.885 49.274 58.029 49.418C58.173 49.562 58.367 49.634 58.611 49.634C58.851 49.634 59.039 49.572 59.175 49.448C59.315 49.32 59.389 49.144 59.397 48.92H59.871C59.863 49.272 59.745 49.55 59.517 49.754C59.289 49.958 58.987 50.06 58.611 50.06ZM62.1906 50.06C61.9346 50.06 61.7126 50.01 61.5246 49.91C61.3366 49.806 61.1906 49.66 61.0866 49.472C60.9826 49.284 60.9306 49.066 60.9306 48.818V47.882C60.9306 47.63 60.9826 47.412 61.0866 47.228C61.1906 47.04 61.3366 46.896 61.5246 46.796C61.7126 46.692 61.9346 46.64 62.1906 46.64C62.4466 46.64 62.6686 46.692 62.8566 46.796C63.0446 46.896 63.1906 47.04 63.2946 47.228C63.3986 47.412 63.4506 47.63 63.4506 47.882V48.464H61.3986V48.818C61.3986 49.086 61.4666 49.294 61.6026 49.442C61.7426 49.586 61.9386 49.658 62.1906 49.658C62.4026 49.658 62.5746 49.616 62.7066 49.532C62.8426 49.448 62.9286 49.326 62.9646 49.166H63.4386C63.3946 49.442 63.2606 49.66 63.0366 49.82C62.8126 49.98 62.5306 50.06 62.1906 50.06ZM62.9826 48.146V47.882C62.9826 47.614 62.9146 47.408 62.7786 47.264C62.6426 47.116 62.4466 47.042 62.1906 47.042C61.9386 47.042 61.7426 47.116 61.6026 47.264C61.4666 47.408 61.3986 47.614 61.3986 47.882V48.092H63.0306L62.9826 48.146ZM65.6683 50.054C65.4523 50.054 65.2583 50.018 65.0863 49.946C64.9183 49.874 64.7843 49.772 64.6843 49.64C64.5883 49.508 64.5383 49.354 64.5343 49.178H65.0203C65.0283 49.314 65.0923 49.424 65.2123 49.508C65.3363 49.588 65.4923 49.628 65.6803 49.628H65.9683C66.1843 49.628 66.3463 49.582 66.4543 49.49C66.5663 49.394 66.6223 49.268 66.6223 49.112C66.6223 48.964 66.5723 48.844 66.4723 48.752C66.3723 48.66 66.2323 48.6 66.0523 48.572L65.5543 48.494C65.2383 48.442 65.0023 48.34 64.8463 48.188C64.6903 48.036 64.6123 47.83 64.6123 47.57C64.6123 47.278 64.7083 47.052 64.9003 46.892C65.0963 46.728 65.3703 46.646 65.7223 46.646H65.9563C66.2803 46.646 66.5423 46.722 66.7423 46.874C66.9423 47.022 67.0463 47.22 67.0543 47.468H66.5683C66.5603 47.348 66.5003 47.252 66.3883 47.18C66.2803 47.108 66.1323 47.072 65.9443 47.072H65.7103C65.5143 47.072 65.3603 47.116 65.2483 47.204C65.1363 47.292 65.0803 47.414 65.0803 47.57C65.0803 47.834 65.2623 47.994 65.6263 48.05L66.1183 48.128C66.4463 48.18 66.6903 48.284 66.8503 48.44C67.0103 48.592 67.0903 48.806 67.0903 49.082C67.0903 49.382 66.9943 49.62 66.8023 49.796C66.6103 49.968 66.3303 50.054 65.9623 50.054H65.6683ZM69.2659 50.054C69.0499 50.054 68.8559 50.018 68.6839 49.946C68.5159 49.874 68.3819 49.772 68.2819 49.64C68.1859 49.508 68.1359 49.354 68.1319 49.178H68.6179C68.6259 49.314 68.6899 49.424 68.8099 49.508C68.9339 49.588 69.0899 49.628 69.2779 49.628H69.5659C69.7819 49.628 69.9439 49.582 70.0519 49.49C70.1639 49.394 70.2199 49.268 70.2199 49.112C70.2199 48.964 70.1699 48.844 70.0699 48.752C69.9699 48.66 69.8299 48.6 69.6499 48.572L69.1519 48.494C68.8359 48.442 68.5999 48.34 68.4439 48.188C68.2879 48.036 68.2099 47.83 68.2099 47.57C68.2099 47.278 68.3059 47.052 68.4979 46.892C68.6939 46.728 68.9679 46.646 69.3199 46.646H69.5539C69.8779 46.646 70.1399 46.722 70.3399 46.874C70.5399 47.022 70.6439 47.22 70.6519 47.468H70.1659C70.1579 47.348 70.0979 47.252 69.9859 47.18C69.8779 47.108 69.7299 47.072 69.5419 47.072H69.3079C69.1119 47.072 68.9579 47.116 68.8459 47.204C68.7339 47.292 68.6779 47.414 68.6779 47.57C68.6779 47.834 68.8599 47.994 69.2239 48.05L69.7159 48.128C70.0439 48.18 70.2879 48.284 70.4479 48.44C70.6079 48.592 70.6879 48.806 70.6879 49.082C70.6879 49.382 70.5919 49.62 70.3999 49.796C70.2079 49.968 69.9279 50.054 69.5599 50.054H69.2659ZM71.7116 50V49.568H72.8876V47.132H71.8376V46.7H73.3676V49.568H74.4836V50H71.7116ZM73.0736 46.094C72.9496 46.094 72.8496 46.062 72.7736 45.998C72.7016 45.934 72.6656 45.846 72.6656 45.734C72.6656 45.618 72.7016 45.526 72.7736 45.458C72.8496 45.39 72.9496 45.356 73.0736 45.356C73.1976 45.356 73.2956 45.39 73.3676 45.458C73.4436 45.526 73.4816 45.618 73.4816 45.734C73.4816 45.842 73.4436 45.93 73.3676 45.998C73.2956 46.062 73.1976 46.094 73.0736 46.094ZM75.3633 50V46.7H75.8373V47.312H75.9573L75.8253 47.486C75.8253 47.222 75.9053 47.016 76.0653 46.868C76.2293 46.716 76.4513 46.64 76.7313 46.64C77.0593 46.64 77.3213 46.744 77.5173 46.952C77.7133 47.156 77.8112 47.434 77.8112 47.786V50H77.3373V47.84C77.3373 47.588 77.2713 47.394 77.1393 47.258C77.0073 47.122 76.8273 47.054 76.5993 47.054C76.3633 47.054 76.1773 47.126 76.0413 47.27C75.9053 47.414 75.8373 47.618 75.8373 47.882V50H75.3633ZM79.3629 51.08V50.648H80.3649C80.5529 50.648 80.6909 50.604 80.7789 50.516C80.8709 50.428 80.9169 50.294 80.9169 50.114V49.73L80.9289 49.106H80.8209L80.9349 48.968C80.9349 49.216 80.8529 49.414 80.6889 49.562C80.5249 49.71 80.3049 49.784 80.0289 49.784C79.6929 49.784 79.4269 49.674 79.2309 49.454C79.0349 49.23 78.9369 48.932 78.9369 48.56V47.858C78.9369 47.486 79.0349 47.19 79.2309 46.97C79.4269 46.75 79.6929 46.64 80.0289 46.64C80.3049 46.64 80.5249 46.714 80.6889 46.862C80.8529 47.006 80.9349 47.202 80.9349 47.45L80.8269 47.312H80.9229V46.7H81.3909V50.114C81.3909 50.418 81.3009 50.654 81.1209 50.822C80.9449 50.994 80.6929 51.08 80.3649 51.08H79.3629ZM80.1669 49.37C80.4029 49.37 80.5869 49.298 80.7189 49.154C80.8549 49.006 80.9229 48.802 80.9229 48.542V47.882C80.9229 47.622 80.8549 47.42 80.7189 47.276C80.5869 47.128 80.4029 47.054 80.1669 47.054C79.9269 47.054 79.7409 47.126 79.6089 47.27C79.4769 47.414 79.4109 47.618 79.4109 47.882V48.542C79.4109 48.806 79.4769 49.01 79.6089 49.154C79.7409 49.298 79.9269 49.37 80.1669 49.37ZM84.4439 50.06C84.2959 50.06 84.1799 50.018 84.0959 49.934C84.0079 49.846 83.9639 49.73 83.9639 49.586C83.9639 49.434 84.0079 49.314 84.0959 49.226C84.1799 49.138 84.2959 49.094 84.4439 49.094C84.5919 49.094 84.7099 49.138 84.7979 49.226C84.8819 49.314 84.9239 49.434 84.9239 49.586C84.9239 49.73 84.8819 49.846 84.7979 49.934C84.7099 50.018 84.5919 50.06 84.4439 50.06ZM87.3779 50.06C87.2299 50.06 87.1139 50.018 87.0299 49.934C86.9419 49.846 86.8979 49.73 86.8979 49.586C86.8979 49.434 86.9419 49.314 87.0299 49.226C87.1139 49.138 87.2299 49.094 87.3779 49.094C87.5259 49.094 87.6439 49.138 87.7319 49.226C87.8159 49.314 87.8579 49.434 87.8579 49.586C87.8579 49.73 87.8159 49.846 87.7319 49.934C87.6439 50.018 87.5259 50.06 87.3779 50.06ZM90.3059 50.06C90.1579 50.06 90.0399 50.018 89.9519 49.934C89.8679 49.846 89.8259 49.73 89.8259 49.586C89.8259 49.434 89.8679 49.314 89.9519 49.226C90.0399 49.138 90.1579 49.094 90.3059 49.094C90.4539 49.094 90.5699 49.138 90.6539 49.226C90.7419 49.314 90.7859 49.434 90.7859 49.586C90.7859 49.73 90.7419 49.846 90.6539 49.934C90.5699 50.018 90.4539 50.06 90.3059 50.06Z" fill="white"/>
<mask id="path-25-inside-5_397_52284" fill="white">
<path d="M184 102H342V194.306C342 195.411 341.105 196.306 340 196.306H186C184.895 196.306 184 195.411 184 194.306V102Z"/>
</mask>
<path d="M184 102H342V194.306C342 195.411 341.105 196.306 340 196.306H186C184.895 196.306 184 195.411 184 194.306V102Z" fill="#141230" fill-opacity="0.4"/>
<path d="M184 102V101.5H183.5V102H184ZM342 102H342.5V101.5H342V102ZM184 102V102.5H342V102V101.5H184V102ZM342 102H341.5V194.306H342H342.5V102H342ZM340 196.306V195.806H186V196.306V196.806H340V196.306ZM184 194.306H184.5V102H184H183.5V194.306H184ZM186 196.306V195.806C185.172 195.806 184.5 195.135 184.5 194.306H184H183.5C183.5 195.687 184.619 196.806 186 196.806V196.306ZM342 194.306H341.5C341.5 195.135 340.828 195.806 340 195.806V196.306V196.806C341.381 196.806 342.5 195.687 342.5 194.306H342Z" fill="#2C2A45" mask="url(#path-25-inside-5_397_52284)"/>
<path d="M244.284 137.221C243.196 137.221 242.254 137.022 241.46 136.625C240.666 136.213 240.048 135.647 239.607 134.926C239.18 134.19 238.967 133.337 238.967 132.366V125.526C238.967 124.556 239.18 123.71 239.607 122.989C240.048 122.254 240.666 121.687 241.46 121.29C242.254 120.878 243.189 120.672 244.262 120.672C245.351 120.672 246.285 120.878 247.065 121.29C247.859 121.687 248.469 122.254 248.896 122.989C249.337 123.71 249.558 124.556 249.558 125.526V132.366C249.558 133.337 249.337 134.19 248.896 134.926C248.469 135.647 247.859 136.213 247.065 136.625C246.285 137.022 245.358 137.221 244.284 137.221ZM244.262 134.352C244.954 134.352 245.491 134.176 245.873 133.823C246.27 133.47 246.469 132.984 246.469 132.366V125.526C246.469 124.909 246.27 124.423 245.873 124.07C245.491 123.717 244.954 123.541 244.262 123.541C243.571 123.541 243.027 123.717 242.63 124.07C242.247 124.423 242.056 124.909 242.056 125.526V132.366C242.056 132.984 242.254 133.47 242.652 133.823C243.049 134.176 243.586 134.352 244.262 134.352ZM244.262 130.469C243.806 130.469 243.431 130.322 243.137 130.028C242.858 129.733 242.718 129.351 242.718 128.88C242.718 128.41 242.858 128.034 243.137 127.755C243.431 127.475 243.806 127.336 244.262 127.336C244.733 127.336 245.108 127.475 245.388 127.755C245.667 128.034 245.807 128.41 245.807 128.88C245.807 129.351 245.667 129.733 245.388 130.028C245.108 130.322 244.733 130.469 244.262 130.469ZM257.514 137.221C256.426 137.221 255.485 137.022 254.69 136.625C253.896 136.213 253.278 135.647 252.837 134.926C252.41 134.19 252.197 133.337 252.197 132.366V125.526C252.197 124.556 252.41 123.71 252.837 122.989C253.278 122.254 253.896 121.687 254.69 121.29C255.485 120.878 256.419 120.672 257.492 120.672C258.581 120.672 259.515 120.878 260.295 121.29C261.089 121.687 261.699 122.254 262.126 122.989C262.567 123.71 262.788 124.556 262.788 125.526V132.366C262.788 133.337 262.567 134.19 262.126 134.926C261.699 135.647 261.089 136.213 260.295 136.625C259.515 137.022 258.588 137.221 257.514 137.221ZM257.492 134.352C258.184 134.352 258.721 134.176 259.103 133.823C259.5 133.47 259.699 132.984 259.699 132.366V125.526C259.699 124.909 259.5 124.423 259.103 124.07C258.721 123.717 258.184 123.541 257.492 123.541C256.801 123.541 256.257 123.717 255.86 124.07C255.477 124.423 255.286 124.909 255.286 125.526V132.366C255.286 132.984 255.485 133.47 255.882 133.823C256.279 134.176 256.816 134.352 257.492 134.352ZM257.492 130.469C257.036 130.469 256.661 130.322 256.367 130.028C256.088 129.733 255.948 129.351 255.948 128.88C255.948 128.41 256.088 128.034 256.367 127.755C256.661 127.475 257.036 127.336 257.492 127.336C257.963 127.336 258.338 127.475 258.618 127.755C258.897 128.034 259.037 128.41 259.037 128.88C259.037 129.351 258.897 129.733 258.618 130.028C258.338 130.322 257.963 130.469 257.492 130.469Z" fill="#5A50FA"/>
<path d="M264.6 136.16L268.025 126.827H269.564L266.139 136.16H264.6ZM270.851 135.068V133.727H272.678V129.18L270.831 130.55V129.011L272.529 127.82H274.167V133.727H275.617V135.068H270.851ZM278.999 135.167C278.509 135.167 278.086 135.078 277.728 134.899C277.371 134.714 277.093 134.459 276.894 134.134C276.702 133.803 276.606 133.42 276.606 132.983V129.905C276.606 129.468 276.702 129.087 276.894 128.763C277.093 128.432 277.371 128.177 277.728 127.998C278.086 127.813 278.506 127.72 278.989 127.72C279.479 127.72 279.899 127.813 280.25 127.998C280.607 128.177 280.882 128.432 281.074 128.763C281.273 129.087 281.372 129.468 281.372 129.905V132.983C281.372 133.42 281.273 133.803 281.074 134.134C280.882 134.459 280.607 134.714 280.25 134.899C279.899 135.078 279.482 135.167 278.999 135.167ZM278.989 133.876C279.3 133.876 279.542 133.797 279.714 133.638C279.893 133.479 279.982 133.261 279.982 132.983V129.905C279.982 129.627 279.893 129.408 279.714 129.249C279.542 129.09 279.3 129.011 278.989 129.011C278.678 129.011 278.433 129.09 278.254 129.249C278.082 129.408 277.996 129.627 277.996 129.905V132.983C277.996 133.261 278.086 133.479 278.264 133.638C278.443 133.797 278.685 133.876 278.989 133.876ZM278.989 132.129C278.784 132.129 278.615 132.063 278.483 131.93C278.357 131.798 278.294 131.626 278.294 131.414C278.294 131.202 278.357 131.033 278.483 130.907C278.615 130.782 278.784 130.719 278.989 130.719C279.201 130.719 279.37 130.782 279.495 130.907C279.621 131.033 279.684 131.202 279.684 131.414C279.684 131.626 279.621 131.798 279.495 131.93C279.37 132.063 279.201 132.129 278.989 132.129ZM284.953 135.167C284.463 135.167 284.039 135.078 283.682 134.899C283.324 134.714 283.046 134.459 282.848 134.134C282.656 133.803 282.56 133.42 282.56 132.983V129.905C282.56 129.468 282.656 129.087 282.848 128.763C283.046 128.432 283.324 128.177 283.682 127.998C284.039 127.813 284.459 127.72 284.943 127.72C285.432 127.72 285.853 127.813 286.204 127.998C286.561 128.177 286.836 128.432 287.028 128.763C287.226 129.087 287.326 129.468 287.326 129.905V132.983C287.326 133.42 287.226 133.803 287.028 134.134C286.836 134.459 286.561 134.714 286.204 134.899C285.853 135.078 285.436 135.167 284.953 135.167ZM284.943 133.876C285.254 133.876 285.495 133.797 285.667 133.638C285.846 133.479 285.936 133.261 285.936 132.983V129.905C285.936 129.627 285.846 129.408 285.667 129.249C285.495 129.09 285.254 129.011 284.943 129.011C284.631 129.011 284.387 129.09 284.208 129.249C284.036 129.408 283.95 129.627 283.95 129.905V132.983C283.95 133.261 284.039 133.479 284.218 133.638C284.397 133.797 284.638 133.876 284.943 133.876ZM284.943 132.129C284.737 132.129 284.569 132.063 284.436 131.93C284.31 131.798 284.248 131.626 284.248 131.414C284.248 131.202 284.31 131.033 284.436 130.907C284.569 130.782 284.737 130.719 284.943 130.719C285.154 130.719 285.323 130.782 285.449 130.907C285.575 131.033 285.638 131.202 285.638 131.414C285.638 131.626 285.575 131.798 285.449 131.93C285.323 132.063 285.154 132.129 284.943 132.129Z" fill="#D6D4EF"/>
<rect x="192" y="154.306" width="41" height="16" rx="8" fill="#14AA5F" fill-opacity="0.15"/>
<path d="M199.337 164.306H198.494L200.03 159.943H201.006L202.544 164.306H201.7L200.535 160.838H200.501L199.337 164.306ZM199.365 162.595H201.666V163.23H199.365V162.595ZM203.085 165.534V161.034H203.843V161.575H203.888C203.928 161.495 203.984 161.411 204.056 161.321C204.129 161.23 204.227 161.153 204.35 161.089C204.474 161.024 204.632 160.991 204.823 160.991C205.076 160.991 205.304 161.056 205.507 161.185C205.712 161.313 205.874 161.502 205.993 161.754C206.114 162.004 206.174 162.311 206.174 162.674C206.174 163.034 206.115 163.339 205.997 163.59C205.88 163.842 205.719 164.034 205.516 164.166C205.313 164.298 205.083 164.364 204.826 164.364C204.638 164.364 204.483 164.333 204.359 164.27C204.235 164.208 204.136 164.132 204.061 164.044C203.987 163.955 203.929 163.87 203.888 163.791H203.856V165.534H203.085ZM203.841 162.67C203.841 162.882 203.871 163.067 203.931 163.226C203.992 163.385 204.079 163.51 204.193 163.599C204.308 163.687 204.447 163.731 204.61 163.731C204.781 163.731 204.924 163.686 205.039 163.595C205.154 163.502 205.24 163.377 205.299 163.218C205.358 163.057 205.388 162.875 205.388 162.67C205.388 162.467 205.359 162.287 205.301 162.129C205.242 161.971 205.156 161.848 205.041 161.758C204.926 161.669 204.782 161.624 204.61 161.624C204.446 161.624 204.306 161.667 204.191 161.754C204.076 161.84 203.988 161.962 203.929 162.118C203.87 162.274 203.841 162.458 203.841 162.67ZM206.835 165.534V161.034H207.593V161.575H207.638C207.678 161.495 207.734 161.411 207.806 161.321C207.879 161.23 207.977 161.153 208.1 161.089C208.224 161.024 208.382 160.991 208.573 160.991C208.826 160.991 209.054 161.056 209.257 161.185C209.462 161.313 209.624 161.502 209.743 161.754C209.864 162.004 209.924 162.311 209.924 162.674C209.924 163.034 209.865 163.339 209.747 163.59C209.63 163.842 209.469 164.034 209.266 164.166C209.063 164.298 208.833 164.364 208.576 164.364C208.388 164.364 208.233 164.333 208.109 164.27C207.985 164.208 207.886 164.132 207.811 164.044C207.737 163.955 207.679 163.87 207.638 163.791H207.606V165.534H206.835ZM207.591 162.67C207.591 162.882 207.621 163.067 207.681 163.226C207.742 163.385 207.829 163.51 207.943 163.599C208.058 163.687 208.197 163.731 208.36 163.731C208.531 163.731 208.674 163.686 208.789 163.595C208.904 163.502 208.99 163.377 209.049 163.218C209.108 163.057 209.138 162.875 209.138 162.67C209.138 162.467 209.109 162.287 209.051 162.129C208.992 161.971 208.906 161.848 208.791 161.758C208.676 161.669 208.532 161.624 208.36 161.624C208.196 161.624 208.056 161.667 207.941 161.754C207.826 161.84 207.738 161.962 207.679 162.118C207.62 162.274 207.591 162.458 207.591 162.67ZM210.585 164.306V161.034H211.333V161.579H211.367C211.426 161.39 211.529 161.245 211.674 161.142C211.82 161.039 211.987 160.987 212.174 160.987C212.217 160.987 212.264 160.989 212.317 160.993C212.371 160.996 212.416 161.001 212.451 161.008V161.718C212.419 161.706 212.367 161.696 212.296 161.688C212.226 161.678 212.159 161.673 212.093 161.673C211.953 161.673 211.826 161.703 211.714 161.764C211.603 161.824 211.516 161.907 211.452 162.014C211.388 162.12 211.356 162.243 211.356 162.382V164.306H210.585ZM214.256 164.37C213.937 164.37 213.66 164.3 213.426 164.159C213.191 164.019 213.009 163.822 212.88 163.569C212.752 163.316 212.688 163.021 212.688 162.683C212.688 162.345 212.752 162.049 212.88 161.794C213.009 161.54 213.191 161.343 213.426 161.202C213.66 161.061 213.937 160.991 214.256 160.991C214.576 160.991 214.853 161.061 215.087 161.202C215.322 161.343 215.503 161.54 215.631 161.794C215.76 162.049 215.825 162.345 215.825 162.683C215.825 163.021 215.76 163.316 215.631 163.569C215.503 163.822 215.322 164.019 215.087 164.159C214.853 164.3 214.576 164.37 214.256 164.37ZM214.261 163.752C214.434 163.752 214.579 163.705 214.695 163.61C214.812 163.513 214.899 163.384 214.955 163.222C215.014 163.06 215.043 162.88 215.043 162.681C215.043 162.48 215.014 162.299 214.955 162.137C214.899 161.974 214.812 161.844 214.695 161.747C214.579 161.651 214.434 161.603 214.261 161.603C214.083 161.603 213.935 161.651 213.818 161.747C213.701 161.844 213.614 161.974 213.555 162.137C213.499 162.299 213.47 162.48 213.47 162.681C213.47 162.88 213.499 163.06 213.555 163.222C213.614 163.384 213.701 163.513 213.818 163.61C213.935 163.705 214.083 163.752 214.261 163.752ZM219.291 161.034L218.126 164.306H217.274L216.108 161.034H216.93L217.683 163.465H217.717L218.471 161.034H219.291ZM221.163 164.37C220.834 164.37 220.551 164.302 220.312 164.166C220.075 164.028 219.893 163.833 219.765 163.582C219.637 163.329 219.573 163.032 219.573 162.689C219.573 162.353 219.637 162.057 219.765 161.803C219.894 161.547 220.074 161.348 220.306 161.206C220.538 161.063 220.81 160.991 221.122 160.991C221.324 160.991 221.514 161.024 221.693 161.089C221.873 161.153 222.033 161.252 222.17 161.387C222.31 161.522 222.419 161.694 222.498 161.903C222.578 162.11 222.618 162.358 222.618 162.644V162.881H219.935V162.361H221.878C221.877 162.213 221.845 162.082 221.783 161.967C221.72 161.85 221.633 161.759 221.521 161.692C221.41 161.625 221.28 161.592 221.133 161.592C220.975 161.592 220.837 161.63 220.717 161.707C220.598 161.782 220.505 161.882 220.438 162.005C220.373 162.127 220.339 162.262 220.338 162.408V162.862C220.338 163.052 220.373 163.215 220.442 163.352C220.512 163.487 220.609 163.59 220.734 163.663C220.859 163.734 221.006 163.769 221.173 163.769C221.285 163.769 221.387 163.754 221.478 163.723C221.569 163.69 221.648 163.642 221.714 163.58C221.781 163.517 221.832 163.44 221.866 163.348L222.586 163.429C222.54 163.619 222.454 163.785 222.326 163.927C222.199 164.068 222.038 164.177 221.84 164.255C221.643 164.332 221.417 164.37 221.163 164.37ZM224.485 164.364C224.228 164.364 223.998 164.298 223.794 164.166C223.591 164.034 223.431 163.842 223.313 163.59C223.195 163.339 223.136 163.034 223.136 162.674C223.136 162.311 223.196 162.004 223.315 161.754C223.436 161.502 223.598 161.313 223.803 161.185C224.008 161.056 224.236 160.991 224.487 160.991C224.679 160.991 224.836 161.024 224.96 161.089C225.084 161.153 225.182 161.23 225.254 161.321C225.326 161.411 225.383 161.495 225.422 161.575H225.454V159.943H226.228V164.306H225.469V163.791H225.422C225.383 163.87 225.325 163.955 225.25 164.044C225.174 164.132 225.075 164.208 224.951 164.27C224.828 164.333 224.672 164.364 224.485 164.364ZM224.7 163.731C224.863 163.731 225.003 163.687 225.118 163.599C225.233 163.51 225.32 163.385 225.38 163.226C225.439 163.067 225.469 162.882 225.469 162.67C225.469 162.458 225.439 162.274 225.38 162.118C225.321 161.962 225.235 161.84 225.12 161.754C225.006 161.667 224.866 161.624 224.7 161.624C224.528 161.624 224.385 161.669 224.27 161.758C224.155 161.848 224.068 161.971 224.01 162.129C223.951 162.287 223.922 162.467 223.922 162.67C223.922 162.875 223.951 163.057 224.01 163.218C224.069 163.377 224.157 163.502 224.272 163.595C224.388 163.686 224.531 163.731 224.7 163.731Z" fill="#14AA5F"/>
<rect x="250" y="154.306" width="34" height="16" rx="8" fill="#D2371E" fill-opacity="0.15"/>
<path d="M258.055 164.306H256.576V159.943H258.084C258.518 159.943 258.89 160.03 259.201 160.205C259.513 160.378 259.753 160.627 259.921 160.953C260.089 161.278 260.172 161.667 260.172 162.12C260.172 162.575 260.088 162.965 259.919 163.292C259.751 163.619 259.509 163.87 259.192 164.044C258.877 164.219 258.498 164.306 258.055 164.306ZM257.366 163.622H258.016C258.32 163.622 258.574 163.567 258.777 163.456C258.98 163.344 259.133 163.177 259.235 162.956C259.337 162.733 259.388 162.454 259.388 162.12C259.388 161.787 259.337 161.51 259.235 161.289C259.133 161.068 258.981 160.902 258.781 160.793C258.582 160.682 258.335 160.627 258.04 160.627H257.366V163.622ZM262.338 164.37C262.01 164.37 261.727 164.302 261.488 164.166C261.251 164.028 261.068 163.833 260.941 163.582C260.813 163.329 260.749 163.032 260.749 162.689C260.749 162.353 260.813 162.057 260.941 161.803C261.07 161.547 261.25 161.348 261.482 161.206C261.713 161.063 261.985 160.991 262.298 160.991C262.5 160.991 262.69 161.024 262.869 161.089C263.049 161.153 263.208 161.252 263.346 161.387C263.485 161.522 263.595 161.694 263.674 161.903C263.754 162.11 263.794 162.358 263.794 162.644V162.881H261.111V162.361H263.054C263.053 162.213 263.021 162.082 262.958 161.967C262.896 161.85 262.809 161.759 262.696 161.692C262.585 161.625 262.456 161.592 262.309 161.592C262.151 161.592 262.012 161.63 261.893 161.707C261.774 161.782 261.681 161.882 261.614 162.005C261.549 162.127 261.515 162.262 261.514 162.408V162.862C261.514 163.052 261.549 163.215 261.618 163.352C261.688 163.487 261.785 163.59 261.91 163.663C262.035 163.734 262.181 163.769 262.349 163.769C262.461 163.769 262.563 163.754 262.654 163.723C262.745 163.69 262.823 163.642 262.89 163.58C262.957 163.517 263.007 163.44 263.041 163.348L263.762 163.429C263.716 163.619 263.63 163.785 263.502 163.927C263.375 164.068 263.213 164.177 263.016 164.255C262.818 164.332 262.593 164.37 262.338 164.37ZM265.874 164.37C265.547 164.37 265.266 164.299 265.032 164.155C264.799 164.012 264.619 163.813 264.493 163.561C264.368 163.306 264.305 163.014 264.305 162.683C264.305 162.35 264.369 162.057 264.497 161.803C264.625 161.547 264.805 161.348 265.038 161.206C265.273 161.063 265.55 160.991 265.869 160.991C266.135 160.991 266.37 161.04 266.575 161.138C266.781 161.235 266.945 161.372 267.067 161.549C267.189 161.725 267.259 161.931 267.276 162.167H266.538C266.509 162.01 266.438 161.878 266.325 161.773C266.215 161.666 266.066 161.613 265.88 161.613C265.722 161.613 265.584 161.656 265.465 161.741C265.345 161.825 265.252 161.946 265.185 162.103C265.12 162.261 265.087 162.45 265.087 162.67C265.087 162.893 265.12 163.085 265.185 163.245C265.251 163.404 265.342 163.527 265.46 163.614C265.58 163.699 265.72 163.742 265.88 163.742C265.994 163.742 266.095 163.72 266.185 163.678C266.276 163.634 266.352 163.571 266.413 163.488C266.474 163.406 266.516 163.306 266.538 163.188H267.276C267.257 163.419 267.189 163.625 267.071 163.804C266.953 163.981 266.793 164.12 266.59 164.221C266.386 164.321 266.148 164.37 265.874 164.37ZM268.68 159.943V164.306H267.909V159.943H268.68ZM269.473 164.306V161.034H270.245V164.306H269.473ZM269.861 160.569C269.739 160.569 269.634 160.529 269.546 160.448C269.458 160.365 269.414 160.267 269.414 160.152C269.414 160.035 269.458 159.936 269.546 159.855C269.634 159.773 269.739 159.732 269.861 159.732C269.985 159.732 270.09 159.773 270.177 159.855C270.265 159.936 270.309 160.035 270.309 160.152C270.309 160.267 270.265 160.365 270.177 160.448C270.09 160.529 269.985 160.569 269.861 160.569ZM271.809 162.389V164.306H271.038V161.034H271.775V161.59H271.813C271.889 161.407 272.009 161.261 272.174 161.153C272.34 161.045 272.545 160.991 272.789 160.991C273.015 160.991 273.212 161.039 273.38 161.136C273.549 161.233 273.679 161.372 273.772 161.556C273.865 161.739 273.911 161.961 273.91 162.223V164.306H273.139V162.342C273.139 162.123 273.082 161.952 272.968 161.828C272.856 161.705 272.701 161.643 272.502 161.643C272.367 161.643 272.247 161.673 272.142 161.733C272.038 161.791 271.956 161.875 271.897 161.986C271.838 162.097 271.809 162.231 271.809 162.389ZM276.143 164.37C275.815 164.37 275.532 164.302 275.293 164.166C275.056 164.028 274.873 163.833 274.745 163.582C274.617 163.329 274.554 163.032 274.554 162.689C274.554 162.353 274.617 162.057 274.745 161.803C274.875 161.547 275.055 161.348 275.286 161.206C275.518 161.063 275.79 160.991 276.103 160.991C276.304 160.991 276.495 161.024 276.674 161.089C276.854 161.153 277.013 161.252 277.151 161.387C277.29 161.522 277.399 161.694 277.479 161.903C277.559 162.11 277.598 162.358 277.598 162.644V162.881H274.916V162.361H276.859C276.858 162.213 276.826 162.082 276.763 161.967C276.701 161.85 276.613 161.759 276.501 161.692C276.39 161.625 276.261 161.592 276.113 161.592C275.956 161.592 275.817 161.63 275.698 161.707C275.578 161.782 275.485 161.882 275.419 162.005C275.353 162.127 275.32 162.262 275.318 162.408V162.862C275.318 163.052 275.353 163.215 275.423 163.352C275.492 163.487 275.59 163.59 275.715 163.663C275.84 163.734 275.986 163.769 276.154 163.769C276.266 163.769 276.367 163.754 276.458 163.723C276.549 163.69 276.628 163.642 276.695 163.58C276.762 163.517 276.812 163.44 276.846 163.348L277.566 163.429C277.521 163.619 277.434 163.785 277.306 163.927C277.18 164.068 277.018 164.177 276.821 164.255C276.623 164.332 276.397 164.37 276.143 164.37Z" fill="#D2371E"/>
<rect x="301" y="154.306" width="33" height="16" rx="8" fill="#FFBF00" fill-opacity="0.15"/>
<path d="M307.48 164.306V159.943H309.117C309.452 159.943 309.733 160.001 309.96 160.117C310.189 160.234 310.362 160.397 310.478 160.608C310.596 160.816 310.655 161.06 310.655 161.338C310.655 161.618 310.595 161.861 310.476 162.067C310.358 162.272 310.184 162.43 309.954 162.542C309.724 162.653 309.441 162.708 309.106 162.708H307.94V162.052H308.999C309.195 162.052 309.356 162.025 309.481 161.971C309.606 161.916 309.698 161.836 309.758 161.73C309.819 161.624 309.85 161.493 309.85 161.338C309.85 161.184 309.819 161.051 309.758 160.942C309.697 160.831 309.604 160.747 309.479 160.691C309.354 160.632 309.193 160.603 308.995 160.603H308.271V164.306H307.48ZM309.734 162.329L310.815 164.306H309.933L308.872 162.329H309.734ZM312.75 164.37C312.422 164.37 312.139 164.302 311.9 164.166C311.663 164.028 311.481 163.833 311.353 163.582C311.225 163.329 311.161 163.032 311.161 162.689C311.161 162.353 311.225 162.057 311.353 161.803C311.482 161.547 311.662 161.348 311.894 161.206C312.125 161.063 312.397 160.991 312.71 160.991C312.912 160.991 313.102 161.024 313.281 161.089C313.461 161.153 313.62 161.252 313.758 161.387C313.897 161.522 314.007 161.694 314.086 161.903C314.166 162.11 314.206 162.358 314.206 162.644V162.881H311.523V162.361H313.466C313.465 162.213 313.433 162.082 313.37 161.967C313.308 161.85 313.221 161.759 313.108 161.692C312.998 161.625 312.868 161.592 312.721 161.592C312.563 161.592 312.424 161.63 312.305 161.707C312.186 161.782 312.093 161.882 312.026 162.005C311.961 162.127 311.927 162.262 311.926 162.408V162.862C311.926 163.052 311.961 163.215 312.03 163.352C312.1 163.487 312.197 163.59 312.322 163.663C312.447 163.734 312.593 163.769 312.761 163.769C312.873 163.769 312.975 163.754 313.066 163.723C313.157 163.69 313.236 163.642 313.302 163.58C313.369 163.517 313.419 163.44 313.454 163.348L314.174 163.429C314.128 163.619 314.042 163.785 313.914 163.927C313.787 164.068 313.625 164.177 313.428 164.255C313.231 164.332 313.005 164.37 312.75 164.37ZM317.688 161.034L316.522 164.306H315.67L314.505 161.034H315.327L316.079 163.465H316.113L316.867 161.034H317.688ZM318.222 164.306V161.034H318.993V164.306H318.222ZM318.609 160.569C318.487 160.569 318.382 160.529 318.294 160.448C318.206 160.365 318.162 160.267 318.162 160.152C318.162 160.035 318.206 159.936 318.294 159.855C318.382 159.773 318.487 159.732 318.609 159.732C318.733 159.732 318.838 159.773 318.925 159.855C319.013 159.936 319.057 160.035 319.057 160.152C319.057 160.267 319.013 160.365 318.925 160.448C318.838 160.529 318.733 160.569 318.609 160.569ZM321.235 164.37C320.907 164.37 320.623 164.302 320.385 164.166C320.147 164.028 319.965 163.833 319.837 163.582C319.709 163.329 319.645 163.032 319.645 162.689C319.645 162.353 319.709 162.057 319.837 161.803C319.966 161.547 320.147 161.348 320.378 161.206C320.61 161.063 320.882 160.991 321.194 160.991C321.396 160.991 321.586 161.024 321.765 161.089C321.946 161.153 322.105 161.252 322.243 161.387C322.382 161.522 322.491 161.694 322.571 161.903C322.65 162.11 322.69 162.358 322.69 162.644V162.881H320.008V162.361H321.951C321.949 162.213 321.917 162.082 321.855 161.967C321.792 161.85 321.705 161.759 321.593 161.692C321.482 161.625 321.353 161.592 321.205 161.592C321.047 161.592 320.909 161.63 320.79 161.707C320.67 161.782 320.577 161.882 320.51 162.005C320.445 162.127 320.412 162.262 320.41 162.408V162.862C320.41 163.052 320.445 163.215 320.515 163.352C320.584 163.487 320.682 163.59 320.807 163.663C320.932 163.734 321.078 163.769 321.245 163.769C321.358 163.769 321.459 163.754 321.55 163.723C321.641 163.69 321.72 163.642 321.787 163.58C321.853 163.517 321.904 163.44 321.938 163.348L322.658 163.429C322.613 163.619 322.526 163.785 322.398 163.927C322.272 164.068 322.11 164.177 321.912 164.255C321.715 164.332 321.489 164.37 321.235 164.37ZM324 164.306L323.076 161.034H323.862L324.437 163.335H324.467L325.055 161.034H325.833L326.421 163.322H326.453L327.02 161.034H327.808L326.881 164.306H326.078L325.464 162.095H325.419L324.806 164.306H324Z" fill="#FFBF00"/>
<rect x="192" y="178.306" width="142" height="2" rx="1" fill="#5A50FA" fill-opacity="0.15"/>
<rect x="192" y="178.306" width="4" height="2" rx="1" fill="#5A50FA"/>
<g filter="url(#filter5_dd_397_52284)">
<circle cx="196" cy="179.306" r="4" fill="#5A50FA"/>
<circle cx="196" cy="179.306" r="3.25" stroke="#FDFEFF" stroke-width="1.5"/>
</g>
<path d="M184 85C184 83.8954 184.895 83 186 83H340C341.105 83 342 83.8954 342 85V103H184V85Z" fill="url(#paint0_linear_397_52284)"/>
<path d="M194.416 96.08C194.021 96.08 193.675 96.0133 193.376 95.88C193.083 95.7413 192.856 95.5493 192.696 95.304C192.536 95.0533 192.456 94.76 192.456 94.424H193.456C193.456 94.664 193.544 94.856 193.72 95C193.896 95.1387 194.131 95.208 194.424 95.208C194.712 95.208 194.936 95.1387 195.096 95C195.261 94.856 195.344 94.6667 195.344 94.432C195.344 94.2347 195.288 94.064 195.176 93.92C195.064 93.776 194.909 93.68 194.712 93.632L194.008 93.44C193.555 93.3173 193.203 93.1067 192.952 92.808C192.701 92.504 192.576 92.1387 192.576 91.712C192.576 91.216 192.741 90.8213 193.072 90.528C193.403 90.2293 193.848 90.08 194.408 90.08C194.973 90.08 195.421 90.2267 195.752 90.52C196.088 90.808 196.256 91.1973 196.256 91.688H195.256C195.256 91.4587 195.179 91.28 195.024 91.152C194.875 91.0187 194.667 90.952 194.4 90.952C194.139 90.952 193.933 91.0187 193.784 91.152C193.64 91.28 193.568 91.4613 193.568 91.696C193.568 91.8773 193.624 92.0347 193.736 92.168C193.848 92.3013 194.005 92.3947 194.208 92.448L194.92 92.648C195.379 92.7653 195.731 92.976 195.976 93.28C196.221 93.584 196.344 93.9573 196.344 94.4C196.344 94.736 196.264 95.032 196.104 95.288C195.944 95.5387 195.72 95.7333 195.432 95.872C195.144 96.0107 194.805 96.08 194.416 96.08ZM199.301 96.08C198.928 96.08 198.6 96.0107 198.317 95.872C198.04 95.728 197.824 95.528 197.669 95.272C197.514 95.0107 197.437 94.704 197.437 94.352V93.248C197.437 92.8907 197.514 92.584 197.669 92.328C197.824 92.072 198.04 91.8747 198.317 91.736C198.6 91.592 198.928 91.52 199.301 91.52C199.856 91.52 200.298 91.664 200.629 91.952C200.96 92.2347 201.133 92.6213 201.149 93.112H200.173C200.157 92.8827 200.072 92.7067 199.917 92.584C199.762 92.456 199.557 92.392 199.301 92.392C199.034 92.392 198.824 92.4667 198.669 92.616C198.514 92.76 198.437 92.968 198.437 93.24V94.352C198.437 94.624 198.514 94.8347 198.669 94.984C198.824 95.1333 199.034 95.208 199.301 95.208C199.557 95.208 199.762 95.1467 199.917 95.024C200.072 94.896 200.157 94.7173 200.173 94.488H201.149C201.133 94.9787 200.96 95.368 200.629 95.656C200.298 95.9387 199.856 96.08 199.301 96.08ZM204.154 96.072C203.78 96.072 203.455 96.0027 203.178 95.864C202.9 95.72 202.687 95.52 202.538 95.264C202.388 95.0027 202.314 94.696 202.314 94.344V93.256C202.314 92.904 202.388 92.6 202.538 92.344C202.687 92.0827 202.9 91.8827 203.178 91.744C203.455 91.6 203.78 91.528 204.154 91.528C204.532 91.528 204.858 91.6 205.13 91.744C205.407 91.8827 205.62 92.0827 205.77 92.344C205.919 92.6 205.994 92.9013 205.994 93.248V94.344C205.994 94.696 205.919 95.0027 205.77 95.264C205.62 95.52 205.407 95.72 205.13 95.864C204.858 96.0027 204.532 96.072 204.154 96.072ZM204.154 95.2C204.42 95.2 204.626 95.128 204.77 94.984C204.919 94.8347 204.994 94.6213 204.994 94.344V93.256C204.994 92.9733 204.919 92.76 204.77 92.616C204.626 92.472 204.42 92.4 204.154 92.4C203.892 92.4 203.687 92.472 203.538 92.616C203.388 92.76 203.314 92.9733 203.314 93.256V94.344C203.314 94.6213 203.388 94.8347 203.538 94.984C203.687 95.128 203.892 95.2 204.154 95.2ZM207.375 96V91.6H208.351V92.44H208.623L208.351 92.672C208.351 92.3147 208.46 92.0347 208.679 91.832C208.897 91.624 209.196 91.52 209.575 91.52C210.028 91.52 210.391 91.6693 210.663 91.968C210.935 92.2667 211.071 92.6693 211.071 93.176V93.536H210.023V93.248C210.023 92.976 209.951 92.7653 209.807 92.616C209.668 92.4613 209.465 92.384 209.199 92.384C208.932 92.384 208.727 92.464 208.583 92.624C208.444 92.7787 208.375 93.0053 208.375 93.304V96H207.375ZM213.915 96.08C213.542 96.08 213.217 96.008 212.939 95.864C212.662 95.72 212.446 95.52 212.291 95.264C212.142 95.0027 212.067 94.6987 212.067 94.352V93.248C212.067 92.9013 212.142 92.6 212.291 92.344C212.446 92.0827 212.662 91.88 212.939 91.736C213.217 91.592 213.542 91.52 213.915 91.52C214.283 91.52 214.603 91.592 214.875 91.736C215.153 91.88 215.366 92.0827 215.516 92.344C215.67 92.6 215.747 92.9013 215.747 93.248V94.04H213.035V94.352C213.035 94.6613 213.11 94.896 213.259 95.056C213.409 95.2107 213.63 95.288 213.923 95.288C214.147 95.288 214.329 95.2507 214.467 95.176C214.606 95.096 214.694 94.9813 214.731 94.832H215.715C215.641 95.2107 215.438 95.5147 215.107 95.744C214.782 95.968 214.385 96.08 213.915 96.08ZM214.779 93.48V93.24C214.779 92.936 214.707 92.704 214.563 92.544C214.419 92.3787 214.203 92.296 213.915 92.296C213.627 92.296 213.409 92.3787 213.259 92.544C213.11 92.7093 213.035 92.944 213.035 93.248V93.416L214.851 93.4L214.779 93.48ZM223.685 96.08C223.312 96.08 222.984 96.0107 222.701 95.872C222.424 95.728 222.208 95.528 222.053 95.272C221.899 95.0107 221.821 94.704 221.821 94.352V93.248C221.821 92.8907 221.899 92.584 222.053 92.328C222.208 92.072 222.424 91.8747 222.701 91.736C222.984 91.592 223.312 91.52 223.685 91.52C224.24 91.52 224.683 91.664 225.013 91.952C225.344 92.2347 225.517 92.6213 225.533 93.112H224.557C224.541 92.8827 224.456 92.7067 224.301 92.584C224.147 92.456 223.941 92.392 223.685 92.392C223.419 92.392 223.208 92.4667 223.053 92.616C222.899 92.76 222.821 92.968 222.821 93.24V94.352C222.821 94.624 222.899 94.8347 223.053 94.984C223.208 95.1333 223.419 95.208 223.685 95.208C223.941 95.208 224.147 95.1467 224.301 95.024C224.456 94.896 224.541 94.7173 224.557 94.488H225.533C225.517 94.9787 225.344 95.368 225.013 95.656C224.683 95.9387 224.24 96.08 223.685 96.08ZM228.05 96.08C227.597 96.08 227.239 95.96 226.978 95.72C226.717 95.48 226.586 95.1573 226.586 94.752C226.586 94.32 226.733 93.9867 227.026 93.752C227.325 93.512 227.743 93.392 228.282 93.392H229.338V93.024C229.338 92.8107 229.269 92.6453 229.13 92.528C228.991 92.4107 228.797 92.352 228.546 92.352C228.317 92.352 228.127 92.4 227.978 92.496C227.834 92.592 227.754 92.72 227.738 92.88H226.786C226.802 92.6027 226.885 92.3627 227.034 92.16C227.189 91.9573 227.397 91.8 227.658 91.688C227.925 91.576 228.231 91.52 228.578 91.52C229.122 91.52 229.551 91.6533 229.866 91.92C230.181 92.1867 230.338 92.552 230.338 93.016V96H229.37V95.256H229.21L229.378 95.016C229.378 95.3413 229.258 95.6 229.018 95.792C228.778 95.984 228.455 96.08 228.05 96.08ZM228.378 95.336C228.661 95.336 228.89 95.264 229.066 95.12C229.247 94.976 229.338 94.792 229.338 94.568V94.032H228.306C228.082 94.032 227.906 94.0907 227.778 94.208C227.65 94.32 227.586 94.472 227.586 94.664C227.586 94.8773 227.655 95.0427 227.794 95.16C227.938 95.2773 228.133 95.336 228.378 95.336ZM234.127 96C233.839 96 233.586 95.9413 233.367 95.824C233.154 95.7067 232.986 95.5413 232.863 95.328C232.74 95.1093 232.679 94.8587 232.679 94.576V91.064H231.231V90.16H233.679V94.552C233.679 94.7173 233.724 94.8507 233.815 94.952C233.911 95.048 234.039 95.096 234.199 95.096H235.487V96H234.127ZM238.316 96.08C237.943 96.08 237.615 96.0107 237.332 95.872C237.055 95.728 236.839 95.528 236.684 95.272C236.529 95.0107 236.452 94.704 236.452 94.352V93.248C236.452 92.8907 236.529 92.584 236.684 92.328C236.839 92.072 237.055 91.8747 237.332 91.736C237.615 91.592 237.943 91.52 238.316 91.52C238.871 91.52 239.313 91.664 239.644 91.952C239.975 92.2347 240.148 92.6213 240.164 93.112H239.188C239.172 92.8827 239.087 92.7067 238.932 92.584C238.777 92.456 238.572 92.392 238.316 92.392C238.049 92.392 237.839 92.4667 237.684 92.616C237.529 92.76 237.452 92.968 237.452 93.24V94.352C237.452 94.624 237.529 94.8347 237.684 94.984C237.839 95.1333 238.049 95.208 238.316 95.208C238.572 95.208 238.777 95.1467 238.932 95.024C239.087 94.896 239.172 94.7173 239.188 94.488H240.164C240.148 94.9787 239.975 95.368 239.644 95.656C239.313 95.9387 238.871 96.08 238.316 96.08ZM243.169 96.08C242.609 96.08 242.169 95.9253 241.849 95.616C241.529 95.3013 241.369 94.8747 241.369 94.336V91.6H242.369V94.328C242.369 94.6107 242.438 94.8293 242.577 94.984C242.715 95.1333 242.913 95.208 243.169 95.208C243.419 95.208 243.614 95.1333 243.753 94.984C243.897 94.8293 243.969 94.6107 243.969 94.328V91.6H244.969V94.336C244.969 94.8747 244.806 95.3013 244.481 95.616C244.155 95.9253 243.718 96.08 243.169 96.08ZM248.758 96C248.47 96 248.216 95.9413 247.998 95.824C247.784 95.7067 247.616 95.5413 247.494 95.328C247.371 95.1093 247.31 94.8587 247.31 94.576V91.064H245.862V90.16H248.31V94.552C248.31 94.7173 248.355 94.8507 248.446 94.952C248.542 95.048 248.67 95.096 248.83 95.096H250.118V96H248.758ZM252.434 96.08C251.981 96.08 251.624 95.96 251.362 95.72C251.101 95.48 250.97 95.1573 250.97 94.752C250.97 94.32 251.117 93.9867 251.41 93.752C251.709 93.512 252.128 93.392 252.666 93.392H253.722V93.024C253.722 92.8107 253.653 92.6453 253.514 92.528C253.376 92.4107 253.181 92.352 252.93 92.352C252.701 92.352 252.512 92.4 252.362 92.496C252.218 92.592 252.138 92.72 252.122 92.88H251.17C251.186 92.6027 251.269 92.3627 251.418 92.16C251.573 91.9573 251.781 91.8 252.042 91.688C252.309 91.576 252.616 91.52 252.962 91.52C253.506 91.52 253.936 91.6533 254.25 91.92C254.565 92.1867 254.722 92.552 254.722 93.016V96H253.754V95.256H253.594L253.762 95.016C253.762 95.3413 253.642 95.6 253.402 95.792C253.162 95.984 252.84 96.08 252.434 96.08ZM252.762 95.336C253.045 95.336 253.274 95.264 253.45 95.12C253.632 94.976 253.722 94.792 253.722 94.568V94.032H252.69C252.466 94.032 252.29 94.0907 252.162 94.208C252.034 94.32 251.97 94.472 251.97 94.664C251.97 94.8773 252.04 95.0427 252.178 95.16C252.322 95.2773 252.517 95.336 252.762 95.336ZM258.279 96C257.869 96 257.541 95.8827 257.295 95.648C257.055 95.408 256.935 95.0853 256.935 94.68V92.504H255.743V91.6H256.935V90.36H257.943V91.6H259.631V92.504H257.943V94.656C257.943 94.784 257.978 94.8907 258.047 94.976C258.122 95.056 258.223 95.096 258.351 95.096H259.551V96H258.279ZM260.884 96V95.096H262.388V92.504H261.044V91.6H263.388V95.096H264.74V96H260.884ZM262.82 90.864C262.618 90.864 262.458 90.8133 262.34 90.712C262.223 90.6053 262.164 90.464 262.164 90.288C262.164 90.112 262.223 89.9733 262.34 89.872C262.458 89.7653 262.618 89.712 262.82 89.712C263.023 89.712 263.183 89.7653 263.3 89.872C263.418 89.9733 263.476 90.112 263.476 90.288C263.476 90.464 263.418 90.6053 263.3 90.712C263.183 90.8133 263.023 90.864 262.82 90.864ZM267.553 96.072C267.18 96.072 266.854 96.0027 266.577 95.864C266.3 95.72 266.086 95.52 265.937 95.264C265.788 95.0027 265.713 94.696 265.713 94.344V93.256C265.713 92.904 265.788 92.6 265.937 92.344C266.086 92.0827 266.3 91.8827 266.577 91.744C266.854 91.6 267.18 91.528 267.553 91.528C267.932 91.528 268.257 91.6 268.529 91.744C268.806 91.8827 269.02 92.0827 269.169 92.344C269.318 92.6 269.393 92.9013 269.393 93.248V94.344C269.393 94.696 269.318 95.0027 269.169 95.264C269.02 95.52 268.806 95.72 268.529 95.864C268.257 96.0027 267.932 96.072 267.553 96.072ZM267.553 95.2C267.82 95.2 268.025 95.128 268.169 94.984C268.318 94.8347 268.393 94.6213 268.393 94.344V93.256C268.393 92.9733 268.318 92.76 268.169 92.616C268.025 92.472 267.82 92.4 267.553 92.4C267.292 92.4 267.086 92.472 266.937 92.616C266.788 92.76 266.713 92.9733 266.713 93.256V94.344C266.713 94.6213 266.788 94.8347 266.937 94.984C267.086 95.128 267.292 95.2 267.553 95.2ZM270.646 96V91.6H271.622V92.44H271.894L271.622 92.672C271.622 92.3147 271.726 92.0347 271.934 91.832C272.147 91.624 272.438 91.52 272.806 91.52C273.238 91.52 273.582 91.664 273.838 91.952C274.099 92.24 274.23 92.6267 274.23 93.112V96H273.23V93.216C273.23 92.9493 273.161 92.744 273.022 92.6C272.883 92.456 272.691 92.384 272.446 92.384C272.195 92.384 271.998 92.4587 271.854 92.608C271.715 92.7573 271.646 92.9707 271.646 93.248V96H270.646Z" fill="white"/>
<mask id="path-41-inside-6_397_52284" fill="white">
<path d="M184 19H342V58C342 59.1046 341.105 60 340 60H186C184.895 60 184 59.1046 184 58V19Z"/>
</mask>
<path d="M184 19H342V58C342 59.1046 341.105 60 340 60H186C184.895 60 184 59.1046 184 58V19Z" fill="#141230" fill-opacity="0.4"/>
<path d="M184 19V18.5H183.5V19H184ZM342 19H342.5V18.5H342V19ZM184 19V19.5H342V19V18.5H184V19ZM342 19H341.5V58H342H342.5V19H342ZM340 60V59.5H186V60V60.5H340V60ZM184 58H184.5V19H184H183.5V58H184ZM186 60V59.5C185.172 59.5 184.5 58.8284 184.5 58H184H183.5C183.5 59.3807 184.619 60.5 186 60.5V60ZM342 58H341.5C341.5 58.8284 340.828 59.5 340 59.5V60V60.5C341.381 60.5 342.5 59.3807 342.5 58H342Z" fill="#2C2A45" mask="url(#path-41-inside-6_397_52284)"/>
<path d="M192 29C192 28.4477 192.448 28 193 28H333C333.552 28 334 28.4477 334 29V51C334 51.5523 333.552 52 333 52H193C192.448 52 192 51.5523 192 51V29Z" fill="#5A50FA" fill-opacity="0.1"/>
<path d="M201.024 42.5V36.66H201.816V41.78H204.416V42.5H201.024ZM206.789 42.58C206.325 42.58 205.96 42.4627 205.693 42.228C205.432 41.988 205.301 41.6653 205.301 41.26C205.301 40.844 205.437 40.5187 205.709 40.284C205.986 40.044 206.362 39.924 206.837 39.924H208.117V39.508C208.117 39.252 208.037 39.0547 207.877 38.916C207.722 38.772 207.506 38.7 207.229 38.7C206.978 38.7 206.768 38.756 206.597 38.868C206.432 38.9747 206.33 39.116 206.293 39.292H205.517C205.538 39.036 205.624 38.8147 205.773 38.628C205.928 38.436 206.13 38.2867 206.381 38.18C206.637 38.0733 206.922 38.02 207.237 38.02C207.754 38.02 208.162 38.1507 208.461 38.412C208.76 38.6733 208.909 39.0307 208.909 39.484V42.5H208.133V41.684H208.005L208.141 41.532C208.141 41.8573 208.016 42.1133 207.765 42.3C207.52 42.4867 207.194 42.58 206.789 42.58ZM207.005 41.964C207.33 41.964 207.597 41.884 207.805 41.724C208.013 41.5587 208.117 41.348 208.117 41.092V40.492H206.853C206.618 40.492 206.432 40.556 206.293 40.684C206.16 40.812 206.093 40.9853 206.093 41.204C206.093 41.444 206.173 41.6307 206.333 41.764C206.493 41.8973 206.717 41.964 207.005 41.964ZM210.434 42.5V38.1H211.218V38.94H211.402L211.218 39.124C211.218 38.7773 211.322 38.508 211.53 38.316C211.743 38.1187 212.036 38.02 212.41 38.02C212.863 38.02 213.226 38.1667 213.498 38.46C213.77 38.7533 213.906 39.148 213.906 39.644V39.964H213.106V39.716C213.106 39.396 213.023 39.148 212.858 38.972C212.698 38.796 212.46 38.708 212.146 38.708C211.852 38.708 211.626 38.796 211.466 38.972C211.306 39.1427 211.226 39.3933 211.226 39.724V42.5H210.434ZM215.663 43.94V43.236H217.039C217.263 43.236 217.425 43.1853 217.527 43.084C217.633 42.9827 217.687 42.8253 217.687 42.612V42.116L217.703 41.308H217.543L217.703 41.164C217.703 41.4893 217.596 41.748 217.383 41.94C217.169 42.132 216.884 42.228 216.527 42.228C216.073 42.228 215.716 42.0787 215.455 41.78C215.193 41.4813 215.063 41.0787 215.063 40.572V39.668C215.063 39.1613 215.193 38.7613 215.455 38.468C215.716 38.1693 216.073 38.02 216.527 38.02C216.884 38.02 217.169 38.116 217.383 38.308C217.596 38.4947 217.703 38.7533 217.703 39.084L217.543 38.94H217.703L217.695 38.1H218.479V42.62C218.479 43.0253 218.351 43.3453 218.095 43.58C217.839 43.82 217.484 43.94 217.031 43.94H215.663ZM216.775 41.54C217.063 41.54 217.287 41.452 217.447 41.276C217.612 41.0947 217.695 40.8467 217.695 40.532V39.716C217.695 39.396 217.612 39.148 217.447 38.972C217.287 38.796 217.063 38.708 216.775 38.708C216.481 38.708 216.255 38.796 216.095 38.972C215.935 39.1427 215.855 39.3907 215.855 39.716V40.532C215.855 40.8573 215.935 41.108 216.095 41.284C216.255 41.4547 216.481 41.54 216.775 41.54ZM221.588 42.58C221.236 42.58 220.926 42.5107 220.66 42.372C220.398 42.2333 220.196 42.036 220.052 41.78C219.908 41.524 219.836 41.2253 219.836 40.884V39.716C219.836 39.3693 219.908 39.0707 220.052 38.82C220.196 38.564 220.398 38.3667 220.66 38.228C220.926 38.0893 221.236 38.02 221.588 38.02C221.94 38.02 222.246 38.0893 222.508 38.228C222.774 38.3667 222.98 38.564 223.124 38.82C223.268 39.0707 223.34 39.3693 223.34 39.716V40.492H220.612V40.884C220.612 41.2253 220.694 41.484 220.86 41.66C221.03 41.836 221.273 41.924 221.588 41.924C221.854 41.924 222.068 41.8787 222.228 41.788C222.393 41.692 222.494 41.5507 222.532 41.364H223.316C223.262 41.7373 223.076 42.0333 222.756 42.252C222.441 42.4707 222.052 42.58 221.588 42.58ZM222.564 39.988V39.708C222.564 39.372 222.481 39.116 222.316 38.94C222.15 38.7587 221.908 38.668 221.588 38.668C221.273 38.668 221.03 38.7587 220.86 38.94C220.694 39.1213 220.612 39.38 220.612 39.716V39.924H222.628L222.564 39.988ZM230.781 42.5V37.38H229.205V36.66H233.157V37.38H231.581V42.5H230.781ZM234.418 42.5V38.1H235.202V38.94H235.386L235.202 39.124C235.202 38.7773 235.306 38.508 235.514 38.316C235.727 38.1187 236.021 38.02 236.394 38.02C236.847 38.02 237.21 38.1667 237.482 38.46C237.754 38.7533 237.89 39.148 237.89 39.644V39.964H237.09V39.716C237.09 39.396 237.007 39.148 236.842 38.972C236.682 38.796 236.445 38.708 236.13 38.708C235.837 38.708 235.61 38.796 235.45 38.972C235.29 39.1427 235.21 39.3933 235.21 39.724V42.5H234.418ZM240.367 42.58C239.903 42.58 239.538 42.4627 239.271 42.228C239.01 41.988 238.879 41.6653 238.879 41.26C238.879 40.844 239.015 40.5187 239.287 40.284C239.564 40.044 239.94 39.924 240.415 39.924H241.695V39.508C241.695 39.252 241.615 39.0547 241.455 38.916C241.3 38.772 241.084 38.7 240.807 38.7C240.556 38.7 240.346 38.756 240.175 38.868C240.01 38.9747 239.908 39.116 239.871 39.292H239.095C239.116 39.036 239.202 38.8147 239.351 38.628C239.506 38.436 239.708 38.2867 239.959 38.18C240.215 38.0733 240.5 38.02 240.815 38.02C241.332 38.02 241.74 38.1507 242.039 38.412C242.338 38.6733 242.487 39.0307 242.487 39.484V42.5H241.711V41.684H241.583L241.719 41.532C241.719 41.8573 241.594 42.1133 241.343 42.3C241.098 42.4867 240.772 42.58 240.367 42.58ZM240.583 41.964C240.908 41.964 241.175 41.884 241.383 41.724C241.591 41.5587 241.695 41.348 241.695 41.092V40.492H240.431C240.196 40.492 240.01 40.556 239.871 40.684C239.738 40.812 239.671 40.9853 239.671 41.204C239.671 41.444 239.751 41.6307 239.911 41.764C240.071 41.8973 240.295 41.964 240.583 41.964ZM243.876 42.5V38.1H244.66V38.94H244.844L244.66 39.124C244.66 38.7773 244.764 38.508 244.972 38.316C245.185 38.1187 245.476 38.02 245.844 38.02C246.281 38.02 246.631 38.1587 246.892 38.436C247.153 38.7133 247.284 39.0867 247.284 39.556V42.5H246.492V39.644C246.492 39.34 246.412 39.108 246.252 38.948C246.092 38.788 245.873 38.708 245.596 38.708C245.308 38.708 245.081 38.796 244.916 38.972C244.751 39.1427 244.668 39.3907 244.668 39.716V42.5H243.876ZM250.225 42.564C249.915 42.564 249.641 42.516 249.401 42.42C249.161 42.324 248.974 42.188 248.841 42.012C248.707 41.8307 248.641 41.6173 248.641 41.372H249.449C249.449 41.532 249.523 41.6573 249.673 41.748C249.822 41.8387 250.011 41.884 250.241 41.884H250.577C250.849 41.884 251.051 41.8307 251.185 41.724C251.323 41.612 251.393 41.4653 251.393 41.284C251.393 41.1027 251.329 40.9613 251.201 40.86C251.073 40.7533 250.889 40.6813 250.649 40.644L250.057 40.556C249.614 40.4813 249.283 40.3427 249.065 40.14C248.851 39.932 248.745 39.6467 248.745 39.284C248.745 38.8787 248.875 38.5693 249.137 38.356C249.403 38.1427 249.787 38.036 250.289 38.036H250.593C251.051 38.036 251.419 38.14 251.697 38.348C251.974 38.5507 252.113 38.82 252.113 39.156H251.305C251.305 39.0227 251.241 38.916 251.113 38.836C250.985 38.756 250.806 38.716 250.577 38.716H250.273C250.033 38.716 249.846 38.7667 249.713 38.868C249.585 38.964 249.521 39.1027 249.521 39.284C249.521 39.588 249.739 39.7773 250.177 39.852L250.777 39.948C251.257 40.0173 251.609 40.156 251.833 40.364C252.057 40.572 252.169 40.868 252.169 41.252C252.169 41.6627 252.035 41.9853 251.769 42.22C251.502 42.4493 251.099 42.564 250.561 42.564H250.225ZM254.758 42.58C254.294 42.58 253.928 42.4627 253.662 42.228C253.4 41.988 253.27 41.6653 253.27 41.26C253.27 40.844 253.406 40.5187 253.678 40.284C253.955 40.044 254.331 39.924 254.806 39.924H256.086V39.508C256.086 39.252 256.006 39.0547 255.846 38.916C255.691 38.772 255.475 38.7 255.198 38.7C254.947 38.7 254.736 38.756 254.566 38.868C254.4 38.9747 254.299 39.116 254.262 39.292H253.486C253.507 39.036 253.592 38.8147 253.742 38.628C253.896 38.436 254.099 38.2867 254.35 38.18C254.606 38.0733 254.891 38.02 255.206 38.02C255.723 38.02 256.131 38.1507 256.43 38.412C256.728 38.6733 256.878 39.0307 256.878 39.484V42.5H256.102V41.684H255.974L256.11 41.532C256.11 41.8573 255.984 42.1133 255.734 42.3C255.488 42.4867 255.163 42.58 254.758 42.58ZM254.974 41.964C255.299 41.964 255.566 41.884 255.774 41.724C255.982 41.5587 256.086 41.348 256.086 41.092V40.492H254.822C254.587 40.492 254.4 40.556 254.262 40.684C254.128 40.812 254.062 40.9853 254.062 41.204C254.062 41.444 254.142 41.6307 254.302 41.764C254.462 41.8973 254.686 41.964 254.974 41.964ZM259.995 42.58C259.637 42.58 259.323 42.5133 259.051 42.38C258.784 42.2413 258.576 42.0467 258.427 41.796C258.283 41.54 258.211 41.236 258.211 40.884V39.716C258.211 39.3587 258.283 39.0547 258.427 38.804C258.576 38.5533 258.784 38.3613 259.051 38.228C259.323 38.0893 259.637 38.02 259.995 38.02C260.512 38.02 260.928 38.1587 261.243 38.436C261.557 38.708 261.723 39.0813 261.739 39.556H260.955C260.939 39.2893 260.845 39.084 260.675 38.94C260.509 38.796 260.283 38.724 259.995 38.724C259.691 38.724 259.448 38.8093 259.267 38.98C259.091 39.1453 259.003 39.388 259.003 39.708V40.884C259.003 41.204 259.091 41.4493 259.267 41.62C259.448 41.7907 259.691 41.876 259.995 41.876C260.283 41.876 260.509 41.804 260.675 41.66C260.845 41.5107 260.939 41.3053 260.955 41.044H261.739C261.723 41.5187 261.557 41.8947 261.243 42.172C260.928 42.444 260.512 42.58 259.995 42.58ZM265.239 42.5C264.866 42.5 264.565 42.3907 264.335 42.172C264.111 41.9533 263.999 41.6627 263.999 41.3V38.82H262.775V38.1H263.999V36.86H264.799V38.1H266.535V38.82H264.799V41.292C264.799 41.436 264.839 41.5533 264.919 41.644C265.005 41.7347 265.117 41.78 265.255 41.78H266.455V42.5H265.239ZM267.82 42.5V41.78H269.364V38.82H267.98V38.1H270.156V41.78H271.604V42.5H267.82ZM269.684 37.324C269.503 37.324 269.359 37.2787 269.252 37.188C269.146 37.092 269.092 36.964 269.092 36.804C269.092 36.6387 269.146 36.508 269.252 36.412C269.359 36.316 269.503 36.268 269.684 36.268C269.866 36.268 270.01 36.316 270.116 36.412C270.223 36.508 270.276 36.6387 270.276 36.804C270.276 36.964 270.223 37.092 270.116 37.188C270.01 37.2787 269.866 37.324 269.684 37.324ZM274.353 42.564C273.996 42.564 273.684 42.4973 273.417 42.364C273.156 42.2253 272.953 42.0307 272.809 41.78C272.67 41.524 272.601 41.2227 272.601 40.876V39.724C272.601 39.3773 272.67 39.0787 272.809 38.828C272.953 38.572 273.156 38.3773 273.417 38.244C273.684 38.1053 273.996 38.036 274.353 38.036C274.716 38.036 275.028 38.1053 275.289 38.244C275.55 38.3773 275.75 38.5693 275.889 38.82C276.033 39.0707 276.105 39.3693 276.105 39.716V40.876C276.105 41.2227 276.033 41.524 275.889 41.78C275.75 42.0307 275.55 42.2253 275.289 42.364C275.028 42.4973 274.716 42.564 274.353 42.564ZM274.353 41.868C274.657 41.868 274.892 41.7853 275.057 41.62C275.228 41.4493 275.313 41.2013 275.313 40.876V39.724C275.313 39.3987 275.228 39.1533 275.057 38.988C274.892 38.8173 274.657 38.732 274.353 38.732C274.054 38.732 273.82 38.8173 273.649 38.988C273.478 39.1533 273.393 39.3987 273.393 39.724V40.876C273.393 41.2013 273.478 41.4493 273.649 41.62C273.82 41.7853 274.054 41.868 274.353 41.868ZM277.454 42.5V38.1H278.238V38.94H278.422L278.238 39.124C278.238 38.7773 278.342 38.508 278.55 38.316C278.763 38.1187 279.054 38.02 279.422 38.02C279.859 38.02 280.209 38.1587 280.47 38.436C280.731 38.7133 280.862 39.0867 280.862 39.556V42.5H280.07V39.644C280.07 39.34 279.99 39.108 279.83 38.948C279.67 38.788 279.451 38.708 279.174 38.708C278.886 38.708 278.659 38.796 278.494 38.972C278.329 39.1427 278.246 39.3907 278.246 39.716V42.5H277.454ZM286.712 42.5L288.224 36.66H289.272L290.776 42.5H289.968L289.6 40.98H287.888L287.52 42.5H286.712ZM288.048 40.324H289.44L289.016 38.58C288.941 38.26 288.88 37.988 288.832 37.764C288.784 37.54 288.754 37.388 288.744 37.308C288.733 37.388 288.704 37.54 288.656 37.764C288.608 37.988 288.546 38.2573 288.472 38.572L288.048 40.324ZM291.597 42.5V38.1H292.277V38.644H292.429L292.309 38.828C292.309 38.588 292.378 38.3933 292.517 38.244C292.655 38.0947 292.837 38.02 293.061 38.02C293.29 38.02 293.479 38.116 293.629 38.308C293.778 38.4947 293.853 38.74 293.853 39.044L293.637 38.644H293.957L293.821 38.828C293.821 38.588 293.89 38.3933 294.029 38.244C294.173 38.0947 294.359 38.02 294.589 38.02C294.855 38.02 295.071 38.1267 295.237 38.34C295.402 38.548 295.485 38.82 295.485 39.156V42.5H294.765V39.164C294.765 38.988 294.725 38.8547 294.645 38.764C294.57 38.668 294.461 38.62 294.317 38.62C294.167 38.62 294.053 38.668 293.973 38.764C293.893 38.8547 293.853 38.988 293.853 39.164V42.5H293.229V39.164C293.229 38.988 293.186 38.8547 293.101 38.764C293.021 38.668 292.909 38.62 292.765 38.62C292.621 38.62 292.509 38.668 292.429 38.764C292.354 38.8547 292.317 38.988 292.317 39.164V42.5H291.597ZM298.338 42.564C297.98 42.564 297.668 42.4973 297.402 42.364C297.14 42.2253 296.938 42.0307 296.794 41.78C296.655 41.524 296.586 41.2227 296.586 40.876V39.724C296.586 39.3773 296.655 39.0787 296.794 38.828C296.938 38.572 297.14 38.3773 297.402 38.244C297.668 38.1053 297.98 38.036 298.338 38.036C298.7 38.036 299.012 38.1053 299.274 38.244C299.535 38.3773 299.735 38.5693 299.874 38.82C300.018 39.0707 300.09 39.3693 300.09 39.716V40.876C300.09 41.2227 300.018 41.524 299.874 41.78C299.735 42.0307 299.535 42.2253 299.274 42.364C299.012 42.4973 298.7 42.564 298.338 42.564ZM298.338 41.868C298.642 41.868 298.876 41.7853 299.042 41.62C299.212 41.4493 299.298 41.2013 299.298 40.876V39.724C299.298 39.3987 299.212 39.1533 299.042 38.988C298.876 38.8173 298.642 38.732 298.338 38.732C298.039 38.732 297.804 38.8173 297.634 38.988C297.463 39.1533 297.378 39.3987 297.378 39.724V40.876C297.378 41.2013 297.463 41.4493 297.634 41.62C297.804 41.7853 298.039 41.868 298.338 41.868ZM303.126 42.58C302.609 42.58 302.196 42.428 301.886 42.124C301.577 41.82 301.422 41.4067 301.422 40.884V38.1H302.214V40.884C302.214 41.1987 302.294 41.444 302.454 41.62C302.62 41.796 302.844 41.884 303.126 41.884C303.414 41.884 303.641 41.796 303.806 41.62C303.972 41.444 304.054 41.1987 304.054 40.884V38.1H304.846V40.884C304.846 41.4067 304.689 41.82 304.374 42.124C304.06 42.428 303.644 42.58 303.126 42.58ZM306.235 42.5V38.1H307.019V38.94H307.203L307.019 39.124C307.019 38.7773 307.123 38.508 307.331 38.316C307.545 38.1187 307.835 38.02 308.203 38.02C308.641 38.02 308.99 38.1587 309.251 38.436C309.513 38.7133 309.643 39.0867 309.643 39.556V42.5H308.851V39.644C308.851 39.34 308.771 39.108 308.611 38.948C308.451 38.788 308.233 38.708 307.955 38.708C307.667 38.708 307.441 38.796 307.275 38.972C307.11 39.1427 307.027 39.3907 307.027 39.716V42.5H306.235ZM313.208 42.5C312.835 42.5 312.533 42.3907 312.304 42.172C312.08 41.9533 311.968 41.6627 311.968 41.3V38.82H310.744V38.1H311.968V36.86H312.768V38.1H314.504V38.82H312.768V41.292C312.768 41.436 312.808 41.5533 312.888 41.644C312.973 41.7347 313.085 41.78 313.224 41.78H314.424V42.5H313.208Z" fill="white"/>
<path d="M192 32L192 29C192 28.4477 192.448 28 193 28L196 28" stroke="#5A50F8" stroke-width="0.551613"/>
<path d="M196 52L193 52C192.448 52 192 51.5523 192 51L192 48" stroke="#5A50F8" stroke-width="0.551613"/>
<path d="M334 32L334 29C334 28.4477 333.552 28 333 28L330 28" stroke="#5A50F8" stroke-width="0.551613"/>
<path d="M330 52L333 52C333.552 52 334 51.5523 334 51L334 48" stroke="#5A50F8" stroke-width="0.551613"/>
<path d="M184 2C184 0.895431 184.895 0 186 0H340C341.105 0 342 0.895431 342 2V20H184V2Z" fill="url(#paint1_linear_397_52284)"/>
<path d="M192.608 13V7.16H194.456C194.845 7.16 195.181 7.232 195.464 7.376C195.752 7.52 195.976 7.72267 196.136 7.984C196.296 8.24 196.376 8.544 196.376 8.896C196.376 9.28 196.277 9.61867 196.08 9.912C195.888 10.2053 195.627 10.4133 195.296 10.536L196.456 13H195.336L194.32 10.68H193.608V13H192.608ZM193.608 9.8H194.456C194.739 9.8 194.96 9.72267 195.12 9.568C195.28 9.41333 195.36 9.2 195.36 8.928C195.36 8.65067 195.28 8.43467 195.12 8.28C194.96 8.12 194.739 8.04 194.456 8.04H193.608V9.8ZM199.277 13.08C198.717 13.08 198.277 12.9253 197.957 12.616C197.637 12.3013 197.477 11.8747 197.477 11.336V8.6H198.477V11.328C198.477 11.6107 198.546 11.8293 198.685 11.984C198.824 12.1333 199.021 12.208 199.277 12.208C199.528 12.208 199.722 12.1333 199.861 11.984C200.005 11.8293 200.077 11.6107 200.077 11.328V8.6H201.077V11.336C201.077 11.8747 200.914 12.3013 200.589 12.616C200.264 12.9253 199.826 13.08 199.277 13.08ZM204.866 13C204.578 13 204.324 12.9413 204.106 12.824C203.892 12.7067 203.724 12.5413 203.602 12.328C203.479 12.1093 203.418 11.8587 203.418 11.576V8.064H201.97V7.16H204.418V11.552C204.418 11.7173 204.463 11.8507 204.554 11.952C204.65 12.048 204.778 12.096 204.938 12.096H206.226V13H204.866ZM209.039 13.08C208.665 13.08 208.34 13.008 208.063 12.864C207.785 12.72 207.569 12.52 207.415 12.264C207.265 12.0027 207.191 11.6987 207.191 11.352V10.248C207.191 9.90133 207.265 9.6 207.415 9.344C207.569 9.08267 207.785 8.88 208.063 8.736C208.34 8.592 208.665 8.52 209.039 8.52C209.407 8.52 209.727 8.592 209.999 8.736C210.276 8.88 210.489 9.08267 210.639 9.344C210.793 9.6 210.871 9.90133 210.871 10.248V11.04H208.159V11.352C208.159 11.6613 208.233 11.896 208.383 12.056C208.532 12.2107 208.753 12.288 209.047 12.288C209.271 12.288 209.452 12.2507 209.591 12.176C209.729 12.096 209.817 11.9813 209.855 11.832H210.839C210.764 12.2107 210.561 12.5147 210.231 12.744C209.905 12.968 209.508 13.08 209.039 13.08ZM209.903 10.48V10.24C209.903 9.936 209.831 9.704 209.687 9.544C209.543 9.37867 209.327 9.296 209.039 9.296C208.751 9.296 208.532 9.37867 208.383 9.544C208.233 9.70933 208.159 9.944 208.159 10.248V10.416L209.975 10.4L209.903 10.48ZM213.739 13.072C213.403 13.072 213.107 13.0187 212.851 12.912C212.595 12.8053 212.395 12.6587 212.251 12.472C212.113 12.28 212.043 12.0533 212.043 11.792H213.051C213.051 11.9467 213.113 12.0667 213.235 12.152C213.363 12.232 213.534 12.272 213.747 12.272H214.091C214.337 12.272 214.521 12.2267 214.643 12.136C214.771 12.0453 214.835 11.92 214.835 11.76C214.835 11.6053 214.777 11.4827 214.659 11.392C214.542 11.296 214.374 11.232 214.155 11.2L213.539 11.12C213.081 11.0507 212.734 10.9067 212.499 10.688C212.27 10.4693 212.155 10.1733 212.155 9.8C212.155 9.384 212.294 9.06933 212.571 8.856C212.854 8.63733 213.262 8.528 213.795 8.528H214.099C214.601 8.528 215.001 8.63733 215.299 8.856C215.598 9.07467 215.747 9.368 215.747 9.736H214.739C214.739 9.608 214.683 9.50933 214.571 9.44C214.459 9.36533 214.299 9.328 214.091 9.328H213.787C213.574 9.328 213.411 9.37067 213.299 9.456C213.187 9.536 213.131 9.65067 213.131 9.8C213.131 10.072 213.326 10.2373 213.715 10.296L214.339 10.392C214.835 10.456 215.203 10.6 215.443 10.824C215.689 11.0427 215.812 11.3467 215.812 11.736C215.812 12.1573 215.665 12.4853 215.371 12.72C215.083 12.9547 214.657 13.072 214.091 13.072H213.739ZM223.125 13.08C222.645 13.08 222.272 12.9467 222.005 12.68C221.739 12.4133 221.605 12.0453 221.605 11.576V10.832C221.605 10.4747 221.693 10.1813 221.869 9.952C222.051 9.72267 222.307 9.58133 222.637 9.528L222.533 9.744C222.368 9.51467 222.24 9.29067 222.149 9.072C222.064 8.85333 222.021 8.63733 222.021 8.424C222.021 8.15733 222.085 7.92533 222.213 7.728C222.341 7.52533 222.52 7.368 222.749 7.256C222.979 7.13867 223.248 7.08 223.557 7.08C223.877 7.08 224.155 7.14133 224.389 7.264C224.629 7.38667 224.813 7.55733 224.941 7.776C225.075 7.98933 225.141 8.24267 225.141 8.536H224.213C224.213 8.408 224.187 8.296 224.133 8.2C224.08 8.104 224.003 8.032 223.901 7.984C223.805 7.93067 223.691 7.904 223.557 7.904C223.429 7.904 223.317 7.928 223.221 7.976C223.125 8.024 223.051 8.09333 222.997 8.184C222.949 8.27467 222.925 8.38133 222.925 8.504C222.925 8.632 222.957 8.77333 223.021 8.928C223.091 9.08267 223.184 9.24 223.301 9.4L224.405 10.96L224.845 10.12H225.813L224.957 11.744L225.853 13H224.853L224.477 12.472C224.104 12.8773 223.653 13.08 223.125 13.08ZM223.205 12.256C223.36 12.256 223.504 12.2133 223.637 12.128C223.771 12.0427 223.885 11.9253 223.981 11.776L222.885 10.24C222.773 10.2827 222.691 10.3547 222.637 10.456C222.584 10.552 222.557 10.6773 222.557 10.832V11.576C222.557 11.7893 222.613 11.9573 222.725 12.08C222.843 12.1973 223.003 12.256 223.205 12.256ZM233.439 13.08C233.066 13.08 232.738 13.0107 232.455 12.872C232.178 12.728 231.962 12.528 231.807 12.272C231.652 12.0107 231.575 11.704 231.575 11.352V10.248C231.575 9.89067 231.652 9.584 231.807 9.328C231.962 9.072 232.178 8.87467 232.455 8.736C232.738 8.592 233.066 8.52 233.439 8.52C233.994 8.52 234.436 8.664 234.767 8.952C235.098 9.23467 235.271 9.62133 235.287 10.112H234.311C234.295 9.88267 234.21 9.70667 234.055 9.584C233.9 9.456 233.695 9.392 233.439 9.392C233.172 9.392 232.962 9.46667 232.807 9.616C232.652 9.76 232.575 9.968 232.575 10.24V11.352C232.575 11.624 232.652 11.8347 232.807 11.984C232.962 12.1333 233.172 12.208 233.439 12.208C233.695 12.208 233.9 12.1467 234.055 12.024C234.21 11.896 234.295 11.7173 234.311 11.488H235.287C235.271 11.9787 235.098 12.368 234.767 12.656C234.436 12.9387 233.994 13.08 233.439 13.08ZM236.508 13V7.16H237.508V8.6L237.484 9.44H237.756L237.484 9.672C237.484 9.31467 237.588 9.03467 237.796 8.832C238.009 8.624 238.3 8.52 238.668 8.52C239.1 8.52 239.444 8.664 239.7 8.952C239.961 9.24 240.092 9.62667 240.092 10.112V13H239.092V10.216C239.092 9.94933 239.023 9.744 238.884 9.6C238.745 9.456 238.553 9.384 238.308 9.384C238.057 9.384 237.86 9.45867 237.716 9.608C237.577 9.75733 237.508 9.97067 237.508 10.248V13H236.508ZM243.177 13.08C242.803 13.08 242.478 13.008 242.201 12.864C241.923 12.72 241.707 12.52 241.553 12.264C241.403 12.0027 241.329 11.6987 241.329 11.352V10.248C241.329 9.90133 241.403 9.6 241.553 9.344C241.707 9.08267 241.923 8.88 242.201 8.736C242.478 8.592 242.803 8.52 243.177 8.52C243.545 8.52 243.865 8.592 244.137 8.736C244.414 8.88 244.627 9.08267 244.777 9.344C244.931 9.6 245.009 9.90133 245.009 10.248V11.04H242.297V11.352C242.297 11.6613 242.371 11.896 242.521 12.056C242.67 12.2107 242.891 12.288 243.185 12.288C243.409 12.288 243.59 12.2507 243.729 12.176C243.867 12.096 243.955 11.9813 243.993 11.832H244.977C244.902 12.2107 244.699 12.5147 244.369 12.744C244.043 12.968 243.646 13.08 243.177 13.08ZM244.041 10.48V10.24C244.041 9.936 243.969 9.704 243.825 9.544C243.681 9.37867 243.465 9.296 243.177 9.296C242.889 9.296 242.67 9.37867 242.521 9.544C242.371 9.70933 242.297 9.944 242.297 10.248V10.416L244.113 10.4L244.041 10.48ZM248.07 13.08C247.696 13.08 247.368 13.0107 247.086 12.872C246.808 12.728 246.592 12.528 246.438 12.272C246.283 12.0107 246.206 11.704 246.206 11.352V10.248C246.206 9.89067 246.283 9.584 246.438 9.328C246.592 9.072 246.808 8.87467 247.086 8.736C247.368 8.592 247.696 8.52 248.07 8.52C248.624 8.52 249.067 8.664 249.398 8.952C249.728 9.23467 249.902 9.62133 249.918 10.112H248.942C248.926 9.88267 248.84 9.70667 248.686 9.584C248.531 9.456 248.326 9.392 248.07 9.392C247.803 9.392 247.592 9.46667 247.438 9.616C247.283 9.76 247.206 9.968 247.206 10.24V11.352C247.206 11.624 247.283 11.8347 247.438 11.984C247.592 12.1333 247.803 12.208 248.07 12.208C248.326 12.208 248.531 12.1467 248.686 12.024C248.84 11.896 248.926 11.7173 248.942 11.488H249.918C249.902 11.9787 249.728 12.368 249.398 12.656C249.067 12.9387 248.624 13.08 248.07 13.08ZM251.162 13V7.16H252.162V10.328H252.866L253.938 8.6H255.05L253.722 10.728L255.074 13H253.938L252.866 11.176H252.162V13H251.162ZM257.631 13.072C257.295 13.072 256.999 13.0187 256.743 12.912C256.487 12.8053 256.287 12.6587 256.143 12.472C256.005 12.28 255.935 12.0533 255.935 11.792H256.943C256.943 11.9467 257.005 12.0667 257.127 12.152C257.255 12.232 257.426 12.272 257.639 12.272H257.983C258.229 12.272 258.413 12.2267 258.535 12.136C258.663 12.0453 258.727 11.92 258.727 11.76C258.727 11.6053 258.669 11.4827 258.551 11.392C258.434 11.296 258.266 11.232 258.047 11.2L257.431 11.12C256.973 11.0507 256.626 10.9067 256.391 10.688C256.162 10.4693 256.047 10.1733 256.047 9.8C256.047 9.384 256.186 9.06933 256.463 8.856C256.746 8.63733 257.154 8.528 257.687 8.528H257.991C258.493 8.528 258.893 8.63733 259.191 8.856C259.49 9.07467 259.639 9.368 259.639 9.736H258.631C258.631 9.608 258.575 9.50933 258.463 9.44C258.351 9.36533 258.191 9.328 257.983 9.328H257.679C257.466 9.328 257.303 9.37067 257.191 9.456C257.079 9.536 257.023 9.65067 257.023 9.8C257.023 10.072 257.218 10.2373 257.607 10.296L258.231 10.392C258.727 10.456 259.095 10.6 259.335 10.824C259.581 11.0427 259.703 11.3467 259.703 11.736C259.703 12.1573 259.557 12.4853 259.263 12.72C258.975 12.9547 258.549 13.072 257.983 13.072H257.631Z" fill="white"/>
<defs>
<filter id="filter5_dd_397_52284" x="189.794" y="173.1" width="12.4129" height="12.4129" filterUnits="userSpaceOnUse" color-interpolation-filters="sRGB">
<feFlood flood-opacity="0" result="BackgroundImageFix"/>
<feColorMatrix in="SourceAlpha" type="matrix" values="0 0 0 0 0 0 0 0 0 0 0 0 0 0 0 0 0 0 127 0" result="hardAlpha"/>
<feOffset/>
<feGaussianBlur stdDeviation="1.10323"/>
<feComposite in2="hardAlpha" operator="out"/>
<feColorMatrix type="matrix" values="0 0 0 0 0.352941 0 0 0 0 0.313726 0 0 0 0 0.980392 0 0 0 0.15 0"/>
<feBlend mode="normal" in2="BackgroundImageFix" result="effect1_dropShadow_397_52284"/>
<feColorMatrix in="SourceAlpha" type="matrix" values="0 0 0 0 0 0 0 0 0 0 0 0 0 0 0 0 0 0 127 0" result="hardAlpha"/>
<feMorphology radius="0.25" operator="dilate" in="SourceAlpha" result="effect2_dropShadow_397_52284"/>
<feOffset/>
<feComposite in2="hardAlpha" operator="out"/>
<feColorMatrix type="matrix" values="0 0 0 0 0.894118 0 0 0 0 0.894118 0 0 0 0 0.996078 0 0 0 1 0"/>
<feBlend mode="normal" in2="effect1_dropShadow_397_52284" result="effect2_dropShadow_397_52284"/>
<feBlend mode="normal" in="SourceGraphic" in2="effect2_dropShadow_397_52284" result="shape"/>
</filter>
<linearGradient id="paint0_linear_397_52284" x1="189.695" y1="94.8552" x2="330.292" y2="95.4656" gradientUnits="userSpaceOnUse">
<stop stop-color="#5A50FA"/>
<stop offset="1" stop-color="#5046F2"/>
</linearGradient>
<linearGradient id="paint1_linear_397_52284" x1="189.695" y1="11.8552" x2="330.292" y2="12.4656" gradientUnits="userSpaceOnUse">
<stop stop-color="#5A50FA"/>
<stop offset="1" stop-color="#5046F2"/>
</linearGradient>
</defs>
</svg>
